<svg width="105" height="33" viewBox="0 0 105 33" fill="none" xmlns="http://www.w3.org/2000/svg">
<path d="M63.4566 0.507047C72.2325 0.544767 83.0719 3.60615 87.9136 4.83908C90.9605 5.61505 93.071 7.24266 94.4585 9.42013L94.7271 9.86252L94.8892 10.1613C95.39 11.1365 95.5966 12.0894 95.6841 12.8381C97.7935 13.8787 99.5124 14.9508 100.839 15.9035C104.01 18.1801 104.389 21.7125 104.484 23.0197C104.588 24.4544 104.375 26.2777 103.418 27.9856C102.528 29.5715 101.216 30.3759 100.429 30.758C99.6221 31.1498 98.8311 31.3569 98.2496 31.4807C97.0794 31.7297 95.6429 31.8651 94.0416 31.9602C90.759 32.1552 85.5473 32.2402 77.5259 32.299C64.8243 32.3922 42.9021 32.5228 31.0298 32.4973C23.1916 32.4804 17.8887 31.8802 14.0191 30.8908C9.92053 29.8429 7.62956 28.4038 5.89898 27.2102C2.3549 24.7657 0.995702 21.685 0.603083 19.3205C-0.0763766 15.2278 2.79793 12.7661 4.07867 11.882C4.57436 11.5399 5.11976 11.2265 5.69586 10.9328C6.78094 9.38522 8.57634 8.37237 10.6099 8.37228C10.6099 8.37226 11.2338 8.36301 12.649 8.31662C16.3226 7.17221 21.2308 5.81856 27.5093 4.12033C34.4662 2.23865 43.7743 1.62554 47.8228 1.14767C53.4561 0.482704 57.8868 0.483129 63.4566 0.507047Z" fill="white" stroke="black" stroke-linecap="round"/>
<path d="M85.7568 16.9802C85.6968 17.2052 85.5768 17.4152 85.5618 17.6402C85.5618 18.9302 85.5318 20.2202 85.5318 21.5252C85.5318 21.6902 85.6968 21.8402 85.7568 22.0202C85.8918 22.4402 85.6368 22.8752 85.2168 22.9952C84.7818 23.1152 84.1519 22.7402 84.1369 22.2602C84.1219 21.3452 84.1368 20.4302 84.1818 19.5152C84.2118 18.9302 84.3768 18.3602 84.4218 17.7752C84.4668 17.1752 84.4518 16.5602 84.4668 15.9452C84.4668 15.3902 84.4819 14.8652 84.6919 14.3252C84.8719 13.8302 84.8718 13.2602 84.6618 12.7202C84.5268 12.3302 84.7818 12.0152 85.1868 11.9552C85.5318 11.8952 85.8468 12.0902 85.8468 12.4052C85.8618 13.1402 85.8468 13.8602 85.8468 14.9402C85.8618 15.3602 85.8618 15.7952 85.8468 16.2152C85.8468 16.4702 85.8168 16.7252 85.7568 16.9802Z" fill="black"/>
<path d="M81.4909 20.1452C81.4909 20.4902 81.5209 20.8652 81.4609 21.2102C81.4009 21.5702 81.2359 21.9002 81.2059 22.2602C81.1609 22.6652 81.1309 23.0852 81.0859 23.4902C80.9959 24.4202 80.9059 25.3352 80.8009 26.2652C80.7859 26.4302 80.7109 26.5952 80.6209 26.7302C80.4859 26.9402 80.2609 27.0452 80.0359 26.9852C79.8859 26.9552 79.7359 26.8052 79.6459 26.6702C79.5559 26.5352 79.5109 26.3552 79.5109 26.1902C79.5409 25.6352 79.5109 25.0652 79.6759 24.5102C79.8409 23.9702 79.8109 23.3852 79.8709 22.8152C79.9609 21.7952 79.9159 21.6902 79.0609 21.9452C78.4459 22.1252 77.9359 21.9152 77.4859 21.6752C76.8259 21.3002 76.3609 20.7002 76.1359 19.9652C75.9709 19.3802 76.0309 18.8252 76.5559 18.4202C76.6759 18.3452 76.8709 18.2552 76.9909 18.2852C77.2759 18.3902 77.2309 18.6152 77.2309 18.8702C77.2459 19.2002 77.3509 19.4702 77.4109 19.7852C77.4859 20.2502 78.4009 20.8502 78.8509 20.7902C79.0009 20.7752 79.1809 20.6702 79.2709 20.5502C79.5709 20.1302 79.8559 19.7102 80.0959 19.2602C80.4559 18.6302 80.7559 18.3602 81.0409 18.5102C81.4609 18.7202 81.4909 19.1252 81.4909 19.5302C81.4909 19.6952 81.4909 19.8752 81.4909 20.1452Z" fill="black"/>
<path d="M73.4652 18.3451C74.2152 18.9151 74.5002 19.7251 74.4852 20.6551C74.4852 20.9701 74.4852 21.2851 74.4852 21.6001C74.4702 21.8251 74.2452 22.0651 73.9902 22.0801C73.6452 22.1101 73.3602 21.8851 73.3902 21.5401C73.4202 21.1801 73.3602 20.8201 73.3602 20.4601C73.3752 19.8001 73.1052 19.3801 72.5952 19.0351C71.8752 18.5401 71.1402 18.5701 70.6902 19.2901C70.3902 19.7701 70.0152 20.2201 69.9252 20.8201C69.8952 21.0751 69.8052 21.3301 69.7302 21.5701C69.6702 21.7801 69.2952 21.9601 69.0852 21.9301C68.7702 21.8701 68.6352 21.5551 68.6202 21.2701C68.5902 20.8651 68.5902 20.4451 68.5902 20.0401C68.5752 19.6951 68.6502 19.3351 68.7252 18.9751C68.7852 18.7351 68.8602 18.4951 68.9202 18.2701C69.0252 17.8501 69.2652 17.7601 69.7452 18.0001C69.9252 18.0901 70.0452 18.2851 70.2852 18.1201C70.5402 17.9551 70.8102 17.7901 71.0802 17.6251C71.4702 17.4001 71.8602 17.4001 72.2652 17.6551C72.6402 17.9101 73.0902 18.0751 73.4652 18.3451Z" fill="black"/>
<path d="M66.9818 21.9153C67.0568 22.2453 66.7718 22.4403 66.5168 22.6053C66.2168 22.7853 65.9318 22.6953 65.7218 22.4553C65.1368 21.7953 64.8668 20.9553 64.8668 20.0853C64.8668 19.7253 64.8368 19.2153 65.0918 18.9603C65.3768 18.6603 65.7818 18.7203 66.0518 18.9903C66.2018 19.1403 66.2918 19.3653 66.3518 19.5753C66.5768 20.3553 66.8018 21.1203 66.9818 21.9153ZM65.7818 16.2003C65.2268 16.2903 64.7768 15.9603 64.7618 15.4953C64.7468 15.3303 64.9418 15.0453 65.0918 15.0303C65.3468 14.9853 65.6468 15.0453 65.9018 15.1503C66.0668 15.2253 66.2768 15.5403 66.2318 15.6453C66.1418 15.8853 65.9018 16.0803 65.7818 16.2003Z" fill="black"/>
<path d="M62.7832 17.4602C62.8432 17.8352 62.6332 18.3602 62.3482 18.8402C61.8232 19.6802 61.2832 20.5202 60.7132 21.3302C60.5332 21.5552 60.2182 21.6902 59.9782 21.8702C59.7682 22.0202 59.5582 22.0802 59.3032 21.9452C58.8382 21.7202 58.4182 21.4802 58.1032 21.0752C57.2632 20.0252 56.8132 18.8252 56.7982 17.4902C56.7832 17.2652 56.9482 17.0402 57.0682 16.8302C57.1582 16.6652 57.4132 16.6952 57.5482 16.8002C57.8032 17.0252 57.8182 17.3252 57.8782 17.6402C58.0882 18.6902 58.5082 19.6352 59.2582 20.4152C59.4682 20.6252 59.7382 20.6102 59.8582 20.3552C60.4132 19.1852 61.3882 18.2402 61.7032 16.9352C61.7632 16.6502 62.0032 16.5602 62.2732 16.5902C62.5582 16.6052 62.6932 16.8002 62.7382 17.0702C62.7382 17.1302 62.7532 17.1902 62.7832 17.4602Z" fill="black"/>
<path d="M48.8203 22.3203C48.8353 22.3653 48.8353 22.4103 48.8203 22.4703C48.7903 22.6503 48.6553 22.8453 48.5053 22.9203C48.2053 23.0853 47.7553 22.9953 47.6353 22.7853C47.4403 22.4253 47.2453 22.0653 47.2303 21.6303C47.2303 21.4353 47.1553 21.2103 47.0353 21.0453C46.9753 20.9553 46.7503 20.8503 46.6753 20.8953C46.3903 21.0303 46.1653 21.2403 45.8953 21.4053C45.7153 21.5253 45.5353 21.6303 45.3253 21.6753C44.2153 21.9603 43.2403 21.0003 43.4803 19.8603C43.5103 19.7103 43.5703 19.5603 43.6303 19.4253C44.0203 18.6003 44.6053 17.9703 45.4303 17.5503C46.2403 17.1303 46.9453 17.3703 47.6053 17.8503C47.7403 17.9553 47.8303 18.2103 47.8153 18.4053C47.7703 19.2003 47.9203 19.9503 48.1753 20.7003C48.3103 21.0903 48.5053 21.4503 48.6703 21.8403C48.7303 21.9903 48.7903 22.1553 48.8203 22.3203ZM46.3153 19.5453C46.4353 19.4253 46.9003 19.0053 46.8703 18.7503C46.8553 18.6603 46.7953 18.5853 46.6303 18.5553C45.6553 18.3603 44.7553 19.0353 44.6503 20.0553C44.6053 20.4003 44.9953 20.5053 45.2653 20.4453C45.6703 20.3553 46.0453 19.8153 46.3153 19.5453Z" fill="black"/>
<path d="M35.2751 20.1452C35.2751 20.4902 35.3051 20.8652 35.2451 21.2102C35.1851 21.5702 35.0201 21.9002 34.9901 22.2602C34.9451 22.6652 34.9151 23.0852 34.8701 23.4902C34.7801 24.4202 34.6901 25.3352 34.5851 26.2652C34.5701 26.4302 34.4951 26.5952 34.4051 26.7302C34.2701 26.9402 34.0451 27.0452 33.8201 26.9852C33.6701 26.9552 33.5201 26.8052 33.4301 26.6702C33.3401 26.5352 33.2951 26.3552 33.2951 26.1902C33.3251 25.6352 33.2951 25.0652 33.4601 24.5102C33.6251 23.9702 33.5951 23.3852 33.6551 22.8152C33.7451 21.7952 33.7001 21.6902 32.8451 21.9452C32.2301 22.1252 31.7201 21.9152 31.2701 21.6752C30.6101 21.3002 30.1451 20.7002 29.9201 19.9652C29.7551 19.3802 29.8151 18.8252 30.3401 18.4202C30.4601 18.3452 30.6551 18.2552 30.7751 18.2852C31.0601 18.3902 31.0151 18.6152 31.0151 18.8702C31.0301 19.2002 31.1351 19.4702 31.1951 19.7852C31.2701 20.2502 32.1851 20.8502 32.6351 20.7902C32.7851 20.7752 32.9651 20.6702 33.0551 20.5502C33.3551 20.1302 33.6401 19.7102 33.8801 19.2602C34.2401 18.6302 34.5401 18.3602 34.8251 18.5102C35.2451 18.7202 35.2751 19.1252 35.2751 19.5302C35.2751 19.6952 35.2751 19.8752 35.2751 20.1452Z" fill="black"/>
<path d="M28.119 17.5951C28.194 18.0151 28.314 18.4051 28.239 18.8701C28.119 19.5151 27.984 20.1601 27.744 20.7601C27.564 21.1651 27.234 22.0051 26.754 22.1101C26.394 22.2001 26.094 22.4101 25.719 22.4551C25.434 22.4851 24.849 22.3951 24.489 22.2901C23.559 22.0351 23.004 21.3751 22.569 20.5951C22.449 20.3701 22.404 20.1151 22.389 19.8751C22.374 19.8001 22.389 19.7401 22.389 19.6801C22.419 19.5151 22.479 19.3801 22.524 19.2001C22.734 18.0001 23.274 18.0151 23.499 18.1951C23.784 18.4351 23.799 18.7201 23.694 19.0351C23.619 19.2751 23.529 19.5301 23.514 19.7851C23.499 19.9201 23.559 20.0851 23.649 20.2051C23.829 20.4151 24.009 20.6401 24.234 20.8051C24.489 20.9851 24.759 21.1951 25.074 21.2551C25.509 21.3151 25.959 21.2401 26.259 20.8951C26.589 20.5201 26.589 20.0551 26.694 19.5901C26.784 19.2301 27.114 18.7351 26.964 18.3751C26.859 18.0751 26.709 17.8501 26.529 17.5951C26.319 17.3101 26.664 16.9501 26.949 16.8601C27.219 16.7851 27.324 16.9951 27.504 17.0101C27.909 17.0401 28.074 17.3251 28.119 17.5951Z" fill="black"/>
<path d="M17.5134 22.9653C16.7334 23.0253 16.0584 22.7403 15.3834 22.4553C14.7984 22.2303 14.5884 21.7503 14.5734 21.1953C14.5584 21.0153 14.6484 20.7453 14.7834 20.6853C15.1134 20.5353 15.1734 20.2953 15.1734 19.9803C15.1584 18.4053 15.1734 16.8303 15.1284 15.2553C15.1134 14.6703 15.3234 14.2053 15.6384 13.7553C15.7734 13.5603 15.9984 13.3353 16.1934 13.3053C16.8234 13.2303 17.4084 12.8703 18.0534 12.9453C19.0134 13.0503 19.8534 13.3803 20.3334 14.3253C20.5884 14.8503 20.7984 15.3753 20.8134 16.0053C20.8134 16.5753 20.7234 17.0703 20.2584 17.4453C20.1834 17.5053 20.1084 17.5803 20.0484 17.6553C19.8234 17.9553 19.7634 18.1953 20.0184 18.4503C20.3934 18.8253 20.4834 19.3053 20.6484 19.7553C20.9034 20.4753 20.8584 21.2103 20.4084 21.8703C20.2884 22.0653 20.0934 22.2603 19.8834 22.3503C19.1334 22.6953 18.3684 23.0553 17.5134 22.9653ZM16.3284 17.7753C16.3284 18.4653 16.3284 19.1553 16.3284 19.8453C16.3134 20.0853 16.2984 20.3253 16.2984 20.5803C16.3134 21.1503 16.6434 21.5103 17.1984 21.5253C17.6334 21.5403 18.0834 21.5403 18.5184 21.4953C19.3284 21.4203 19.7334 20.6403 19.4034 19.8903C19.2234 19.4553 18.9684 19.1553 18.5034 19.0053C18.2784 18.9153 18.0534 18.8103 17.8434 18.6753C17.4834 18.4653 17.4684 17.7753 17.8284 17.5353C18.0234 17.4003 18.2484 17.2953 18.4584 17.1753C18.7134 17.0253 18.9834 16.8903 19.1934 16.7103C19.6584 16.3353 19.7334 15.7803 19.4184 15.2703C19.3434 15.1353 19.2234 15.0453 19.1634 14.9103C18.9684 14.4003 18.5784 14.3103 18.0984 14.3403C17.7534 14.3553 17.4084 14.3403 17.0634 14.3703C16.6284 14.4003 16.3284 14.7003 16.3284 15.1203C16.3134 16.0053 16.3284 16.8903 16.3284 17.7753Z" fill="black"/>
</svg>
