<svg width="104" height="32" viewBox="0 0 104 32" fill="none" xmlns="http://www.w3.org/2000/svg">
<path d="M62.956 0.00704741C71.7319 0.0447673 82.5712 3.10615 87.413 4.33908C90.4599 5.11505 92.5704 6.74266 93.9579 8.92013L94.2265 9.36252L94.3886 9.66134C94.8894 10.6365 95.096 11.5894 95.1835 12.3381C97.2929 13.3787 99.0118 14.4508 100.339 15.4035C103.51 17.6801 103.888 21.2125 103.983 22.5197C104.087 23.9544 103.874 25.7777 102.917 27.4856C102.028 29.0715 100.716 29.8759 99.9286 30.258C99.1215 30.6498 98.3305 30.8569 97.749 30.9807C96.5788 31.2297 95.1422 31.3651 93.5409 31.4602C90.2584 31.6552 85.0467 31.7402 77.0253 31.799C64.3237 31.8922 42.4015 32.0228 30.5292 31.9973C22.6909 31.9804 17.3881 31.3802 13.5185 30.3908C9.41992 29.3429 7.12895 27.9038 5.39837 26.7102C1.85428 24.2657 0.495091 21.185 0.102473 18.8205C-0.576987 14.7278 2.29732 12.2661 3.57806 11.382C4.07375 11.0399 4.61915 10.7265 5.19525 10.4328C6.28032 8.88522 8.07573 7.87237 10.1093 7.87228C10.1093 7.87226 10.7332 7.86301 12.1484 7.81662C15.822 6.67221 20.7302 5.31856 27.0087 3.62033C33.9655 1.73865 43.2737 1.12554 47.3222 0.647672C52.9555 -0.0172961 57.3862 -0.0168712 62.956 0.00704741Z" fill="black"/>
<path d="M85.2562 16.4802C85.1962 16.7052 85.0762 16.9152 85.0612 17.1402C85.0612 18.4302 85.0312 19.7202 85.0312 21.0252C85.0312 21.1902 85.1962 21.3402 85.2562 21.5202C85.3912 21.9402 85.1362 22.3752 84.7162 22.4952C84.2812 22.6152 83.6512 22.2402 83.6362 21.7602C83.6212 20.8452 83.6362 19.9302 83.6812 19.0152C83.7112 18.4302 83.8762 17.8602 83.9212 17.2752C83.9662 16.6752 83.9512 16.0602 83.9662 15.4452C83.9662 14.8902 83.9812 14.3652 84.1912 13.8252C84.3712 13.3302 84.3712 12.7602 84.1612 12.2202C84.0262 11.8302 84.2812 11.5152 84.6862 11.4552C85.0312 11.3952 85.3462 11.5902 85.3462 11.9052C85.3612 12.6402 85.3462 13.3602 85.3462 14.4402C85.3612 14.8602 85.3612 15.2952 85.3462 15.7152C85.3462 15.9702 85.3162 16.2252 85.2562 16.4802Z" fill="white"/>
<path d="M80.9903 19.6452C80.9903 19.9902 81.0203 20.3652 80.9603 20.7102C80.9003 21.0702 80.7353 21.4002 80.7053 21.7602C80.6603 22.1652 80.6303 22.5852 80.5853 22.9902C80.4953 23.9202 80.4053 24.8352 80.3003 25.7652C80.2853 25.9302 80.2103 26.0952 80.1203 26.2302C79.9853 26.4402 79.7603 26.5452 79.5353 26.4852C79.3853 26.4552 79.2353 26.3052 79.1453 26.1702C79.0553 26.0352 79.0103 25.8552 79.0103 25.6902C79.0403 25.1352 79.0103 24.5652 79.1753 24.0102C79.3403 23.4702 79.3103 22.8852 79.3703 22.3152C79.4603 21.2952 79.4153 21.1902 78.5603 21.4452C77.9453 21.6252 77.4353 21.4152 76.9853 21.1752C76.3253 20.8002 75.8603 20.2002 75.6353 19.4652C75.4703 18.8802 75.5303 18.3252 76.0553 17.9202C76.1753 17.8452 76.3703 17.7552 76.4903 17.7852C76.7753 17.8902 76.7303 18.1152 76.7303 18.3702C76.7453 18.7002 76.8503 18.9702 76.9103 19.2852C76.9853 19.7502 77.9003 20.3502 78.3503 20.2902C78.5003 20.2752 78.6803 20.1702 78.7703 20.0502C79.0703 19.6302 79.3553 19.2102 79.5953 18.7602C79.9553 18.1302 80.2553 17.8602 80.5403 18.0102C80.9603 18.2202 80.9903 18.6252 80.9903 19.0302C80.9903 19.1952 80.9903 19.3752 80.9903 19.6452Z" fill="white"/>
<path d="M72.9646 17.8451C73.7146 18.4151 73.9996 19.2251 73.9846 20.1551C73.9846 20.4701 73.9846 20.7851 73.9846 21.1001C73.9696 21.3251 73.7446 21.5651 73.4896 21.5801C73.1446 21.6101 72.8596 21.3851 72.8896 21.0401C72.9196 20.6801 72.8596 20.3201 72.8596 19.9601C72.8746 19.3001 72.6046 18.8801 72.0946 18.5351C71.3746 18.0401 70.6396 18.0701 70.1896 18.7901C69.8896 19.2701 69.5146 19.7201 69.4246 20.3201C69.3946 20.5751 69.3046 20.8301 69.2296 21.0701C69.1696 21.2801 68.7946 21.4601 68.5846 21.4301C68.2696 21.3701 68.1346 21.0551 68.1196 20.7701C68.0896 20.3651 68.0896 19.9451 68.0896 19.5401C68.0746 19.1951 68.1496 18.8351 68.2246 18.4751C68.2846 18.2351 68.3596 17.9951 68.4196 17.7701C68.5246 17.3501 68.7646 17.2601 69.2446 17.5001C69.4246 17.5901 69.5446 17.7851 69.7846 17.6201C70.0396 17.4551 70.3096 17.2901 70.5796 17.1251C70.9696 16.9001 71.3596 16.9001 71.7646 17.1551C72.1396 17.4101 72.5896 17.5751 72.9646 17.8451Z" fill="white"/>
<path d="M66.4812 21.4153C66.5562 21.7453 66.2712 21.9403 66.0162 22.1053C65.7162 22.2853 65.4312 22.1953 65.2212 21.9553C64.6362 21.2953 64.3662 20.4553 64.3662 19.5853C64.3662 19.2253 64.3362 18.7153 64.5912 18.4603C64.8762 18.1603 65.2812 18.2203 65.5512 18.4903C65.7012 18.6403 65.7912 18.8653 65.8512 19.0753C66.0762 19.8553 66.3012 20.6203 66.4812 21.4153ZM65.2812 15.7003C64.7262 15.7903 64.2762 15.4603 64.2612 14.9953C64.2462 14.8303 64.4412 14.5453 64.5912 14.5303C64.8462 14.4853 65.1462 14.5453 65.4012 14.6503C65.5662 14.7253 65.7762 15.0403 65.7312 15.1453C65.6412 15.3853 65.4012 15.5803 65.2812 15.7003Z" fill="white"/>
<path d="M62.2826 16.9602C62.3426 17.3352 62.1326 17.8602 61.8476 18.3402C61.3226 19.1802 60.7826 20.0202 60.2126 20.8302C60.0326 21.0552 59.7176 21.1902 59.4776 21.3702C59.2676 21.5202 59.0576 21.5802 58.8026 21.4452C58.3376 21.2202 57.9176 20.9802 57.6026 20.5752C56.7626 19.5252 56.3126 18.3252 56.2976 16.9902C56.2826 16.7652 56.4476 16.5402 56.5676 16.3302C56.6576 16.1652 56.9126 16.1952 57.0476 16.3002C57.3026 16.5252 57.3176 16.8252 57.3776 17.1402C57.5876 18.1902 58.0076 19.1352 58.7576 19.9152C58.9676 20.1252 59.2376 20.1102 59.3576 19.8552C59.9126 18.6852 60.8876 17.7402 61.2026 16.4352C61.2626 16.1502 61.5026 16.0602 61.7726 16.0902C62.0576 16.1052 62.1926 16.3002 62.2376 16.5702C62.2376 16.6302 62.2526 16.6902 62.2826 16.9602Z" fill="white"/>
<path d="M48.3197 21.8203C48.3347 21.8653 48.3347 21.9103 48.3197 21.9703C48.2897 22.1503 48.1547 22.3453 48.0047 22.4203C47.7047 22.5853 47.2547 22.4953 47.1347 22.2853C46.9397 21.9253 46.7447 21.5653 46.7297 21.1303C46.7297 20.9353 46.6547 20.7103 46.5347 20.5453C46.4747 20.4553 46.2497 20.3503 46.1747 20.3953C45.8897 20.5303 45.6647 20.7403 45.3947 20.9053C45.2147 21.0253 45.0347 21.1303 44.8247 21.1753C43.7147 21.4603 42.7397 20.5003 42.9797 19.3603C43.0097 19.2103 43.0697 19.0603 43.1297 18.9253C43.5197 18.1003 44.1047 17.4703 44.9297 17.0503C45.7397 16.6303 46.4447 16.8703 47.1047 17.3503C47.2397 17.4553 47.3297 17.7103 47.3147 17.9053C47.2697 18.7003 47.4197 19.4503 47.6747 20.2003C47.8097 20.5903 48.0047 20.9503 48.1697 21.3403C48.2297 21.4903 48.2897 21.6553 48.3197 21.8203ZM45.8147 19.0453C45.9347 18.9253 46.3997 18.5053 46.3697 18.2503C46.3547 18.1603 46.2947 18.0853 46.1297 18.0553C45.1547 17.8603 44.2547 18.5353 44.1497 19.5553C44.1047 19.9003 44.4947 20.0053 44.7647 19.9453C45.1697 19.8553 45.5447 19.3153 45.8147 19.0453Z" fill="white"/>
<path d="M34.7745 19.6452C34.7745 19.9902 34.8045 20.3652 34.7445 20.7102C34.6845 21.0702 34.5195 21.4002 34.4895 21.7602C34.4445 22.1652 34.4145 22.5852 34.3695 22.9902C34.2795 23.9202 34.1895 24.8352 34.0845 25.7652C34.0695 25.9302 33.9945 26.0952 33.9045 26.2302C33.7695 26.4402 33.5445 26.5452 33.3195 26.4852C33.1695 26.4552 33.0195 26.3052 32.9295 26.1702C32.8395 26.0352 32.7945 25.8552 32.7945 25.6902C32.8245 25.1352 32.7945 24.5652 32.9595 24.0102C33.1245 23.4702 33.0945 22.8852 33.1545 22.3152C33.2445 21.2952 33.1995 21.1902 32.3445 21.4452C31.7295 21.6252 31.2195 21.4152 30.7695 21.1752C30.1095 20.8002 29.6445 20.2002 29.4195 19.4652C29.2545 18.8802 29.3145 18.3252 29.8395 17.9202C29.9595 17.8452 30.1545 17.7552 30.2745 17.7852C30.5595 17.8902 30.5145 18.1152 30.5145 18.3702C30.5295 18.7002 30.6345 18.9702 30.6945 19.2852C30.7695 19.7502 31.6845 20.3502 32.1345 20.2902C32.2845 20.2752 32.4645 20.1702 32.5545 20.0502C32.8545 19.6302 33.1395 19.2102 33.3795 18.7602C33.7395 18.1302 34.0395 17.8602 34.3245 18.0102C34.7445 18.2202 34.7745 18.6252 34.7745 19.0302C34.7745 19.1952 34.7745 19.3752 34.7745 19.6452Z" fill="white"/>
<path d="M27.6184 17.0951C27.6934 17.5151 27.8134 17.9051 27.7384 18.3701C27.6184 19.0151 27.4834 19.6601 27.2434 20.2601C27.0634 20.6651 26.7334 21.5051 26.2534 21.6101C25.8934 21.7001 25.5934 21.9101 25.2184 21.9551C24.9334 21.9851 24.3484 21.8951 23.9884 21.7901C23.0584 21.5351 22.5034 20.8751 22.0684 20.0951C21.9484 19.8701 21.9034 19.6151 21.8884 19.3751C21.8734 19.3001 21.8884 19.2401 21.8884 19.1801C21.9184 19.0151 21.9784 18.8801 22.0234 18.7001C22.2334 17.5001 22.7734 17.5151 22.9984 17.6951C23.2834 17.9351 23.2984 18.2201 23.1934 18.5351C23.1184 18.7751 23.0284 19.0301 23.0134 19.2851C22.9984 19.4201 23.0584 19.5851 23.1484 19.7051C23.3284 19.9151 23.5084 20.1401 23.7334 20.3051C23.9884 20.4851 24.2584 20.6951 24.5734 20.7551C25.0084 20.8151 25.4584 20.7401 25.7584 20.3951C26.0884 20.0201 26.0884 19.5551 26.1934 19.0901C26.2834 18.7301 26.6134 18.2351 26.4634 17.8751C26.3584 17.5751 26.2084 17.3501 26.0284 17.0951C25.8184 16.8101 26.1634 16.4501 26.4484 16.3601C26.7184 16.2851 26.8234 16.4951 27.0034 16.5101C27.4084 16.5401 27.5734 16.8251 27.6184 17.0951Z" fill="white"/>
<path d="M17.0128 22.4653C16.2328 22.5253 15.5578 22.2403 14.8828 21.9553C14.2978 21.7303 14.0878 21.2503 14.0728 20.6953C14.0578 20.5153 14.1478 20.2453 14.2828 20.1853C14.6128 20.0353 14.6728 19.7953 14.6728 19.4803C14.6578 17.9053 14.6728 16.3303 14.6278 14.7553C14.6128 14.1703 14.8228 13.7053 15.1378 13.2553C15.2728 13.0603 15.4978 12.8353 15.6928 12.8053C16.3228 12.7303 16.9078 12.3703 17.5528 12.4453C18.5128 12.5503 19.3528 12.8803 19.8328 13.8253C20.0878 14.3503 20.2978 14.8753 20.3128 15.5053C20.3128 16.0753 20.2228 16.5703 19.7578 16.9453C19.6828 17.0053 19.6078 17.0803 19.5478 17.1553C19.3228 17.4553 19.2628 17.6953 19.5178 17.9503C19.8928 18.3253 19.9828 18.8053 20.1478 19.2553C20.4028 19.9753 20.3578 20.7103 19.9078 21.3703C19.7878 21.5653 19.5928 21.7603 19.3828 21.8503C18.6328 22.1953 17.8678 22.5553 17.0128 22.4653ZM15.8278 17.2753C15.8278 17.9653 15.8278 18.6553 15.8278 19.3453C15.8128 19.5853 15.7978 19.8253 15.7978 20.0803C15.8128 20.6503 16.1428 21.0103 16.6978 21.0253C17.1328 21.0403 17.5828 21.0403 18.0178 20.9953C18.8278 20.9203 19.2328 20.1403 18.9028 19.3903C18.7228 18.9553 18.4678 18.6553 18.0028 18.5053C17.7778 18.4153 17.5528 18.3103 17.3428 18.1753C16.9828 17.9653 16.9678 17.2753 17.3278 17.0353C17.5228 16.9003 17.7478 16.7953 17.9578 16.6753C18.2128 16.5253 18.4828 16.3903 18.6928 16.2103C19.1578 15.8353 19.2328 15.2803 18.9178 14.7703C18.8428 14.6353 18.7228 14.5453 18.6628 14.4103C18.4678 13.9003 18.0778 13.8103 17.5978 13.8403C17.2528 13.8553 16.9078 13.8403 16.5628 13.8703C16.1278 13.9003 15.8278 14.2003 15.8278 14.6203C15.8128 15.5053 15.8278 16.3903 15.8278 17.2753Z" fill="white"/>
</svg>
