<svg width="96" height="40" viewBox="0 0 96 40" fill="none" xmlns="http://www.w3.org/2000/svg">
<path d="M44.3556 4.85121C48.8481 4.41245 54.4928 4.07948 62.8503 5.19495C72.0333 6.4206 77.6075 7.9085 81.4317 9.44267C83.3726 10.2213 84.7816 10.979 85.8961 11.6311C87.1975 12.3924 87.4043 12.5594 87.8715 12.7829C88.8855 13.268 90.8528 14.189 92.4806 15.9734L92.8013 16.3415L93.0782 16.6952C94.3925 18.4758 94.65 20.393 94.6495 21.6782C94.649 22.9945 94.3769 24.1834 94.2254 24.8187C93.2796 28.7846 90.0908 30.6634 88.1736 31.5096C86.1734 32.3926 83.8683 32.8934 82.2846 33.2377C78.827 33.9892 75.0037 34.1071 71.9001 34.1409C68.4412 34.1785 66.1183 34.1273 64.4873 34.3239C60.1286 34.8496 53.2212 34.9003 45.8007 34.9979C38.5799 35.093 30.4816 34.1539 24.0403 33.6471C20.0503 33.3332 15.9515 32.4421 12.5806 31.4331C10.8835 30.925 9.29641 30.3651 7.93744 29.7941C6.68896 29.2695 5.26179 28.5835 4.13531 27.7361C2.05084 26.168 1.24899 24.0152 1.01798 22.3412C0.802246 20.7778 1.03108 19.3837 1.23258 18.5029L1.35046 18.0473C2.00218 15.8249 3.50397 14.4035 4.64561 13.5794C5.85741 12.7047 7.25224 12.0735 8.50112 11.5845C10.836 10.6702 14.0526 9.73863 17.7029 8.67124C18.621 6.23897 21.0596 4.59905 23.782 4.81103C27.3976 5.09262 36.8438 5.58476 44.3556 4.85121ZM78.8681 21.455C78.7937 21.5434 78.7179 21.6286 78.6416 21.7113C78.8254 21.6826 79.0057 21.6522 79.1825 21.6198C79.0812 21.5646 78.9757 21.5112 78.8681 21.455Z" fill="white" stroke="black" stroke-linecap="round"/>
<path d="M84.957 22.7237C85.002 22.8137 85.032 22.9187 85.032 23.0237C85.032 23.1287 85.032 23.2487 85.017 23.3537C84.957 23.6987 84.792 24.0437 84.537 24.2987C84.207 24.6287 83.727 24.8087 83.262 24.7787C82.662 24.7337 82.122 24.3887 81.627 24.0437C81.207 23.7587 80.757 23.4437 80.517 22.9937C80.397 22.7687 80.337 22.5137 80.277 22.2587C80.127 21.6437 80.022 20.9837 80.187 20.3687C80.292 19.9037 80.547 19.4987 80.877 19.1537C81.117 18.8987 81.402 18.6887 81.747 18.5837C82.497 18.3437 83.352 18.8387 83.277 19.6937C83.232 20.0987 82.992 20.4587 82.692 20.7287C82.392 20.9987 82.017 21.1937 81.657 21.3587C81.507 21.4337 81.342 21.5387 81.327 21.7037C81.327 21.7787 81.357 21.8387 81.387 21.9137C81.687 22.5587 82.227 23.1137 82.872 23.4287C83.142 23.5637 83.457 23.6537 83.727 23.5187C83.787 23.5037 83.832 23.4587 83.862 23.4137C83.877 23.3687 83.877 23.3087 83.877 23.2637C83.862 23.0837 83.787 22.9187 83.772 22.7387C83.757 22.5737 83.787 22.3637 83.937 22.2737C84.147 22.1087 84.447 22.2737 84.672 22.4387C84.777 22.5137 84.897 22.6037 84.957 22.7237Z" fill="black"/>
<path d="M77.9014 19.8888H77.9164C78.4414 20.2938 78.6364 20.9838 78.4114 21.6888C78.3514 21.8838 78.2014 22.1238 78.0364 22.1988C76.9714 22.6038 76.0264 23.3838 74.8264 23.3238C74.5114 23.3088 74.4064 23.5338 74.4964 23.9088C74.7964 25.0788 74.8264 26.2938 74.9764 27.4938C75.0514 28.0488 74.7514 28.3638 74.2714 28.4088C74.0464 28.4238 73.8514 28.2738 73.8214 28.0488C73.8064 27.9438 73.7914 27.8238 73.7914 27.7188C73.7464 26.9388 73.7764 26.1738 73.5514 25.3938C73.3414 24.6588 73.5664 23.8188 73.2214 23.0838C73.1614 22.9488 73.1764 22.7538 73.1764 22.5738C73.1614 21.6738 73.0564 20.8038 72.5764 20.0088C72.3664 19.6488 72.6964 19.0338 73.1014 18.9738C73.5664 18.8988 74.0464 18.8988 74.5114 18.8538C75.3514 18.8838 76.1764 18.9288 76.9564 19.3188C77.2864 19.4688 77.6164 19.6638 77.9014 19.8888ZM76.9564 21.2088C77.5414 20.9388 76.8664 20.6838 76.6264 20.5638C76.1314 20.3388 75.6514 20.1288 75.1564 19.9488C74.9164 19.8588 74.6314 19.9038 74.3914 19.9488C74.2714 19.9638 74.1364 20.1138 74.0764 20.2338C74.0164 20.3838 74.0464 20.5638 74.0314 20.8038C74.0764 20.9988 74.0614 21.3738 74.2264 21.4938C74.5414 21.7638 74.9164 22.0938 75.3364 21.9438C75.8914 21.7338 76.4164 21.4488 76.9564 21.2088Z" fill="black"/>
<path d="M70.8618 23.3988C70.9818 23.6388 70.9068 23.9238 70.7118 24.1488C70.4568 24.4638 69.9768 24.4638 69.7668 24.1188C69.4968 23.6688 69.2868 23.1888 69.3168 22.6338C69.3318 22.3038 69.2718 21.9888 69.0318 21.7488C68.7318 21.4638 68.2818 22.1088 68.0868 22.3038C67.6968 22.6638 67.3368 23.0538 66.8268 23.2638C66.6768 23.3088 66.5418 23.3988 66.3918 23.4438C65.6418 23.6088 65.0268 23.3538 64.6068 22.7238C64.1868 22.0938 64.1118 21.4788 64.5468 20.8188C64.9068 20.2638 65.3868 19.8438 65.9118 19.4988C66.1518 19.3338 66.5118 19.3638 66.8268 19.3038C67.4418 19.2288 67.8318 19.6038 68.1918 19.9938C68.4318 20.2488 68.6268 20.1138 68.8518 19.9488C69.1668 19.7238 69.7368 19.9038 69.8868 20.2488C69.9918 20.5488 70.1418 20.8488 70.1718 21.1488C70.2768 21.9438 70.4868 22.6938 70.8618 23.3988ZM67.5168 21.4038C67.6218 21.2538 67.6668 21.1038 67.6368 20.9688C67.5768 20.6238 67.1268 20.3688 66.7068 20.3538C66.1668 20.3238 65.4768 21.1338 65.4318 21.7188C65.4318 21.8988 65.5818 22.0938 65.7018 22.2588C65.8518 22.4688 66.0318 22.3788 66.2418 22.3038C66.7068 22.1388 67.2318 21.8088 67.5168 21.4038Z" fill="black"/>
<path d="M63.1484 19.1838C63.2084 19.3938 62.9684 19.5888 62.7584 19.6338C62.5334 19.6788 62.2934 19.6488 62.0834 19.7238C61.6934 19.8438 61.4834 20.2788 61.3934 20.6838C61.2884 21.1188 61.2584 21.5688 61.3034 22.0038C61.3484 22.4838 61.4984 22.9488 61.5284 23.4138C61.5434 23.8038 61.4234 24.2688 61.0634 24.3888C60.7484 24.4788 60.4184 24.2688 60.2684 23.9838C60.1334 23.6988 60.1184 23.3688 60.1184 23.0388C60.1034 22.3488 60.1034 21.6438 60.0884 20.9388C60.0884 20.7738 60.0734 20.6088 59.9534 20.5038C59.7734 20.3538 59.5034 20.5038 59.2934 20.6088C59.0234 20.7438 58.6184 20.7738 58.4384 20.5188C58.2884 20.2938 58.3934 19.9638 58.6034 19.7838C58.8134 19.6038 59.0984 19.5288 59.3534 19.4388C59.6234 19.3488 59.8934 19.2138 60.0284 18.9738C60.1634 18.7038 60.1034 18.3588 60.0284 18.0738C59.9384 17.7738 59.8484 17.4588 59.9234 17.1588C59.9834 16.9788 60.1634 16.7838 60.3734 16.7388C60.4484 16.7238 60.5384 16.7388 60.6134 16.7838C60.8834 16.9488 61.0334 17.5938 61.0934 17.8938C61.1384 18.0888 61.1534 18.2838 61.2434 18.4638C61.3334 18.6438 61.5284 18.7938 61.7234 18.7638C61.8284 18.7338 61.9184 18.6738 62.0234 18.6438C62.3234 18.5388 62.6234 18.7188 62.8934 18.8988C62.9984 18.9738 63.1034 19.0488 63.1484 19.1838Z" fill="black"/>
<path d="M48.9835 23.3988C49.1035 23.6388 49.0285 23.9238 48.8335 24.1488C48.5785 24.4638 48.0985 24.4638 47.8885 24.1188C47.6185 23.6688 47.4085 23.1888 47.4385 22.6338C47.4535 22.3038 47.3935 21.9888 47.1535 21.7488C46.8535 21.4638 46.4035 22.1088 46.2085 22.3038C45.8185 22.6638 45.4585 23.0538 44.9485 23.2638C44.7985 23.3088 44.6635 23.3988 44.5135 23.4438C43.7635 23.6088 43.1485 23.3538 42.7285 22.7238C42.3085 22.0938 42.2335 21.4788 42.6685 20.8188C43.0285 20.2638 43.5085 19.8438 44.0335 19.4988C44.2735 19.3338 44.6335 19.3638 44.9485 19.3038C45.5635 19.2288 45.9535 19.6038 46.3135 19.9938C46.5535 20.2488 46.7485 20.1138 46.9735 19.9488C47.2885 19.7238 47.8585 19.9038 48.0085 20.2488C48.1135 20.5488 48.2635 20.8488 48.2935 21.1488C48.3985 21.9438 48.6085 22.6938 48.9835 23.3988ZM45.6385 21.4038C45.7435 21.2538 45.7885 21.1038 45.7585 20.9688C45.6985 20.6238 45.2485 20.3688 44.8285 20.3538C44.2885 20.3238 43.5985 21.1338 43.5535 21.7188C43.5535 21.8988 43.7035 22.0938 43.8235 22.2588C43.9735 22.4688 44.1535 22.3788 44.3635 22.3038C44.8285 22.1388 45.3535 21.8088 45.6385 21.4038Z" fill="black"/>
<path d="M32.5753 18.4937C32.8303 18.5387 33.0403 18.7787 32.9503 18.9587C32.6053 19.5737 32.5003 20.2787 32.3653 20.9537C32.2153 21.7487 32.0353 22.4837 31.9603 23.2787C31.8853 23.9387 31.7503 24.5987 31.6153 25.2437C31.3603 26.5787 31.0153 27.8837 30.8353 29.2187C30.8203 29.3237 30.7303 29.4437 30.6553 29.5037C30.3703 29.7437 30.1903 29.8337 29.8753 29.5937C29.6653 29.4287 29.5753 29.1737 29.5303 28.8887C29.4703 28.2287 29.7403 27.3587 29.9353 26.9237C30.1603 26.4137 30.1603 25.9037 30.2053 25.3937C30.2653 24.7637 30.6253 24.0887 30.6403 23.3987C30.6553 22.8587 29.8903 23.0087 29.4403 23.0537C28.5703 23.1437 27.9703 22.7537 27.6103 22.0187C27.2803 21.3287 27.5353 20.5487 27.3103 19.8437C27.2353 19.6337 27.2653 19.4387 27.4153 19.2737C27.5803 19.0937 27.8353 19.0937 28.0603 19.1987C28.2103 19.2737 28.3603 19.4087 28.4353 19.5437C28.6303 19.9037 28.4803 21.1487 28.6603 21.5087C29.1553 22.5137 30.5953 21.8087 30.8203 21.4337C31.2253 20.7287 30.9703 19.6787 31.3903 18.9887C31.6603 18.5387 32.0653 18.3887 32.5753 18.4937Z" fill="black"/>
<path d="M25.6619 19.7687C25.6769 20.0837 25.6769 20.3687 25.6619 20.6687C25.6319 21.5237 25.5119 22.3337 25.3019 23.2337C25.1369 23.8787 24.6869 24.2987 24.0869 24.3437C23.7569 24.3887 23.4719 24.4037 23.2019 24.4037C22.9919 24.4037 22.7969 24.3887 22.6019 24.3587C21.7169 24.2687 20.7719 23.5787 20.6669 22.2587C20.6219 21.6287 20.5769 20.9687 20.8319 20.3237C20.8919 20.1587 20.9219 19.9787 20.9519 19.7987C20.9669 19.6337 20.9969 19.4687 21.0419 19.3187C21.1169 19.1087 21.2819 18.9287 21.4469 18.7637C21.5219 18.6887 21.6869 18.6737 21.7919 18.7187C21.8819 18.7637 22.0019 18.8987 22.0019 19.0037C22.0019 19.1687 22.0169 19.3487 22.0169 19.5287C22.0469 20.0987 22.0769 20.6987 21.8219 21.2687C21.6419 21.6437 21.7169 22.0037 22.0169 22.3637C22.2719 22.6637 22.5419 22.9787 22.8569 23.1437C23.1119 23.2787 23.3969 23.2937 23.6219 23.2037C23.8169 23.1287 23.9669 22.9637 24.0419 22.7387C24.0719 22.6637 24.1019 22.5887 24.1319 22.5137C24.2219 22.2587 24.3269 22.0187 24.2969 21.7487C24.2519 21.3737 24.3719 21.0287 24.4769 20.6987C24.5519 20.4887 24.6269 20.2637 24.6569 20.0387C24.6869 19.7987 24.8819 19.7087 25.0469 19.6337C25.0769 19.6187 25.1069 19.6037 25.1519 19.5887C25.3469 19.4837 25.4819 19.4687 25.5569 19.5137C25.6319 19.5587 25.6619 19.6337 25.6619 19.7687Z" fill="black"/>
<path d="M11.9427 20.1137C12.0777 18.1487 12.6777 16.4837 14.0877 15.1487C14.4627 14.7887 14.8827 14.6837 15.3627 14.6387C16.2177 14.5637 17.0127 14.8187 17.7777 15.1337C18.6477 15.4787 19.0977 16.3187 19.0077 17.2637C18.9927 17.4287 18.9777 17.6387 18.8877 17.7587C18.4077 18.3737 17.9277 18.9737 17.1777 19.2587C16.7877 19.4087 16.4127 19.5737 16.0527 19.7537C16.0077 19.7687 16.0077 19.9787 16.0677 20.0237C16.4877 20.3387 16.9527 20.5937 17.3277 20.9387C18.4527 22.0037 18.0027 24.0887 16.5327 24.5837C15.9777 24.7787 15.4227 24.9737 14.8077 24.9287C14.3727 24.8987 14.0577 24.7637 13.7127 24.4787C12.2877 23.3087 12.1677 21.6587 11.9427 20.1137ZM17.8527 16.9937C17.8377 16.8737 17.8077 16.7537 17.7477 16.6337C17.4177 16.0487 16.4877 15.8387 15.8727 15.7487C15.6627 15.7037 15.3627 15.7487 15.2127 15.8837C14.5377 16.4387 13.9227 16.9937 13.6077 17.9237C13.2027 19.1687 13.0977 20.5187 13.4727 21.7937C13.7127 22.6487 13.7127 23.2937 14.7627 23.3687C15.2727 23.3987 15.7977 23.2937 16.2927 23.1587C16.3827 23.1437 16.4877 23.0087 16.5177 22.9037C16.7427 22.2887 16.4877 21.6437 15.9327 21.4337C15.5427 21.2837 15.1377 21.2087 14.7777 21.0287C14.5227 20.9237 14.2677 20.7287 14.0727 20.5487C13.1277 19.6787 16.0827 18.2687 16.6827 18.1487C17.1927 18.0437 17.8527 17.5487 17.8527 16.9937Z" fill="black"/>
</svg>
