<svg width="182" height="33" viewBox="0 0 182 33" fill="none" xmlns="http://www.w3.org/2000/svg">
<path d="M0.599609 4.32849C0.615503 4.32849 1.73234 4.33877 3.70117 4.41052L5.94434 4.50427L5.95996 4.50525L5.97559 4.5072C6.69141 4.57873 7.23934 4.6808 7.72852 4.78064C8.22184 4.88134 8.62795 4.97313 9.10547 5.03748C10.0662 5.16693 11.2881 5.17598 12.6035 5.18494C12.6763 5.18546 12.7452 5.20076 12.8096 5.22498C12.8171 5.22781 12.8255 5.22865 12.833 5.23181C12.876 5.25003 12.916 5.27389 12.9531 5.30115C13.0123 5.3439 13.0762 5.40216 13.1191 5.44177C13.1787 5.49678 13.2525 5.56768 13.3359 5.6488C13.5033 5.81157 13.7209 6.02732 13.9629 6.2699C14.4442 6.75243 15.0441 7.36028 15.5586 7.87732C16.3628 8.68559 16.7891 9.05538 17.1592 9.48279C17.2574 9.59448 17.3695 9.71952 17.5264 9.89099C17.6806 10.0596 17.8571 10.2503 18.1191 10.4623C18.1379 10.4774 18.1535 10.4953 18.1699 10.5121C18.38 10.2949 18.7226 10.2649 18.9668 10.4545C19.2285 10.6577 19.2765 11.0345 19.0732 11.2963C19.0568 11.3175 19.0384 11.3377 19.0205 11.3588C19.1306 11.4675 19.1992 11.6184 19.1992 11.7855V27.2142C19.1992 27.2388 19.1943 27.2627 19.1914 27.2865C19.1947 27.3118 19.2002 27.3375 19.2002 27.3636C19.2 27.6946 18.9315 27.9638 18.6006 27.9642C18.5675 27.9642 17.4142 27.9641 15.5293 28.0316C15.0263 28.0497 14.4473 28.1488 13.5967 28.2728C12.763 28.3944 11.7224 28.53 10.3662 28.6029C8.76237 28.6891 6.68512 28.6893 5.3916 28.6302L5.36914 28.6293L5.34766 28.6263C3.62992 28.4218 2.9079 28.1694 2.38184 28.0013C2.26757 27.975 2.14248 27.9544 1.96484 27.9242C1.78793 27.8942 1.57643 27.8568 1.32422 27.7992C1.31289 27.7966 1.30204 27.7907 1.29102 27.7875C1.27406 27.7826 1.25755 27.7772 1.24121 27.7709C1.22167 27.7633 1.20293 27.7549 1.18457 27.7455C1.16707 27.7365 1.15027 27.7268 1.13379 27.7162C1.11678 27.7052 1.10064 27.6936 1.08496 27.681C1.07225 27.6709 1.0597 27.6609 1.04785 27.6498C1.03149 27.6344 1.01643 27.618 1.00195 27.601C0.990162 27.5871 0.979279 27.5729 0.96875 27.558C0.958427 27.5433 0.948428 27.5286 0.939453 27.5131C0.927903 27.4932 0.917462 27.4728 0.908203 27.4515C0.901921 27.4371 0.895762 27.4226 0.890625 27.4076C0.883231 27.386 0.877989 27.3639 0.873047 27.3412C0.869513 27.325 0.866449 27.3089 0.864258 27.2924C0.862832 27.2816 0.859254 27.2711 0.858398 27.2601C0.775565 26.2009 0.742972 25.2499 0.708984 24.7552C0.690922 24.4924 0.671233 24.3137 0.649414 24.0892C0.627515 23.8639 0.606153 23.6094 0.586914 23.2181L0.585938 23.2074C0.554199 22.2052 0.500944 21.3047 0.444336 20.3783C0.387804 19.4532 0.328343 18.5012 0.283203 17.4066C0.207103 15.5612 0.115834 12.3099 0.0761719 9.99548C0.0137453 6.35277 0 4.98552 0 4.9281C0 4.59673 0.268239 4.32849 0.599609 4.32849ZM1.21484 6.09998C1.2262 6.90153 1.24514 8.15283 1.27637 9.97498C1.3159 12.2819 1.40583 15.5229 1.48145 17.3568C1.526 18.4373 1.58585 19.3767 1.64258 20.3051C1.69906 21.2293 1.75278 22.1422 1.78516 23.1595L1.81348 23.6254C1.82338 23.7563 1.83353 23.8678 1.84375 23.973C1.86425 24.184 1.88666 24.3882 1.90625 24.6732C1.94169 25.1891 1.96318 25.8462 2.02246 26.7152C2.07151 26.7239 2.11948 26.7327 2.16602 26.7406C2.33036 26.7685 2.50339 26.7972 2.66602 26.8353L2.68848 26.8402L2.71094 26.847C3.20533 27.0039 3.83557 27.2355 5.46289 27.431C6.71838 27.4876 8.74482 27.4884 10.3018 27.4047C11.6081 27.3344 12.6096 27.2041 13.4238 27.0853C14.2206 26.9691 14.8978 26.8535 15.4863 26.8324C16.6043 26.7924 17.4685 26.7758 18 26.7689V11.8451C17.1612 11.9342 16.5646 11.9979 16.2812 12.0687L16.2803 12.0677C16.0429 12.1377 15.7236 12.1888 15.3906 12.226C15.0293 12.2663 14.61 12.2972 14.1797 12.3207C13.3187 12.3676 12.39 12.3851 11.7422 12.3851C11.7007 12.3851 11.6602 12.3814 11.6211 12.3734C11.5822 12.3655 11.5446 12.3534 11.5088 12.3383C11.3468 12.2698 11.2241 12.1311 11.1719 11.9613C11.1547 11.9055 11.1426 11.847 11.1426 11.7855V6.3656C10.3553 6.34869 9.60094 6.31526 8.94531 6.22693C8.41616 6.15563 7.95491 6.05147 7.48926 5.95642C7.02133 5.86091 6.51959 5.76834 5.86426 5.70251C3.6352 5.59814 2.02379 5.55741 1.20703 5.54041C1.20906 5.69491 1.21174 5.8806 1.21484 6.09998ZM12.3418 11.1761C12.8845 11.1685 13.5176 11.1549 14.1143 11.1224C14.532 11.0997 14.9265 11.0695 15.2568 11.0326C15.599 10.9944 15.8341 10.9524 15.9551 10.9144L15.9727 10.9095L15.9893 10.9047C16.1693 10.8596 16.4206 10.8199 16.7178 10.7816C16.6911 10.7529 16.6645 10.7267 16.6406 10.7006C16.4791 10.524 16.3625 10.3937 16.2588 10.2758L16.2549 10.2719C15.9165 9.88034 15.5966 9.61708 14.708 8.724C14.1837 8.19702 13.5982 7.60268 13.1133 7.11658C12.8723 6.87502 12.6605 6.6652 12.5 6.50916C12.4499 6.46044 12.4051 6.41823 12.3672 6.3822C12.3587 6.38214 12.3503 6.38129 12.3418 6.38123V11.1761Z" fill="black"/>
<path fill-rule="evenodd" clip-rule="evenodd" d="M8.60024 12.5018C8.93059 12.4795 9.21726 12.7291 9.23989 13.0594C9.25955 13.349 9.263 13.5063 9.26626 13.6112C9.27249 13.7609 9.2938 13.9411 9.35903 14.7293L9.60512 16.5418C9.65324 16.9271 9.67219 17.1406 9.67837 17.3202C9.67774 17.302 9.68059 17.3306 9.71645 17.492C9.74535 17.6221 9.78741 17.8071 9.83266 18.0262C9.92416 18.4692 10.0307 19.0709 10.0915 19.8016C10.1055 19.9708 10.1157 20.1236 10.1256 20.2606C10.6581 19.5966 11.2757 19.208 11.6471 18.9295L11.6481 18.9286C12.0804 18.6061 12.4801 18.3015 12.7506 18.119L12.7614 18.1112L13.0866 18.6161L12.7624 18.1112C12.9031 18.0208 13.0355 17.9452 13.1569 17.8758C13.4443 17.7116 13.8106 17.8113 13.9752 18.0985C14.1397 18.386 14.04 18.7522 13.7526 18.9168C13.6282 18.988 13.5218 19.0496 13.4108 19.1209C13.1718 19.2831 12.8153 19.5532 12.3659 19.8885L12.3668 19.8895C11.8615 20.2682 11.3534 20.5758 10.9264 21.1913C10.7637 21.4259 10.5583 21.753 10.4157 21.9413C10.3402 22.0408 10.2319 22.1715 10.0973 22.2684C9.956 22.37 9.66839 22.5093 9.33852 22.3602C9.21112 22.3025 9.12207 22.2198 9.06997 22.1649C9.01581 22.1078 8.97116 22.0483 8.94106 22.0067C8.86312 21.8988 8.84742 21.8712 8.81704 21.8377C8.65454 21.6593 8.4614 21.4983 8.21645 21.3026C7.97912 21.1129 7.6942 20.8913 7.402 20.618C7.00964 20.251 6.62114 19.9789 6.29848 19.7987C6.13736 19.7087 5.99761 19.6441 5.88638 19.6024C5.83091 19.5816 5.78522 19.5672 5.75063 19.5584C5.73364 19.5541 5.72018 19.5513 5.71059 19.5497C5.70223 19.5482 5.69766 19.5478 5.69692 19.5477C5.36659 19.5234 5.11818 19.2364 5.14223 18.9061C5.1667 18.5759 5.45449 18.3272 5.78481 18.3514C6.09917 18.3745 6.49695 18.5351 6.88345 18.7508C7.29218 18.9791 7.75926 19.3089 8.22134 19.7411C8.45901 19.9634 8.68964 20.1444 8.92837 20.3348C8.91899 20.2055 8.90944 20.0612 8.89614 19.9012C8.84046 19.2318 8.74275 18.6794 8.65786 18.2684C8.61501 18.061 8.57585 17.8926 8.54458 17.7518C8.52025 17.6423 8.48334 17.4813 8.47915 17.3612C8.46955 17.0824 8.41889 16.6746 8.17055 14.8954L8.16762 14.8778L8.16665 14.8612C8.1036 14.097 8.07466 13.8442 8.06704 13.661V13.6551C8.06368 13.5491 8.06099 13.4119 8.04262 13.1415C8.02018 12.811 8.26981 12.5244 8.60024 12.5018Z" fill="black"/>
<path d="M121.206 0.507047C134.032 0.544767 149.873 3.6061 156.949 4.83901C161.402 5.61497 164.486 7.24255 166.514 9.41999L166.906 9.86237L167.143 10.1612C167.875 11.1364 168.177 12.0892 168.305 12.8379C171.388 13.8785 173.9 14.9506 175.839 15.9033C180.473 18.1799 181.026 21.7122 181.165 23.0194C181.317 24.454 181.006 26.2772 179.607 27.9851C178.307 29.5711 176.39 30.3755 175.239 30.7575C174.06 31.1493 172.904 31.3564 172.054 31.4802C170.344 31.7292 168.244 31.8645 165.904 31.9597C161.107 32.1546 153.49 32.2397 141.768 32.2985C123.205 32.3916 91.1673 32.5222 73.8167 32.4968C62.3615 32.4799 54.6118 31.8797 48.9566 30.8903C42.9668 29.8424 39.6187 28.4033 37.0896 27.2097C31.9101 24.7653 29.9237 21.6847 29.35 19.3202C28.357 15.2276 32.5576 12.7659 34.4293 11.8819C35.1537 11.5397 35.9508 11.2263 36.7927 10.9327C38.3785 9.38508 41.0023 8.37224 43.9743 8.37215C43.9743 8.37213 44.886 8.36289 46.9543 8.31649C52.3231 7.17211 59.4961 5.81847 68.6717 4.12027C78.8387 2.23863 92.4419 1.62552 98.3585 1.14766C106.591 0.482704 113.066 0.483129 121.206 0.507047Z" stroke="black" stroke-linecap="round"/>
<path d="M157.536 22.615C157.611 22.195 157.761 21.535 157.836 20.845C157.911 20.2 157.926 19.585 158.106 18.955C158.121 18.91 158.136 18.865 158.136 18.82C158.151 18.565 157.971 18.25 157.926 18.01C157.866 17.68 157.836 17.35 157.851 17.02C157.866 16.615 157.866 16.21 157.896 15.79C157.911 15.565 158.406 15.43 158.571 15.61C158.751 15.805 158.961 16.015 159.021 16.27C159.216 17.125 159.351 18.01 159.531 18.88C159.546 18.94 159.771 19.03 159.816 19C160.836 18.31 161.841 17.59 162.861 16.885C163.311 16.57 163.761 16.255 164.241 15.985C164.496 15.85 164.766 15.97 164.976 16.195C165.171 16.405 165.156 16.645 164.916 16.915C164.241 17.605 163.506 18.235 162.651 18.7C162.351 18.865 162.066 19.06 161.781 19.24C161.166 19.66 161.121 19.96 161.706 20.29C162.621 20.8 163.356 21.52 164.046 22.3C164.211 22.495 164.346 22.765 164.406 23.02C164.451 23.2 164.391 23.5 164.286 23.575C164.076 23.695 163.776 23.74 163.521 23.71C163.356 23.695 163.146 23.515 163.041 23.35C162.336 22.195 161.196 21.565 160.071 20.92C159.951 20.845 159.786 20.785 159.681 20.815C159.501 20.875 159.201 20.995 159.186 21.115C159.111 21.865 159.081 22.63 159.051 23.38C159.036 23.74 158.961 24.07 158.661 24.295C158.571 24.355 158.391 24.415 158.316 24.37C157.746 24.04 157.341 23.605 157.536 22.615Z" fill="black"/>
<path d="M148.731 17.575C148.941 16.285 149.256 14.965 150.396 14.065C150.741 13.795 151.131 13.54 151.551 13.39C152.826 12.925 155.301 13.855 155.991 15.01C156.711 16.21 156.231 17.215 155.226 18.025C154.836 18.325 154.296 18.43 153.816 18.625C152.871 19.015 151.926 19.405 150.981 19.795C150.711 19.915 150.621 20.155 150.606 20.41C150.561 21.46 150.771 22.45 151.236 23.395C151.386 23.665 151.326 23.875 151.161 24.085C150.816 24.49 150.246 24.445 150.051 23.965C149.826 23.44 149.601 22.9 149.526 22.345C149.421 21.64 149.466 20.95 149.181 20.26C148.926 19.69 149.151 18.985 148.821 18.385C148.701 18.175 148.746 17.89 148.731 17.575ZM151.506 14.935C150.891 15.655 150.186 16.345 150.216 17.395C150.216 17.455 150.216 17.53 150.216 17.59C150.231 18.145 150.621 18.445 151.101 18.19C152.076 17.695 153.096 17.365 154.146 17.065C154.266 17.02 154.371 16.945 154.476 16.885C154.926 16.645 155.031 15.925 154.686 15.55C154.041 14.86 152.541 14.5 151.656 14.83C151.611 14.86 151.551 14.89 151.506 14.935Z" fill="black"/>
<path d="M144.266 19.765C143.441 19.795 142.841 19.915 142.211 19.705C141.776 19.57 141.251 19.705 140.786 19.795C140.636 19.81 140.456 20.05 140.426 20.215C140.336 20.785 140.471 21.295 140.996 21.655C141.821 22.24 142.766 22.345 143.741 22.345C144.146 22.36 144.566 22.255 144.971 22.225C145.361 22.195 145.691 22.435 145.736 22.765C145.781 23.17 145.496 23.665 145.151 23.755C144.806 23.815 144.461 23.905 144.131 23.89C142.826 23.815 141.551 23.71 140.336 23.125C139.571 22.75 139.151 22.15 138.956 21.43C138.731 20.62 138.671 19.78 139.106 19C139.616 18.1 140.021 17.155 140.681 16.345C141.041 15.91 141.446 15.55 141.926 15.265C142.496 14.935 143.066 14.86 143.711 15.1C144.341 15.34 144.971 15.535 145.691 15.565C146.501 15.595 147.311 15.895 147.836 16.615C147.911 16.72 147.926 16.9 147.881 17.005C147.851 17.11 147.701 17.2 147.596 17.26C147.461 17.305 147.311 17.335 147.191 17.29C146.276 17.005 145.361 16.69 144.386 16.705C144.116 16.705 143.861 16.525 143.606 16.435C142.856 16.165 142.286 16.33 141.836 16.96C141.611 17.29 141.431 17.68 141.236 18.04C141.131 18.235 141.251 18.415 141.476 18.43C142.571 18.445 143.666 18.46 144.761 18.49C144.896 18.49 145.061 18.52 145.166 18.595C145.316 18.715 145.541 18.865 145.556 19.03C145.571 19.18 145.406 19.45 145.241 19.51C144.866 19.66 144.461 19.72 144.266 19.765Z" fill="black"/>
<path d="M130.173 22.225C130.323 22.345 130.488 22.615 130.458 22.795C130.443 22.975 130.233 23.23 130.068 23.275C129.633 23.38 129.168 23.38 129.123 23.395C128.478 23.395 128.253 23.395 128.028 23.395C126.153 23.38 125.538 21.805 125.748 20.47C125.823 20.035 126.003 19.6 126.153 19.18C126.213 19.03 126.333 18.895 126.468 18.775C126.588 18.67 126.768 18.61 126.903 18.52C128.103 17.71 128.538 17.725 129.603 18.64C129.873 18.88 129.993 19.81 129.768 20.08C129.663 20.2 129.498 20.29 129.348 20.35C128.823 20.575 128.298 20.755 127.788 20.995C127.578 21.085 127.368 21.205 127.233 21.385C126.798 21.91 128.043 22.375 128.433 22.24C128.778 22.105 129.168 22.195 129.543 22.075C129.723 22.03 130.008 22.105 130.173 22.225ZM127.308 19.615C127.203 19.75 127.278 19.9 127.458 19.945C127.683 19.99 127.893 19.945 128.073 19.825C128.193 19.75 128.403 19.57 128.418 19.435C128.418 19.36 128.358 19.285 128.193 19.255C127.833 19.18 127.533 19.315 127.308 19.615Z" fill="black"/>
<path d="M124.097 21.415C124.202 21.655 124.157 21.94 123.932 22.135C123.827 22.24 123.737 22.39 123.542 22.27C123.182 22.03 122.972 21.67 122.777 21.28C122.642 20.98 122.357 20.86 122.012 20.815C120.962 20.665 120.167 21.1 119.552 21.91C119.207 22.36 118.952 22.885 118.607 23.35C118.472 23.515 118.277 23.635 118.067 23.68C117.947 23.695 117.842 23.68 117.722 23.635C117.527 23.545 117.287 23.365 117.257 23.14C117.227 22.93 117.227 22.72 117.227 22.51C117.212 21.505 117.167 20.5 117.212 19.51C117.242 18.82 116.987 18.115 116.867 17.44C116.852 17.365 116.837 17.305 116.807 17.23C116.732 17.035 116.522 16.915 116.432 16.72C116.312 16.465 116.492 16.225 116.642 16.015C116.882 15.67 117.557 15.745 117.692 16.15C117.902 16.795 118.187 17.425 118.127 18.13C118.067 19.075 118.322 19.99 118.472 20.92C118.487 21.07 118.682 21.115 118.817 20.995C118.937 20.875 119.042 20.77 119.147 20.65C119.912 19.795 120.842 19.495 121.982 19.585C122.552 19.615 122.957 19.825 123.362 20.215C123.707 20.56 123.917 20.98 124.097 21.415Z" fill="black"/>
<path d="M114.895 16.915C115.09 16.885 115.48 17.14 115.405 17.35C115.39 17.425 115.345 17.485 115.36 17.545C115.375 17.575 115.39 17.605 115.405 17.65C115.405 17.695 115.36 17.74 115.33 17.77C114.835 18.235 114.13 18.085 113.545 18.28C113.47 18.31 113.395 18.34 113.305 18.34C113.26 18.34 113.2 18.34 113.155 18.355C113.02 18.4 113.02 18.58 113.005 18.7C112.945 19.12 112.825 19.54 112.765 19.96C112.645 20.86 112.54 21.745 112.465 22.63C112.405 23.215 113.02 23.665 112.465 24.235C112.33 24.37 112.075 24.43 111.88 24.46C111.67 24.49 111.61 24.295 111.505 24.145C111.205 23.71 111.25 23.23 111.19 22.885C111.175 22.345 111.235 21.94 111.28 21.535C111.31 21.13 111.415 20.725 111.535 20.335C111.58 20.155 111.655 19.54 111.7 19.39C111.745 19.225 111.775 19.045 111.775 18.88C111.775 18.82 111.67 18.715 111.595 18.7C111.49 18.685 111.37 18.7 111.28 18.745C111.01 18.85 110.74 18.895 110.44 18.895C109.78 18.925 109.135 19.135 108.475 19.09C108.31 19.075 108.235 19.03 108.115 18.88C107.935 18.595 108.13 18.07 108.445 17.98C108.58 17.935 108.715 17.95 108.85 17.965C109.12 17.995 109.42 17.92 109.675 17.86C109.825 17.83 110.47 17.755 110.65 17.725C110.995 17.65 111.355 17.53 111.715 17.47C111.88 17.44 111.91 17.365 111.955 17.215C112.105 16.675 112.09 16.12 112.06 15.58C112.045 15.19 112.27 15.01 112.525 14.815C112.615 14.74 112.795 14.725 112.9 14.77C113.05 14.845 113.17 15.01 113.305 15.115C113.515 15.265 113.095 16.54 113.155 16.825C113.185 16.99 113.23 17.065 113.395 17.05C113.5 17.05 114.7 16.945 114.895 16.915Z" fill="black"/>
<path d="M101.029 19.255H101.014C101.329 20.41 101.044 21.475 100.594 22.54C100.414 22.975 100.039 23.32 99.619 23.515C99.394 23.62 99.169 23.68 98.929 23.71C98.734 23.725 98.509 23.74 98.299 23.725C98.179 23.725 98.059 23.71 97.954 23.68C97.489 23.545 96.979 23.515 96.514 23.365C96.214 23.26 95.899 23.05 95.689 22.81C94.849 21.865 94.849 20.86 95.614 19.87C96.259 19.06 97.144 18.73 98.119 18.58C98.449 18.535 98.794 18.58 99.139 18.535C99.259 18.52 99.469 18.34 99.469 18.235C99.514 17.17 99.604 16.09 99.289 15.025C99.184 14.71 99.184 14.365 99.199 14.035C99.214 13.885 99.379 13.75 99.499 13.63C99.664 13.465 99.799 13.615 99.919 13.72C100.234 13.975 100.474 14.245 100.504 14.71C100.549 15.325 100.714 15.925 100.774 16.54C100.834 17.17 100.819 17.8 100.864 18.415C100.879 18.7 100.954 18.97 101.029 19.255ZM99.559 21.925C99.889 21.4 99.889 20.845 99.829 20.275C99.799 19.96 99.454 19.645 99.139 19.6C98.104 19.495 97.219 19.795 96.559 20.635C96.274 20.98 96.289 21.4 96.424 21.775C96.559 22.165 96.904 22.39 97.354 22.39C97.594 22.39 97.819 22.39 98.044 22.39V22.405C98.329 22.405 98.614 22.405 98.899 22.39C99.214 22.39 99.379 22.195 99.559 21.925Z" fill="black"/>
<path d="M93.5705 23.32C93.5855 23.365 93.5855 23.41 93.5705 23.47C93.5405 23.65 93.4055 23.845 93.2555 23.92C92.9555 24.085 92.5055 23.995 92.3855 23.785C92.1905 23.425 91.9955 23.065 91.9805 22.63C91.9805 22.435 91.9055 22.21 91.7855 22.045C91.7255 21.955 91.5005 21.85 91.4255 21.895C91.1405 22.03 90.9155 22.24 90.6455 22.405C90.4655 22.525 90.2855 22.63 90.0755 22.675C88.9655 22.96 87.9905 22 88.2305 20.86C88.2605 20.71 88.3205 20.56 88.3805 20.425C88.7705 19.6 89.3555 18.97 90.1805 18.55C90.9905 18.13 91.6955 18.37 92.3555 18.85C92.4905 18.955 92.5805 19.21 92.5655 19.405C92.5205 20.2 92.6705 20.95 92.9255 21.7C93.0605 22.09 93.2555 22.45 93.4205 22.84C93.4805 22.99 93.5405 23.155 93.5705 23.32ZM91.0655 20.545C91.1855 20.425 91.6505 20.005 91.6205 19.75C91.6055 19.66 91.5455 19.585 91.3805 19.555C90.4055 19.36 89.5055 20.035 89.4005 21.055C89.3555 21.4 89.7455 21.505 90.0155 21.445C90.4205 21.355 90.7955 20.815 91.0655 20.545Z" fill="black"/>
<path d="M86.2606 19.375C86.6206 19.645 86.7556 20.035 86.7406 20.485C86.7256 21.115 86.4406 21.58 86.0806 22.045C85.7956 22.42 85.3756 22.435 84.9706 22.57C84.4306 22.765 83.9506 22.63 83.4706 22.465C82.9306 22.285 82.4206 21.985 82.1206 21.445C81.8806 21.04 81.7006 20.515 81.6706 20.005C81.6406 19.57 81.7306 19.135 82.0006 18.775C82.2706 18.43 82.5706 18.205 83.0506 18.295C83.4106 18.37 83.7706 18.4 84.1306 18.43C84.9556 18.505 85.6306 18.91 86.2606 19.375ZM85.3906 20.845C85.6006 20.605 85.4956 20.2 85.2406 20.035C84.7306 19.72 84.1906 19.6 83.7106 19.63C82.7056 19.615 82.6156 19.75 82.9456 20.605C83.1256 21.085 83.9206 21.625 84.4156 21.58C84.5206 21.565 84.6406 21.55 84.7156 21.49C84.9406 21.28 85.1806 21.085 85.3906 20.845Z" fill="black"/>
<path d="M79.1495 17.98C79.0895 18.205 78.9695 18.415 78.9545 18.64C78.9545 19.93 78.9246 21.22 78.9246 22.525C78.9246 22.69 79.0895 22.84 79.1495 23.02C79.2845 23.44 79.0296 23.875 78.6096 23.995C78.1746 24.115 77.5446 23.74 77.5296 23.26C77.5146 22.345 77.5296 21.43 77.5746 20.515C77.6046 19.93 77.7696 19.36 77.8146 18.775C77.8596 18.175 77.8446 17.56 77.8596 16.945C77.8596 16.39 77.8746 15.865 78.0846 15.325C78.2646 14.83 78.2646 14.26 78.0546 13.72C77.9196 13.33 78.1745 13.015 78.5795 12.955C78.9245 12.895 79.2395 13.09 79.2395 13.405C79.2545 14.14 79.2395 14.86 79.2395 15.94C79.2545 16.36 79.2545 16.795 79.2395 17.215C79.2395 17.47 79.2095 17.725 79.1495 17.98Z" fill="black"/>
<path d="M74.1089 19.345C74.8589 19.915 75.1439 20.725 75.1289 21.655C75.1289 21.97 75.1289 22.285 75.1289 22.6C75.1139 22.825 74.8889 23.065 74.6339 23.08C74.2889 23.11 74.0039 22.885 74.0339 22.54C74.0639 22.18 74.0039 21.82 74.0039 21.46C74.0189 20.8 73.7489 20.38 73.2389 20.035C72.5189 19.54 71.7839 19.57 71.3339 20.29C71.0339 20.77 70.6589 21.22 70.5689 21.82C70.5389 22.075 70.4489 22.33 70.3739 22.57C70.3139 22.78 69.9389 22.96 69.7289 22.93C69.4139 22.87 69.2789 22.555 69.2639 22.27C69.2339 21.865 69.2339 21.445 69.2339 21.04C69.2189 20.695 69.2939 20.335 69.3689 19.975C69.4289 19.735 69.5039 19.495 69.5639 19.27C69.6689 18.85 69.9089 18.76 70.3889 19C70.5689 19.09 70.6889 19.285 70.9289 19.12C71.1839 18.955 71.4539 18.79 71.7239 18.625C72.1139 18.4 72.5039 18.4 72.9089 18.655C73.2839 18.91 73.7339 19.075 74.1089 19.345Z" fill="black"/>
<path d="M67.1728 17.125C67.4428 17.23 67.6978 17.605 67.6378 17.845C67.2928 19.15 66.9628 20.455 66.5578 21.745C66.3928 22.255 66.0178 22.69 65.7028 23.14C65.6128 23.275 65.4178 23.38 65.2678 23.41C64.6078 23.53 63.9928 23.515 63.5578 22.81C63.2878 22.33 62.9278 21.91 62.5978 21.49C62.3878 21.22 62.2528 21.22 62.0278 21.46C61.6228 21.895 61.2178 22.36 60.7978 22.78C60.4228 23.155 59.9278 23.14 59.5378 22.765C59.3578 22.6 59.2078 22.405 59.0278 22.24C58.4878 21.715 58.1428 21.085 58.2478 20.26C58.2628 20.14 58.2478 20.02 58.2478 19.885H58.2628C58.2628 19.585 58.2328 19.255 58.2778 18.955C58.2928 18.82 58.4728 18.64 58.5928 18.625C58.7278 18.61 58.9078 18.745 59.0278 18.85C59.3278 19.135 59.2528 19.54 59.2678 19.915C59.2828 20.365 59.4178 20.74 59.7028 21.1C60.0778 21.565 60.2428 21.58 60.6478 21.085C60.9478 20.71 61.1878 20.29 61.4728 19.9C61.6528 19.645 61.8478 19.42 62.0578 19.195C62.3278 18.91 62.7028 18.94 62.9728 19.285C63.1528 19.525 63.4078 19.78 63.4378 20.05C63.5128 20.59 63.8428 20.935 64.1128 21.34C64.5928 22.075 64.8928 22.06 65.2678 21.235C65.6428 20.395 65.7778 19.465 65.9578 18.565C66.0478 18.13 66.2128 17.74 66.3928 17.35C66.4978 17.11 66.8878 17.02 67.1728 17.125Z" fill="black"/>
<path d="M56.158 19.375C56.518 19.645 56.653 20.035 56.638 20.485C56.623 21.115 56.338 21.58 55.978 22.045C55.693 22.42 55.273 22.435 54.868 22.57C54.328 22.765 53.848 22.63 53.368 22.465C52.828 22.285 52.318 21.985 52.018 21.445C51.778 21.04 51.598 20.515 51.568 20.005C51.538 19.57 51.628 19.135 51.898 18.775C52.168 18.43 52.468 18.205 52.948 18.295C53.308 18.37 53.668 18.4 54.028 18.43C54.853 18.505 55.528 18.91 56.158 19.375ZM55.288 20.845C55.498 20.605 55.393 20.2 55.138 20.035C54.628 19.72 54.088 19.6 53.608 19.63C52.603 19.615 52.513 19.75 52.843 20.605C53.023 21.085 53.818 21.625 54.313 21.58C54.418 21.565 54.538 21.55 54.613 21.49C54.838 21.28 55.078 21.085 55.288 20.845Z" fill="black"/>
<path d="M44.3251 21.19C44.4151 20.59 43.9051 19.945 44.2201 19.375C44.2951 19.24 44.3101 19.015 44.2651 18.88C43.9351 18.07 44.3851 17.23 44.3251 16.39C44.3101 16.24 44.2651 16.06 44.1901 15.925C44.0101 15.61 43.8451 15.265 44.1151 14.995C44.4751 14.635 44.9251 14.38 45.4801 14.56C46.5901 14.935 47.6251 15.49 48.5551 16.195C49.8751 17.185 50.2351 18.43 49.8151 20.035C49.7701 20.245 49.7401 20.47 49.7101 20.695C49.6801 21.055 49.5001 21.31 49.2751 21.565C48.3751 22.57 47.1901 23.08 45.9901 23.53C45.2251 23.83 44.3851 23.2 44.3251 22.36C44.2951 21.97 44.3251 21.58 44.3251 21.19ZM45.5251 18.94C45.5551 19.735 45.7651 20.53 45.4801 21.205C45.4951 21.505 45.4951 21.7 45.5101 21.88C45.5251 22.12 45.7801 22.345 46.0051 22.285C46.2151 22.21 46.4401 22.135 46.6501 22.03C48.0451 21.295 48.5251 21.31 48.4801 19.435C48.4651 19.195 48.6901 18.925 48.6301 18.73C48.4051 18.085 48.1801 17.425 47.5651 17.05C46.9501 16.69 46.3501 16.3 45.7351 15.94C45.6901 15.925 45.5251 16.03 45.5101 16.105C45.4651 16.285 45.4651 16.48 45.4651 16.675C45.4801 17.425 45.4801 18.19 45.5251 18.94Z" fill="black"/>
</svg>
