<svg fill="none" height="33" viewBox="0 0 182 33" width="182" xmlns="http://www.w3.org/2000/svg"><path d="m.599609 4.32846c.015894 0 1.132731.01028 3.101561.08203l2.24317.09375.01562.00098.01563.00195c.71582.07153 1.26375.1736 1.75293.27344.49332.10069.89943.19249 1.37695.25684.96073.12945 2.18263.1385 3.49803.14746.0728.00052.1417.01582.2061.04004.0075.00283.0159.00367.0234.00683.043.01822.083.04208.1201.06934.0592.04275.1231.10101.166.14062.0596.05501.1334.1259.2168.20703.1674.16277.385.37852.627.6211.4813.48253 1.0812 1.09038 1.5957 1.60742.8042.80827 1.2305 1.17806 1.6006 1.60547.0982.11169.2103.23673.3672.4082.1542.16864.3307.35934.5927.57124.0188.0152.0344.033.0508.0499.2101-.2173.5527-.2473.7969-.0577.2617.2033.3097.5801.1064.8418-.0164.0213-.0348.0415-.0527.0625.1101.1087.1787.2597.1787.4268v15.4287c0 .0246-.0049.0484-.0078.0723.0033.0252.0088.051.0088.0771-.0002.3309-.2687.6002-.5996.6006-.0331 0-1.1864-.0001-3.0713.0674-.503.018-1.082.1171-1.9326.2412-.8337.1216-1.8743.2571-3.2305.3301-1.60383.0862-3.68108.0864-4.9746.0273l-.02246-.001-.02148-.0029c-1.71774-.2046-2.43976-.4569-2.96582-.625-.11427-.0263-.23936-.047-.417-.0771-.17691-.0301-.38841-.0674-.64062-.125-.01133-.0026-.02218-.0086-.0332-.0118-.01696-.0049-.03347-.0102-.04981-.0166-.01954-.0075-.03828-.0159-.05664-.0253-.0175-.009-.0343-.0187-.05078-.0293-.01701-.011-.03315-.0227-.04883-.0352-.01271-.0101-.02526-.0201-.03711-.0313-.01636-.0154-.03142-.0317-.0459-.0488-.011788-.0138-.022671-.0281-.0332-.0429-.010323-.0147-.020322-.0294-.029297-.045-.01155-.0199-.021991-.0402-.03125-.0615-.006282-.0145-.012441-.029-.017578-.0439-.007394-.0216-.012636-.0438-.017578-.0664-.003534-.0162-.006598-.0324-.008789-.0489-.001426-.0107-.005004-.0213-.00586-.0322-.082833-1.0592-.115426-2.0102-.149414-2.5049-.018062-.2628-.037751-.4415-.05957-.666-.021899-.2253-.043261-.4798-.0625-.8711l-.000976-.0107c-.031739-1.0023-.084994-1.9028-.141602-2.8291-.056532-.9251-.115993-1.8771-.161133-2.9717-.0761-1.8455-.167369-5.0968-.2070311-7.41115-.0624266-3.64271-.0761719-5.00996-.0761719-5.06738 0-.33137.268239-.59961.599609-.59961zm.615231 1.77149c.01136.80155.0303 2.05285.06153 3.875.03953 2.30695.12946 5.54795.20508 7.38185.04455 1.0804.1044 2.0199.16113 2.9482.05648.9243.1102 1.8372.14258 2.8545l.02832.4658c.0099.131.02005.2425.03027.3477.0205.211.04291.4151.0625.7002.03544.5159.05693 1.173.11621 2.042.04905.0087.09702.0175.14356.0254.16434.0279.33737.0565.5.0947l.02246.0049.02246.0068c.49439.1569 1.12463.3885 2.75195.584 1.25549.0565 3.28193.0574 4.83891-.0264 1.3063-.0702 2.3078-.2005 3.122-.3193.7968-.1162 1.474-.2318 2.0625-.2529 1.118-.0401 1.9822-.0566 2.5137-.0635v-14.9238c-.8388.089-1.4354.1528-1.7188.2236l-.0009-.001c-.2374.0699-.5567.121-.8897.1582-.3613.0404-.7806.0713-1.2109.0947-.861.047-1.7897.0645-2.4375.0645-.0415 0-.082-.0037-.1211-.0117-.0389-.008-.0765-.0201-.1123-.0352-.162-.0684-.2847-.2071-.3369-.3769-.0172-.0559-.0293-.1143-.0293-.1758v-5.41993c-.7873-.01691-1.54166-.05034-2.19729-.13867-.52915-.0713-.9904-.17546-1.45605-.27051-.46793-.09551-.96967-.18808-1.625-.25391-2.22906-.10437-3.84047-.1451-4.65723-.16211.00203.15451.00471.3402.00781.55958zm11.12696 5.07615c.5427-.0076 1.1758-.0212 1.7725-.0537.4177-.0228.8122-.0529 1.1425-.0898.3422-.0382.5773-.0802.6983-.1182l.0176-.0049.0166-.0049c.18-.045.4313-.0848.7285-.123-.0267-.0287-.0533-.0549-.0772-.0811-.1615-.1766-.2781-.3068-.3818-.4248l-.0039-.0039c-.3384-.39149-.6583-.65476-1.5469-1.54783-.5243-.52698-1.1098-1.12132-1.5947-1.60742-.241-.24156-.4528-.45138-.6133-.60743-.0501-.04871-.0949-.09092-.1328-.12695-.0085-.00006-.0169-.00091-.0254-.00097z" fill="#000"/><path clip-rule="evenodd" d="m8.60023 14.5014c.33046-.0225.61697.2272.63965.5576.01968.2897.02311.4469.02637.5517.00621.1498.02749.3294.09277 1.1182l.24609 1.8125c.04814.3854.06706.5987.07325.7783-.00062-.018.0023.0108.03808.1719.0289.1301.07092.3149.11621.5342.09151.443.19795 1.0444.25875 1.7754.0142.1699.0243.3234.0342.4609.5325-.6645 1.1498-1.0534 1.5215-1.332l.001-.001c.4322-.3224.832-.627 1.1025-.8096l.0108-.0078.3252.5049-.3243-.5049c.1407-.0903.2733-.1659.3946-.2353.2875-.1645.6537-.0648.8183.2226.1646.2877.065.6539-.2226.8184-.1243.0711-.2308.1327-.3418.2041-.2391.1622-.5955.4323-1.0449.7676l.0009.0009c-.5053.3787-1.0135.6862-1.4404 1.3018-.1628.2348-.3681.5619-.5107.75-.0756.0996-.1838.2303-.3184.3272-.14143.1015-.4292.2407-.75879.0917-.12724-.0576-.21649-.1404-.26855-.1953-.05416-.0571-.09882-.1165-.12891-.1582-.07799-.1079-.09363-.1355-.12402-.1689-.1625-.1785-.35564-.3394-.60059-.5352-.23731-.1896-.52229-.4113-.81445-.6845-.39234-.367-.78088-.6392-1.10352-.8194-.16102-.0899-.30093-.1546-.41211-.1963-.05531-.0207-.10122-.0351-.13574-.0439-.01683-.0043-.03052-.0071-.04004-.0088-.00888-.0015-.01367-.002-.01367-.002-.33005-.0245-.57866-.3114-.55469-.6416.02421-.3303.31229-.5786.64258-.5546.31432.023.71216.1836 1.09863.3994.40873.2282.87584.5581 1.33789.9902.2378.2224.46818.4042.70704.5947-.00941-.1297-.01886-.2748-.03223-.4355-.0557-.6696-.15337-1.2218-.23828-1.6328-.04288-.2076-.082-.3758-.11328-.5166-.02435-.1096-.0613-.2705-.06543-.3907-.00961-.2788-.06024-.6864-.3086-2.4658l-.00293-.0176-.00097-.0166c-.06309-.7645-.09201-1.0169-.09961-1.2001v-.0059c-.00336-.1061-.00604-.243-.02442-.5137-.02239-.3303.22735-.6169.55762-.6396z" fill="#000" fill-rule="evenodd"/><path d="m121.206.507047c12.826.03772 28.667 3.099053 35.743 4.331963 4.453.77596 7.537 2.40354 9.565 4.58098l.392.44238.237.29883c.732.9752 1.034 1.928 1.162 2.6767 3.083 1.0406 5.595 2.1127 7.534 3.0654 4.634 2.2766 5.187 5.8089 5.326 7.1161.152 1.4346-.159 3.2578-1.558 4.9657-1.3 1.586-3.217 2.3904-4.368 2.7724-1.179.3918-2.335.5989-3.185.7227-1.71.249-3.81.3843-6.15.4795-4.797.1949-12.414.28-24.136.3388-18.563.0931-50.6007.2237-67.9513.1983-11.4552-.0169-19.2049-.6171-24.8601-1.6065-5.9898-1.0479-9.3379-2.487-11.867-3.6806-5.1795-2.4444-7.1659-5.525-7.7396-7.8895-.993-4.0926 3.2076-6.5543 5.0793-7.4383.7244-.3422 1.5215-.6556 2.3634-.9492 1.5858-1.54762 4.2096-2.56046 7.1816-2.56055 0-.00002.9117-.00926 2.98-.05566 5.3688-1.14438 12.5418-2.49802 21.7174-4.19622 10.167-1.88164 23.7702-2.49475 29.6868-2.97261 8.2325-.664956 14.7075-.664531 22.8475-.640613z" fill="#000" stroke="#000" stroke-linecap="round"/><g fill="#fff"><path d="m157.536 22.615c.075-.42.225-1.08.3-1.77.075-.645.09-1.26.27-1.89.015-.045.03-.09.03-.135.015-.255-.165-.57-.21-.81-.06-.33-.09-.66-.075-.99.015-.405.015-.81.045-1.23.015-.225.51-.36.675-.18.18.195.39.405.45.66.195.855.33 1.74.51 2.61.015.06.24.15.285.12 1.02-.69 2.025-1.41 3.045-2.115.45-.315.9-.63 1.38-.9.255-.135.525-.015.735.21.195.21.18.45-.06.72-.675.69-1.41 1.32-2.265 1.785-.3.165-.585.36-.87.54-.615.42-.66.72-.075 1.05.915.51 1.65 1.23 2.34 2.01.165.195.3.465.36.72.045.18-.015.48-.12.555-.21.12-.51.165-.765.135-.165-.015-.375-.195-.48-.36-.705-1.155-1.845-1.785-2.97-2.43-.12-.075-.285-.135-.39-.105-.18.06-.48.18-.495.3-.075.75-.105 1.515-.135 2.265-.015.36-.09.69-.39.915-.09.06-.27.12-.345.075-.57-.33-.975-.765-.78-1.755z"/><path d="m148.731 17.575c.21-1.29.525-2.61 1.665-3.51.345-.27.735-.525 1.155-.675 1.275-.465 3.75.465 4.44 1.62.72 1.2.24 2.205-.765 3.015-.39.3-.93.405-1.41.6-.945.39-1.89.78-2.835 1.17-.27.12-.36.36-.375.615-.045 1.05.165 2.04.63 2.985.15.27.09.48-.075.69-.345.405-.915.36-1.11-.12-.225-.525-.45-1.065-.525-1.62-.105-.705-.06-1.395-.345-2.085-.255-.57-.03-1.275-.36-1.875-.12-.21-.075-.495-.09-.81zm2.775-2.64c-.615.72-1.32 1.41-1.29 2.46v.195c.015.555.405.855.885.6.975-.495 1.995-.825 3.045-1.125.12-.045.225-.12.33-.18.45-.24.555-.96.21-1.335-.645-.69-2.145-1.05-3.03-.72-.045.03-.105.06-.15.105z"/><path d="m144.266 19.765c-.825.03-1.425.15-2.055-.06-.435-.135-.96 0-1.425.09-.15.015-.33.255-.36.42-.09.57.045 1.08.57 1.44.825.585 1.77.69 2.745.69.405.015.825-.09 1.23-.12.39-.03.72.21.765.54.045.405-.24.9-.585.99-.345.06-.69.15-1.02.135-1.305-.075-2.58-.18-3.795-.765-.765-.375-1.185-.975-1.38-1.695-.225-.81-.285-1.65.15-2.43.51-.9.915-1.845 1.575-2.655.36-.435.765-.795 1.245-1.08.57-.33 1.14-.405 1.785-.165.63.24 1.26.435 1.98.465.81.03 1.62.33 2.145 1.05.075.105.09.285.045.39-.03.105-.18.195-.285.255-.135.045-.285.075-.405.03-.915-.285-1.83-.6-2.805-.585-.27 0-.525-.18-.78-.27-.75-.27-1.32-.105-1.77.525-.225.33-.405.72-.6 1.08-.105.195.015.375.24.39 1.095.015 2.19.03 3.285.06.135 0 .3.03.405.105.15.12.375.27.39.435.015.15-.15.42-.315.48-.375.15-.78.21-.975.255z"/><path d="m130.173 22.225c.15.12.315.39.285.57-.015.18-.225.435-.39.48-.435.105-.9.105-.945.12-.645 0-.87 0-1.095 0-1.875-.015-2.49-1.59-2.28-2.925.075-.435.255-.87.405-1.29.06-.15.18-.285.315-.405.12-.105.3-.165.435-.255 1.2-.81 1.635-.795 2.7.12.27.24.39 1.17.165 1.44-.105.12-.27.21-.42.27-.525.225-1.05.405-1.56.645-.21.09-.42.21-.555.39-.435.525.81.99 1.2.855.345-.135.735-.045 1.11-.165.18-.045.465.03.63.15zm-2.865-2.61c-.105.135-.03.285.15.33.225.045.435 0 .615-.12.12-.075.33-.255.345-.39 0-.075-.06-.15-.225-.18-.36-.075-.66.06-.885.36z"/><path d="m124.097 21.415c.105.24.06.525-.165.72-.105.105-.195.255-.39.135-.36-.24-.57-.6-.765-.99-.135-.3-.42-.42-.765-.465-1.05-.15-1.845.285-2.46 1.095-.345.45-.6.975-.945 1.44-.135.165-.33.285-.54.33-.12.015-.225 0-.345-.045-.195-.09-.435-.27-.465-.495-.03-.21-.03-.42-.03-.63-.015-1.005-.06-2.01-.015-3 .03-.69-.225-1.395-.345-2.07-.015-.075-.03-.135-.06-.21-.075-.195-.285-.315-.375-.51-.12-.255.06-.495.21-.705.24-.345.915-.27 1.05.135.21.645.495 1.275.435 1.98-.06.945.195 1.86.345 2.79.015.15.21.195.345.075.12-.12.225-.225.33-.345.765-.855 1.695-1.155 2.835-1.065.57.03.975.24 1.38.63.345.345.555.765.735 1.2z"/><path d="m114.895 16.915c.195-.03.585.225.51.435-.015.075-.06.135-.045.195.015.03.03.06.045.105 0 .045-.045.09-.075.12-.495.465-1.2.315-1.785.51-.075.03-.15.06-.24.06-.045 0-.105 0-.15.015-.135.045-.135.225-.15.345-.06.42-.18.84-.24 1.26-.12.9-.225 1.785-.3 2.67-.06.585.555 1.035 0 1.605-.135.135-.39.195-.585.225-.21.03-.27-.165-.375-.315-.3-.435-.255-.915-.315-1.26-.015-.54.045-.945.09-1.35.03-.405.135-.81.255-1.2.045-.18.12-.795.165-.945.045-.165.075-.345.075-.51 0-.06-.105-.165-.18-.18-.105-.015-.225 0-.315.045-.27.105-.54.15-.84.15-.66.03-1.305.24-1.965.195-.165-.015-.24-.06-.36-.21-.18-.285.015-.81.33-.9.135-.045.27-.03.405-.015.27.03.57-.045.825-.105.15-.03.795-.105.975-.135.345-.075.705-.195 1.065-.255.165-.03.195-.105.24-.255.15-.54.135-1.095.105-1.635-.015-.39.21-.57.465-.765.09-.075.27-.09.375-.045.15.075.27.24.405.345.21.15-.21 1.425-.15 1.71.03.165.075.24.24.225.105 0 1.305-.105 1.5-.135z"/><path d="m101.029 19.255h-.015c.315 1.155.03 2.22-.42 3.285-.18.435-.555.78-.975.975-.225.105-.45.165-.69.195-.195.015-.42.03-.63.015-.12 0-.24-.015-.345-.045-.465-.135-.975-.165-1.44-.315-.3-.105-.615-.315-.825-.555-.84-.945-.84-1.95-.075-2.94.645-.81 1.53-1.14 2.505-1.29.33-.045.675 0 1.02-.045.12-.015.33-.195.33-.3.045-1.065.135-2.145-.18-3.21-.105-.315-.105-.66-.09-.99.015-.15.18-.285.3-.405.165-.165.3-.015.42.09.315.255.555.525.585.99.045.615.21 1.215.27 1.83.06.63.045 1.26.09 1.875.015.285.09.555.165.84zm-1.47 2.67c.33-.525.33-1.08.27-1.65-.03-.315-.375-.63-.69-.675-1.035-.105-1.92.195-2.58 1.035-.285.345-.27.765-.135 1.14.135.39.48.615.93.615h.69v.015c.285 0 .57 0 .855-.015.315 0 .48-.195.66-.465z"/><path d="m93.5705 23.32c.015.045.015.09 0 .15-.03.18-.165.375-.315.45-.3.165-.75.075-.87-.135-.195-.36-.39-.72-.405-1.155 0-.195-.075-.42-.195-.585-.06-.09-.285-.195-.36-.15-.285.135-.51.345-.78.51-.18.12-.36.225-.57.27-1.11.285-2.085-.675-1.845-1.815.03-.15.09-.3.15-.435.39-.825.975-1.455 1.8-1.875.81-.42 1.515-.18 2.175.3.135.105.225.36.21.555-.045.795.105 1.545.36 2.295.135.39.33.75.495 1.14.06.15.12.315.15.48zm-2.505-2.775c.12-.12.585-.54.555-.795-.015-.09-.075-.165-.24-.195-.975-.195-1.875.48-1.98 1.5-.045.345.345.45.615.39.405-.09.78-.63 1.05-.9z"/><path d="m86.2606 19.375c.36.27.495.66.48 1.11-.015.63-.3 1.095-.66 1.56-.285.375-.705.39-1.11.525-.54.195-1.02.06-1.5-.105-.54-.18-1.05-.48-1.35-1.02-.24-.405-.42-.93-.45-1.44-.03-.435.06-.87.33-1.23.27-.345.57-.57 1.05-.48.36.075.72.105 1.08.135.825.075 1.5.48 2.13.945zm-.87 1.47c.21-.24.105-.645-.15-.81-.51-.315-1.05-.435-1.53-.405-1.005-.015-1.095.12-.765.975.18.48.975 1.02 1.47.975.105-.015.225-.03.3-.09.225-.21.465-.405.675-.645z"/><path d="m79.1495 17.98c-.06.225-.18.435-.195.66 0 1.29-.0299 2.58-.0299 3.885 0 .165.1649.315.2249.495.135.42-.1199.855-.5399.975-.435.12-1.065-.255-1.08-.735-.015-.915 0-1.83.045-2.745.03-.585.195-1.155.24-1.74.045-.6.03-1.215.045-1.83 0-.555.015-1.08.225-1.62.18-.495.18-1.065-.03-1.605-.135-.39.1199-.705.5249-.765.345-.06.66.135.66.45.015.735 0 1.455 0 2.535.015.42.015.855 0 1.275 0 .255-.03.51-.09.765z"/><path d="m74.1089 19.345c.75.57 1.035 1.38 1.02 2.31v.945c-.015.225-.24.465-.495.48-.345.03-.63-.195-.6-.54.03-.36-.03-.72-.03-1.08.015-.66-.255-1.08-.765-1.425-.72-.495-1.455-.465-1.905.255-.3.48-.675.93-.765 1.53-.03.255-.12.51-.195.75-.06.21-.435.39-.645.36-.315-.06-.45-.375-.465-.66-.03-.405-.03-.825-.03-1.23-.015-.345.06-.705.135-1.065.06-.24.135-.48.195-.705.105-.42.345-.51.825-.27.18.09.3.285.54.12.255-.165.525-.33.795-.495.39-.225.78-.225 1.185.03.375.255.825.42 1.2.69z"/><path d="m67.1728 17.125c.27.105.525.48.465.72-.345 1.305-.675 2.61-1.08 3.9-.165.51-.54.945-.855 1.395-.09.135-.285.24-.435.27-.66.12-1.275.105-1.71-.6-.27-.48-.63-.9-.96-1.32-.21-.27-.345-.27-.57-.03-.405.435-.81.9-1.23 1.32-.375.375-.87.36-1.26-.015-.18-.165-.33-.36-.51-.525-.54-.525-.885-1.155-.78-1.98.015-.12 0-.24 0-.375h.015c0-.3-.03-.63.015-.93.015-.135.195-.315.315-.33.135-.015.315.12.435.225.3.285.225.69.24 1.065.015.45.15.825.435 1.185.375.465.54.48.945-.015.3-.375.54-.795.825-1.185.18-.255.375-.48.585-.705.27-.285.645-.255.915.09.18.24.435.495.465.765.075.54.405.885.675 1.29.48.735.78.72 1.155-.105.375-.84.51-1.77.69-2.67.09-.435.255-.825.435-1.215.105-.24.495-.33.78-.225z"/><path d="m56.158 19.375c.36.27.495.66.48 1.11-.015.63-.3 1.095-.66 1.56-.285.375-.705.39-1.11.525-.54.195-1.02.06-1.5-.105-.54-.18-1.05-.48-1.35-1.02-.24-.405-.42-.93-.45-1.44-.03-.435.06-.87.33-1.23.27-.345.57-.57 1.05-.48.36.075.72.105 1.08.135.825.075 1.5.48 2.13.945zm-.87 1.47c.21-.24.105-.645-.15-.81-.51-.315-1.05-.435-1.53-.405-1.005-.015-1.095.12-.765.975.18.48.975 1.02 1.47.975.105-.015.225-.03.3-.09.225-.21.465-.405.675-.645z"/><path d="m44.3251 21.19c.09-.6-.42-1.245-.105-1.815.075-.135.09-.36.045-.495-.33-.81.12-1.65.06-2.49-.015-.15-.06-.33-.135-.465-.18-.315-.345-.66-.075-.93.36-.36.81-.615 1.365-.435 1.11.375 2.145.93 3.075 1.635 1.32.99 1.68 2.235 1.26 3.84-.045.21-.075.435-.105.66-.03.36-.21.615-.435.87-.9 1.005-2.085 1.515-3.285 1.965-.765.3-1.605-.33-1.665-1.17-.03-.39 0-.78 0-1.17zm1.2-2.25c.03.795.24 1.59-.045 2.265.015.3.015.495.03.675.015.24.27.465.495.405.21-.075.435-.15.645-.255 1.395-.735 1.875-.72 1.83-2.595-.015-.24.21-.51.15-.705-.225-.645-.45-1.305-1.065-1.68-.615-.36-1.215-.75-1.83-1.11-.045-.015-.21.09-.225.165-.045.18-.045.375-.045.57.015.75.015 1.515.06 2.265z"/></g></svg>