<svg width="97" height="31" viewBox="0 0 97 31" fill="none" xmlns="http://www.w3.org/2000/svg">
<path d="M38.3909 30.4934C30.2906 30.458 20.2858 27.588 15.8167 26.4322C13.0044 25.7047 11.0564 24.1788 9.7757 22.1375L9.52783 21.7228L9.3782 21.4426C8.91599 20.5284 8.72527 19.6351 8.64448 18.9332C6.6975 17.9576 5.11091 16.9526 3.88609 16.0594C0.959489 13.9251 0.609728 10.6136 0.52215 9.38807C0.426058 8.04312 0.622843 6.33383 1.50646 4.73269C2.32707 3.24587 3.53812 2.49174 4.26467 2.13355C5.00969 1.76629 5.73975 1.5721 6.27655 1.45607C7.35659 1.22266 8.68258 1.09573 10.1606 1.00655C13.1904 0.823761 18.0009 0.744004 25.4047 0.688873C37.1284 0.60158 57.3629 0.47914 68.3212 0.503028C75.556 0.518824 80.4506 1.08151 84.0223 2.00905C87.8053 2.99149 89.9199 4.34062 91.5172 5.45961C94.7885 7.75129 96.043 10.6394 96.4054 12.856C97.0326 16.6929 94.3795 19.0007 93.1974 19.8295C92.7399 20.1503 92.2365 20.4441 91.7047 20.7194C90.7032 22.1702 89.046 23.1198 87.169 23.1198C87.169 23.1199 86.5932 23.1285 85.2869 23.172C81.8961 24.2449 77.3658 25.5139 71.5706 27.106C65.1494 28.87 56.5579 29.4448 52.821 29.8928C47.6214 30.5162 43.5319 30.5158 38.3909 30.4934Z" fill="black" stroke="black" stroke-linecap="round"/>
<path fill-rule="evenodd" clip-rule="evenodd" d="M70.2933 9.38246C70.5272 9.22051 70.8333 9.29217 71.0853 9.3102C71.4451 9.32819 71.6615 9.77781 71.6077 10.1198C71.5717 10.3538 71.2475 10.6062 71.0315 10.6422C70.7257 10.6962 70.6719 10.7682 70.5999 11.0739C70.42 11.6497 70.5813 12.0999 70.7972 12.6217C70.8512 12.7657 70.9053 12.8922 70.9593 13.0182C71.3013 13.7742 71.5537 14.5841 71.8597 15.358C72.0397 15.808 72.2196 16.2763 72.3636 16.7623C72.5255 17.3023 72.6338 17.8964 72.5618 18.4723C72.5258 18.7784 72.3095 19.7138 71.9856 19.858C71.6616 20.002 71.2831 20.092 70.9231 20.11C70.5993 20.128 70.2935 20.0923 69.9876 20.0563C69.1236 19.9843 68.2594 19.9479 67.4134 19.9479C67.1074 19.9479 66.8191 19.9479 66.5491 19.8219C66.2793 19.7138 66.0639 19.4438 66.0999 19.1559C66.1361 18.7421 66.6215 18.5619 67.0355 18.4899C67.5035 18.4179 67.9899 18.4177 68.4759 18.4537C68.8537 18.4897 69.1239 18.5083 69.5198 18.4723C69.9517 18.4544 70.4201 18.5626 70.888 18.5446C71.0137 18.5445 71.104 18.5083 71.1399 18.4723C71.1758 18.4362 71.193 18.3461 71.1751 18.2204C71.1571 18.0224 71.1031 17.806 71.0491 17.608C71.0311 17.5361 71.0134 17.4456 70.9954 17.3737C70.9775 17.3018 70.9597 17.2121 70.9417 17.1403C70.9057 16.9423 70.8692 16.726 70.7972 16.528C70.6712 16.222 70.5451 15.8441 70.3831 15.5202C70.1851 15.1242 70.0417 14.6919 69.8978 14.278C69.7718 13.882 69.6455 13.4499 69.4476 13.0719C69.2677 12.73 69.3031 12.3523 69.2132 12.0104C69.1772 11.9204 69.1413 11.848 69.1233 11.776C68.9795 11.4162 69.1058 11.0743 69.2317 10.7145C69.2677 10.6605 69.285 10.5878 69.303 10.5338C69.501 9.97606 69.9334 9.63442 70.2933 9.38246ZM40.2249 8.42836C40.657 8.23063 41.7003 8.41009 41.8626 8.91371C41.9346 9.2017 42.2041 9.52583 41.8802 9.86781C41.6642 10.1018 41.376 10.2465 41.178 10.0485C40.9801 9.86863 40.4407 10.0479 40.3323 10.2457C40.2243 10.4437 40.0805 10.6421 39.9905 10.858C39.9185 11.074 39.9004 11.3081 39.8284 11.5241C39.7564 11.7581 39.6309 11.9565 39.5589 12.1725C39.4689 12.3885 39.3961 12.6046 39.3421 12.8385C39.1981 13.5764 39.0721 14.3322 38.9642 14.9801C39.0362 15.556 39.0001 16.3121 39.306 16.8161C39.558 17.2121 39.9366 17.446 40.2786 17.734C40.6386 18.058 40.9626 18.1838 41.4485 18.0758C41.7183 18.0039 41.8982 18.0402 42.0062 18.3278C42.2042 18.9398 41.808 19.4985 41.178 19.5885C40.6384 19.6424 40.3325 19.5879 39.7747 19.318C39.3067 19.066 39.0361 18.7245 38.6761 18.3825C38.2981 18.0045 37.938 17.5899 37.848 17.0319C37.722 16.3841 37.5242 15.7182 37.5062 15.0524C37.4702 14.2244 37.8121 13.504 37.8841 12.694C37.8841 12.6041 37.8843 12.4962 37.9202 12.3883C37.9562 12.2803 38.0283 12.1721 38.0823 12.0641C38.1723 11.8662 38.1181 11.7043 38.136 11.5065C38.154 11.3087 38.298 11.1283 38.388 10.9664C38.496 10.7685 38.5861 10.5521 38.6761 10.3541C38.7841 10.1381 38.8749 9.90412 39.0189 9.68813C39.1446 9.50828 39.1443 9.2922 39.306 9.09438C39.558 8.77037 39.8829 8.59036 40.2249 8.42836ZM27.4319 7.07777C27.54 6.98783 27.7562 6.97008 27.8821 7.02406C28.0621 7.11406 28.2065 7.31212 28.3685 7.43813C28.6199 7.61884 28.1162 9.14738 28.1878 9.48988C28.2238 9.6878 28.2781 9.7783 28.4759 9.76039C28.6018 9.76039 30.0404 9.63437 30.2757 9.59828C30.5096 9.5623 30.9775 9.86782 30.888 10.1198C30.87 10.2098 30.8163 10.2821 30.8343 10.3541C30.8523 10.3901 30.87 10.4262 30.888 10.4801C30.888 10.534 30.8341 10.5877 30.7982 10.6237C30.2043 11.1816 29.3585 11.0022 28.6565 11.236C28.5666 11.2719 28.4763 11.3082 28.3685 11.3082C28.3145 11.3082 28.2418 11.3078 28.1878 11.3258C28.0261 11.3799 28.0261 11.5959 28.0081 11.7399C27.9361 12.2439 27.792 12.7486 27.72 13.2526C27.5761 14.3323 27.4497 15.394 27.3597 16.4557C27.2877 17.1577 28.0257 17.6985 27.3597 18.3825C27.1977 18.5441 26.8923 18.616 26.6585 18.652C26.4065 18.688 26.3343 18.4541 26.2083 18.2741C25.8484 17.7522 25.9023 17.1763 25.8304 16.7623C25.8124 16.1144 25.8838 15.6282 25.9378 15.1422C25.9738 14.6562 26.1004 14.1698 26.2444 13.7018C26.2985 13.4853 26.3877 12.7479 26.4417 12.568C26.4957 12.37 26.5325 12.1537 26.5325 11.9557C26.532 11.8836 26.4055 11.7578 26.3157 11.7399C26.1898 11.722 26.0457 11.7406 25.9378 11.7946C25.6139 11.9205 25.2898 11.9743 24.93 11.9743C24.1382 12.0103 23.3644 12.2615 22.5726 12.2077C22.3746 12.1897 22.2839 12.1357 22.1399 11.9557C21.9244 11.6136 22.1586 10.9846 22.5364 10.8766C22.6983 10.8227 22.8599 10.8401 23.0218 10.858C23.3458 10.894 23.706 10.8041 24.012 10.7321C24.192 10.6961 24.9658 10.606 25.1819 10.57C25.5959 10.48 26.0283 10.3363 26.4603 10.2643C26.6582 10.2283 26.6944 10.1376 26.7483 9.95766C26.9282 9.30982 26.9103 8.64357 26.8743 7.99574C26.8565 7.52801 27.126 7.31171 27.4319 7.07777ZM45.3851 7.31215C45.6011 7.06024 46.0327 7.11444 46.1946 7.38441C46.3206 7.60038 46.4473 7.83406 46.5013 8.06801C46.6993 8.98601 46.9329 9.88647 46.9329 10.8405C46.9331 11.2182 47.239 11.3622 47.5628 11.2184C48.3008 10.9124 48.7694 10.3365 49.1653 9.67055C49.3453 9.38265 49.7225 9.40025 49.9925 9.65199C50.2805 9.90397 50.3529 10.2461 50.137 10.4801C49.813 10.8581 49.4527 11.2183 49.1107 11.5963C47.8868 12.8561 47.7253 12.5141 49.2552 13.7741C50.2991 14.638 51.1445 15.5745 51.7024 16.7985C51.8284 17.0685 51.6846 17.3925 51.3607 17.5905C51.1088 17.7342 50.8745 17.6984 50.6946 17.5006C50.5507 17.3747 50.4069 17.2123 50.3528 17.0504C50.1008 16.3304 49.6325 15.7185 49.0745 15.2145C48.8045 14.9805 48.4987 14.7459 48.1927 14.5299C47.9767 14.3858 47.5811 13.9723 47.2933 13.9899C46.8255 14.0259 46.9332 14.6735 46.9153 14.9977C46.8793 15.4656 46.8431 15.934 46.8431 16.402C46.8431 16.9059 46.8605 17.5358 46.8245 18.1657C46.8245 18.2917 46.5906 18.4539 46.4466 18.4899C46.2846 18.5258 45.9969 18.4723 45.9427 18.3825C45.7267 18.0045 45.4575 17.5723 45.4573 17.1764C45.5113 15.6284 45.1867 14.0437 45.6907 12.4957C45.9066 11.8298 45.6553 10.9478 45.5833 10.2819C45.5293 9.88607 45.4207 9.5263 45.4026 9.13051C45.3667 8.77063 45.3307 8.41048 45.1868 8.08656C45.1508 8.03256 45.1146 7.9599 45.1146 7.9059C45.0788 7.70794 45.2591 7.45608 45.3851 7.31215ZM63.3226 8.9684C63.4126 8.9504 63.5206 8.96811 63.6106 9.02211C63.9346 9.22013 64.1148 9.99415 64.1868 10.3541C64.2408 10.588 64.2587 10.8219 64.3665 11.0377C64.4745 11.2537 64.7087 11.4341 64.9427 11.3981C65.0686 11.3621 65.1771 11.2905 65.303 11.2545C65.6629 11.1287 66.0231 11.3442 66.347 11.5602C66.4729 11.6501 66.5987 11.7402 66.6526 11.902C66.7246 12.1539 66.4368 12.3879 66.1849 12.442C65.9149 12.496 65.6263 12.4604 65.3743 12.5504C64.9066 12.6946 64.6542 13.216 64.5462 13.7018C64.4202 14.2237 64.3848 14.7639 64.4388 15.2858C64.4928 15.8618 64.6723 16.4202 64.7083 16.9782C64.7263 17.4461 64.5826 18.004 64.1507 18.1481C63.7727 18.2561 63.3766 18.0038 63.1966 17.6618C63.0347 17.3198 63.0169 16.9238 63.0169 16.528C62.9989 15.7001 62.9988 14.8543 62.9808 14.0084C62.9808 13.8104 62.9627 13.612 62.8187 13.486C62.6027 13.3061 62.2786 13.486 62.0267 13.612C61.7027 13.7739 61.2163 13.8104 61.0003 13.5045C60.8203 13.2345 60.9465 12.8377 61.1985 12.6217C61.4505 12.4058 61.793 12.3156 62.0989 12.2077C62.4228 12.0997 62.7466 11.9379 62.9085 11.65C63.0705 11.326 62.9985 10.9119 62.9085 10.57C62.8005 10.2101 62.6926 9.83219 62.7825 9.4723C62.8545 9.25633 63.0706 9.02244 63.3226 8.9684ZM32.7864 13.2526C33.1284 12.8926 33.6148 12.9638 33.9388 13.2877C34.1187 13.4677 34.2262 13.738 34.2982 13.9899C34.5682 14.9259 34.839 15.8445 35.055 16.7985C35.1446 17.1942 34.8023 17.4287 34.4964 17.6266C34.1365 17.8424 33.7942 17.7339 33.5423 17.4459C32.8404 16.654 32.5169 15.6461 32.5169 14.6022C32.5169 14.1703 32.4807 13.5587 32.7864 13.2526ZM54.847 11.5241C56.287 10.5521 56.8092 10.5706 58.0872 11.6686C58.4109 11.957 58.5551 13.072 58.2855 13.3961C58.1595 13.5401 57.9606 13.6484 57.7806 13.7204C57.1509 13.9902 56.5212 14.206 55.9095 14.4938C55.6575 14.6018 55.4055 14.7465 55.2435 14.9625C54.7215 15.5925 56.2149 16.1499 56.6829 15.9879C57.0969 15.8259 57.5649 15.9337 58.0149 15.7897C58.2309 15.7357 58.5728 15.8264 58.7708 15.9704C58.9508 16.1143 59.1485 16.4379 59.1126 16.6539C59.0946 16.8699 58.8428 17.1761 58.6448 17.2301C58.1234 17.356 57.5659 17.3557 57.511 17.3737H56.1966C53.9469 17.3554 53.2093 15.4658 53.4612 13.8639C53.5513 13.342 53.7666 12.82 53.9466 12.3161C54.0186 12.1361 54.1635 11.9737 54.3255 11.8297C54.4695 11.704 54.6852 11.6319 54.847 11.5241ZM56.3948 12.4059C55.9629 12.316 55.6033 12.4786 55.3333 12.8385C55.2074 13.0005 55.2971 13.18 55.513 13.234C55.783 13.288 56.0353 13.2345 56.2513 13.0905C56.3953 13.0005 56.6473 12.7837 56.6653 12.6217C56.6651 12.5319 56.5925 12.4418 56.3948 12.4059ZM32.7864 8.53578C33.0923 8.4818 33.4522 8.55438 33.7581 8.68031C33.9561 8.77029 34.2084 9.14796 34.1546 9.27406C34.0466 9.56202 33.7586 9.79607 33.6146 9.94008C32.9487 10.0481 32.4091 9.65224 32.3909 9.09438C32.3729 8.89639 32.6064 8.55382 32.7864 8.53578Z" fill="white"/>
</svg>
