<svg width="97" height="31" viewBox="0 0 97 31" fill="none" xmlns="http://www.w3.org/2000/svg">
<path d="M38.3909 30.4934C30.2906 30.458 20.2858 27.588 15.8167 26.4322C13.0044 25.7047 11.0564 24.1788 9.7757 22.1375L9.52783 21.7228L9.3782 21.4426C8.91599 20.5284 8.72527 19.6351 8.64448 18.9332C6.6975 17.9577 5.11091 16.9526 3.88609 16.0594C0.959489 13.9251 0.609728 10.6136 0.52215 9.38807C0.426058 8.04312 0.622843 6.33383 1.50646 4.73269C2.32707 3.24587 3.53812 2.49174 4.26467 2.13355C5.00969 1.76629 5.73975 1.5721 6.27655 1.45607C7.35659 1.22266 8.68258 1.09573 10.1606 1.00656C13.1904 0.823763 18.0009 0.744006 25.4047 0.688875C37.1284 0.601582 57.3629 0.479142 68.3212 0.50303C75.556 0.518826 80.4506 1.08151 84.0223 2.00905C87.8053 2.99149 89.9199 4.34062 91.5172 5.45962C94.7885 7.7513 96.043 10.6394 96.4054 12.856C97.0326 16.6929 94.3795 19.0007 93.1974 19.8295C92.7399 20.1503 92.2365 20.4441 91.7047 20.7194C90.7032 22.1702 89.046 23.1198 87.169 23.1199C87.169 23.1199 86.5932 23.1285 85.2869 23.172C81.8961 24.2449 77.3658 25.5139 71.5706 27.106C65.1494 28.87 56.5579 29.4448 52.821 29.8928C47.6214 30.5162 43.5319 30.5158 38.3909 30.4934Z" fill="white" stroke="black" stroke-linecap="round"/>
<path fill-rule="evenodd" clip-rule="evenodd" d="M70.2935 9.38229C70.5274 9.22049 70.8335 9.29203 71.0854 9.31003C71.4452 9.32836 71.6609 9.77871 71.6069 10.1206C71.5706 10.3545 71.2466 10.6061 71.0308 10.6421C70.7251 10.696 70.6711 10.7682 70.5991 11.0737C70.4191 11.6497 70.5814 12.1005 70.7974 12.6225C70.8513 12.7663 70.9055 12.8922 70.9595 13.018C71.3014 13.7739 71.5529 14.584 71.8589 15.3579C72.0389 15.8079 72.2188 16.2762 72.3628 16.7622C72.5248 17.3022 72.633 17.8961 72.561 18.4721C72.525 18.7781 72.3089 19.7139 71.9849 19.8579C71.661 20.0018 71.2832 20.0918 70.9233 20.1098C70.5993 20.1278 70.2928 20.0921 69.9868 20.0561C69.1229 19.9841 68.2585 19.9477 67.4126 19.9477C67.1068 19.9477 66.8192 19.9476 66.5493 19.8217C66.2793 19.7137 66.0631 19.4437 66.0991 19.1557C66.1354 18.7421 66.6209 18.5617 67.0347 18.4897C67.5027 18.4177 67.9891 18.4186 68.4751 18.4546C68.853 18.4906 69.1231 18.5081 69.519 18.4721C69.951 18.4541 70.4192 18.5624 70.8872 18.5444C71.0131 18.5444 71.1032 18.5081 71.1392 18.4721C71.1751 18.4361 71.1933 18.3461 71.1753 18.2202C71.1573 18.0222 71.1033 17.8059 71.0493 17.6079C71.0313 17.536 71.0126 17.4464 70.9946 17.3745C70.9766 17.3025 70.9589 17.2121 70.9409 17.1401C70.9049 16.9421 70.8694 16.7258 70.7974 16.5278C70.6714 16.2218 70.5453 15.8439 70.3833 15.52C70.1853 15.124 70.041 14.6918 69.897 14.2778C69.771 13.8819 69.6447 13.4496 69.4468 13.0717C69.2671 12.7299 69.3033 12.352 69.2134 12.0102C69.1774 11.9202 69.1406 11.8478 69.1226 11.7758C68.9788 11.4161 69.105 11.0741 69.231 10.7143C69.267 10.6603 69.2852 10.5877 69.3032 10.5337C69.5013 9.97595 69.9336 9.63422 70.2935 9.38229ZM40.2241 8.42819C40.6562 8.23029 41.6998 8.41057 41.8618 8.91452C41.9339 9.20244 42.2043 9.52675 41.8804 9.86862C41.6645 10.1025 41.3762 10.246 41.1782 10.0483C40.9802 9.86831 40.4395 10.0486 40.3315 10.2466C40.2236 10.4443 40.0797 10.6421 39.9897 10.8579C39.9178 11.0738 39.8996 11.3079 39.8276 11.5239C39.7556 11.7579 39.6301 11.9563 39.5581 12.1723C39.4681 12.3883 39.3963 12.6044 39.3423 12.8383C39.1983 13.5762 39.0723 14.332 38.9644 14.9799C39.0364 15.5559 39.0002 16.3119 39.3062 16.8159C39.5581 17.2118 39.9359 17.4459 40.2778 17.7339C40.6378 18.0578 40.9619 18.1845 41.4478 18.0766C41.7178 18.0046 41.8983 18.0406 42.0063 18.3286C42.2039 18.9403 41.8079 19.4983 41.1782 19.5883C40.6382 19.6423 40.3319 19.5878 39.7739 19.3178C39.3061 19.0659 39.0361 18.7242 38.6763 18.3823C38.2983 18.0043 37.9381 17.5897 37.8481 17.0317C37.7221 16.3839 37.5244 15.7181 37.5063 15.0522C37.4703 14.2242 37.8123 13.5038 37.8843 12.6938C37.8843 12.6039 37.8845 12.496 37.9204 12.3882C37.9564 12.2802 38.0276 12.1719 38.0815 12.0639C38.1715 11.866 38.1183 11.7042 38.1362 11.5063C38.1542 11.3083 38.2982 11.1283 38.3882 10.9663C38.4962 10.7683 38.5863 10.552 38.6763 10.354C38.7842 10.138 38.8741 9.90387 39.0181 9.68796C39.1439 9.50799 39.1442 9.29214 39.3062 9.09421C39.5581 8.77025 39.8821 8.59018 40.2241 8.42819ZM27.4312 7.07858C27.5391 6.98866 27.7553 6.97006 27.8813 7.02389C28.0613 7.11388 28.2057 7.31195 28.3677 7.43796C28.6196 7.6179 28.1164 9.14705 28.188 9.48971C28.224 9.68771 28.2781 9.77822 28.4761 9.76022C28.6051 9.75992 30.0422 9.63407 30.2759 9.59811C30.51 9.56238 30.9772 9.86867 30.8872 10.1206C30.8691 10.2103 30.8157 10.2822 30.8335 10.354C30.8515 10.3899 30.8692 10.4261 30.8872 10.4799C30.8872 10.5339 30.8334 10.5885 30.7974 10.6245C30.2034 11.1821 29.3576 11.002 28.6558 11.2358C28.5658 11.2718 28.4757 11.3081 28.3677 11.3081C28.3137 11.3081 28.242 11.3087 28.188 11.3266C28.0261 11.3806 28.0253 11.5957 28.0073 11.7397C27.9353 12.2437 27.7912 12.7484 27.7192 13.2524C27.5753 14.3323 27.4499 15.3946 27.3599 16.4565C27.2881 17.1583 28.0257 17.6984 27.3599 18.3823C27.1979 18.5443 26.8917 18.6158 26.6577 18.6518C26.4057 18.6878 26.3335 18.4539 26.2075 18.2739C25.8477 17.752 25.9016 17.1761 25.8296 16.7622C25.8116 16.1142 25.884 15.6281 25.938 15.1421C25.974 14.6562 26.0997 14.1704 26.2437 13.7026C26.2977 13.4866 26.3879 12.7478 26.4419 12.5678C26.4958 12.3701 26.5317 12.1543 26.5317 11.9565C26.5317 11.8846 26.4059 11.7579 26.3159 11.7397C26.19 11.7217 26.046 11.7405 25.938 11.7944C25.614 11.9204 25.2892 11.9741 24.9292 11.9741C24.1374 12.0102 23.3636 12.2624 22.5718 12.2085C22.3738 12.1905 22.2832 12.1365 22.1392 11.9565C21.9232 11.6145 22.1577 10.9845 22.5356 10.8764C22.6976 10.8224 22.86 10.8399 23.022 10.8579C23.3458 10.8938 23.7054 10.8039 24.0112 10.7319C24.1911 10.6959 24.9646 10.6058 25.1812 10.5698C25.5951 10.4798 26.0275 10.3361 26.4595 10.2641C26.6574 10.2281 26.6936 10.1383 26.7476 9.95846C26.9275 9.3106 26.9095 8.64442 26.8735 7.99655C26.8555 7.52881 27.1254 7.31243 27.4312 7.07858ZM45.3843 7.31198C45.6003 7.06001 46.0328 7.11426 46.1948 7.38425C46.3207 7.60009 46.4465 7.83402 46.5005 8.06784C46.6985 8.98584 46.9321 9.8863 46.9321 10.8403C46.9322 11.218 47.2382 11.3619 47.562 11.2182C48.3 10.9122 48.7686 10.3363 49.1646 9.67038C49.3445 9.38238 49.7227 9.39984 49.9927 9.65182C50.2807 9.90382 50.3522 10.2459 50.1362 10.4799C49.8123 10.8579 49.4528 11.2182 49.1108 11.5962C47.8869 12.8561 47.7245 12.514 49.2544 13.7739C50.2984 14.6379 51.1446 15.5743 51.7026 16.7983C51.8284 17.0682 51.6846 17.3923 51.3608 17.5903C51.109 17.7342 50.8748 17.6981 50.6948 17.5005C50.5508 17.3745 50.4061 17.2123 50.3521 17.0503C50.1001 16.3304 49.6326 15.7183 49.0747 15.2143C48.8047 14.9804 48.4988 14.7457 48.1929 14.5298C47.9769 14.3858 47.5805 13.9718 47.2925 13.9897C46.8245 14.0257 46.9326 14.6745 46.9146 14.9985C46.8786 15.4663 46.8423 15.934 46.8423 16.4018C46.8423 16.9058 46.8607 17.5365 46.8247 18.1665C46.8243 18.2923 46.5907 18.4535 46.4468 18.4897C46.285 18.5257 45.9974 18.4721 45.9429 18.3823C45.7269 18.0043 45.4566 17.5722 45.4565 17.1762C45.5105 15.6284 45.1862 14.0444 45.6899 12.4966C45.9059 11.8306 45.6545 10.9477 45.5825 10.2817C45.5285 9.88594 45.4209 9.52612 45.4028 9.13034C45.3668 8.77037 45.33 8.41037 45.186 8.08639C45.15 8.03239 45.1147 7.95973 45.1147 7.90573C45.079 7.70778 45.2584 7.4559 45.3843 7.31198ZM63.3218 8.96823C63.4117 8.95025 63.5199 8.96807 63.6099 9.02194C63.9338 9.21991 64.114 9.9939 64.186 10.354C64.24 10.588 64.2577 10.8225 64.3657 11.0385C64.4737 11.2544 64.708 11.4338 64.9419 11.3979C65.0679 11.3619 65.1762 11.2904 65.3022 11.2544C65.6622 11.1284 66.0222 11.344 66.3462 11.56C66.4721 11.65 66.5978 11.7401 66.6519 11.9018C66.7239 12.1538 66.4361 12.3879 66.1841 12.4419C65.9142 12.4958 65.6264 12.4604 65.3745 12.5503C64.9065 12.6943 64.6544 13.2166 64.5464 13.7026C64.4205 14.2245 64.384 14.7647 64.438 15.2866C64.492 15.8624 64.6725 16.4202 64.7085 16.978C64.7265 17.446 64.5819 18.0039 64.1499 18.1479C63.772 18.2558 63.3758 18.0044 63.1958 17.6626C63.0338 17.3206 63.0161 16.9238 63.0161 16.5278C62.9981 15.7 62.998 14.8541 62.98 14.0083C62.98 13.8103 62.9619 13.6118 62.8179 13.4858C62.6019 13.3062 62.2778 13.4858 62.0259 13.6118C61.702 13.7737 61.2166 13.81 61.0005 13.5044C60.8206 13.2345 60.946 12.8386 61.1978 12.6225C61.4497 12.4065 61.7922 12.3165 62.0981 12.2085C62.4221 12.1005 62.7457 11.9379 62.9077 11.6499C63.0697 11.3259 62.9977 10.9118 62.9077 10.5698C62.7998 10.2099 62.6918 9.83197 62.7817 9.47214C62.8537 9.25623 63.0699 9.02237 63.3218 8.96823ZM32.7856 13.2524C33.1276 12.8924 33.614 12.9645 33.938 13.2885C34.1178 13.4685 34.2264 13.7379 34.2983 13.9897C34.5683 14.9257 34.8382 15.8443 35.0542 16.7983C35.144 17.1942 34.8016 17.4285 34.4956 17.6264C34.1358 17.8421 33.7944 17.7336 33.5425 17.4458C32.8405 16.6538 32.5161 15.646 32.5161 14.602C32.5161 14.1702 32.48 13.5585 32.7856 13.2524ZM54.8462 11.5239C56.2862 10.5519 56.8084 10.5704 58.0864 11.6684C58.4103 11.9565 58.5545 13.0718 58.2847 13.396C58.1587 13.5399 57.9607 13.6482 57.7808 13.7202C57.1508 13.9902 56.5207 14.2066 55.9087 14.4946C55.6567 14.6026 55.4047 14.7464 55.2427 14.9624C54.7209 15.5922 56.2139 16.1495 56.6821 15.9878C57.096 15.8258 57.5643 15.9343 58.0142 15.7905C58.2302 15.7365 58.573 15.8262 58.771 15.9702C58.9508 16.1142 59.1485 16.4379 59.1128 16.6538C59.0948 16.8696 58.8429 17.1756 58.645 17.2299C58.123 17.3559 57.5643 17.3565 57.5103 17.3745H56.1968C53.9468 17.3565 53.2085 15.4657 53.4605 13.8637C53.5505 13.3419 53.7668 12.8198 53.9468 12.3159C54.0188 12.136 54.1628 11.9744 54.3247 11.8305C54.4687 11.7046 54.6842 11.6318 54.8462 11.5239ZM56.395 12.4057C55.963 12.3157 55.6025 12.4783 55.3325 12.8383C55.2067 13.0002 55.2965 13.1798 55.5122 13.2339C55.7822 13.2878 56.0345 13.2342 56.2505 13.0903C56.3944 13.0004 56.6462 12.7845 56.6646 12.6225C56.6646 12.5326 56.5927 12.4418 56.395 12.4057ZM32.7856 8.53659C33.0916 8.48259 33.4523 8.55414 33.7583 8.68014C33.9562 8.77031 34.2076 9.14781 34.1538 9.27389C34.0458 9.56189 33.7578 9.79591 33.6138 9.93991C32.9479 10.0478 32.4082 9.65211 32.3901 9.09421C32.3722 8.89636 32.6057 8.55507 32.7856 8.53659Z" fill="black"/>
</svg>
