<svg width="327" height="81" viewBox="0 0 327 81" fill="none" xmlns="http://www.w3.org/2000/svg">
<path d="M325.962 24.681C327.286 25.5867 327.356 27.5375 326.102 28.3736C324.708 29.2096 322.897 29.0703 321.573 30.1153C320.18 31.1604 319.692 32.9718 319.274 34.5743C318.577 37.6398 317.462 40.566 316.417 43.5618C316.069 44.6766 314.606 45.5823 313.631 45.4429C312.516 45.3036 311.262 44.1889 311.122 43.0741C310.983 41.611 310.983 40.148 310.844 37.0824C310.704 36.1767 311.331 34.1562 313.422 32.2751C315.372 30.5334 316.557 28.0252 318.159 25.9351C319.831 23.7056 322.2 23.4966 324.708 23.9843C325.196 24.054 325.544 24.472 325.962 24.681Z" fill="black"/>
<path d="M303.374 47.8118C303.722 49.3445 302.398 50.2502 301.214 51.0166C299.82 51.8527 298.497 51.4346 297.521 50.3199C294.804 47.2544 293.55 43.3528 293.55 39.3119C293.55 37.6398 293.411 35.271 294.595 34.0866C295.919 32.6931 297.8 32.9718 299.054 34.2259C299.751 34.9226 300.169 35.9677 300.448 36.9431C301.493 40.566 302.538 44.1192 303.374 47.8118ZM297.8 21.2671C295.222 21.6851 293.132 20.1524 293.062 17.9926C292.993 17.2262 293.898 15.9024 294.595 15.8328C295.78 15.6238 297.173 15.9024 298.357 16.3901C299.124 16.7385 300.099 18.2016 299.89 18.6893C299.472 19.804 298.357 20.7097 297.8 21.2671Z" fill="black"/>
<path d="M283.778 21.4064C284.753 21.6155 285.172 24.263 284.335 24.9597C283.987 25.2383 283.499 25.6564 283.081 25.6564C281.2 25.726 279.319 25.4474 277.508 25.726C274.512 26.2834 272.004 27.6768 270.819 30.7424C270.401 31.9964 270.471 33.0415 271.377 33.5292C272.491 34.2259 273.745 34.7833 274.86 35.48C279.528 38.1972 281.2 43.6315 279.11 48.5085C277.786 51.5043 275.557 53.7338 272.909 55.6149C271.168 56.9386 267.754 56.3116 266.36 54.6395C264.758 52.7584 265.594 49.2748 267.963 48.7175C269.217 48.3691 270.61 48.5781 271.864 48.3691C274.094 47.9511 275.418 45.4429 274.373 43.5618C273.745 42.4471 273.049 41.2627 272.073 40.357C270.75 39.1029 269.147 38.1972 267.754 36.8734C264.479 33.8079 264.34 29.767 267.266 26.2834C270.401 22.6605 274.164 20.5007 280.852 20.9187C280.713 20.9187 282.245 21.1278 283.778 21.4064ZM255.283 30.6727C256.537 30.812 257.094 31.6481 257.164 32.8325C257.233 33.8776 257.164 34.9226 257.164 35.9677C257.373 40.566 255.77 44.7462 254.516 49.0658C254.238 49.7625 253.889 50.5986 253.332 51.0166C252.775 51.4346 251.799 51.574 251.102 51.365C250.545 51.2256 249.988 50.5289 249.639 49.9019C249.361 49.4839 249.361 48.8568 249.43 48.3691C250.545 42.9348 251.59 37.5004 252.775 32.1358C253.053 30.9514 254.168 30.603 255.283 30.6727ZM253.123 11.9312C255.074 10.8861 256.537 11.5132 257.233 13.464C257.442 13.9516 257.303 14.509 257.303 16.0418C257.303 16.1114 257.233 17.1565 257.024 18.2016C256.467 20.5704 252.705 21.7548 250.963 19.9434C249.152 18.2016 251.033 13.1156 253.123 11.9312Z" fill="black"/>
<path d="M241.47 49.6929C241.54 49.9019 241.54 50.1109 241.47 50.3896C241.331 51.2256 240.704 52.1313 240.007 52.4797C238.614 53.2461 236.524 52.8281 235.966 51.8527C235.061 50.1806 234.155 48.5085 234.085 46.488C234.085 45.5823 233.737 44.5372 233.179 43.7708C232.901 43.3528 231.856 42.8651 231.507 43.0741C230.184 43.7012 229.139 44.6766 227.884 45.4429C227.048 46.0003 226.212 46.488 225.237 46.697C220.081 48.0208 215.553 43.5618 216.667 38.2668C216.807 37.5701 217.085 36.8734 217.364 36.2464C219.176 32.4145 221.893 29.4883 225.725 27.5375C229.487 25.5867 232.761 26.7014 235.827 28.9309C236.454 29.4186 236.872 30.603 236.802 31.5087C236.593 35.2013 237.29 38.6848 238.474 42.1684C239.101 43.9798 240.007 45.6519 240.774 47.4634C241.052 48.1601 241.331 48.9265 241.47 49.6929ZM229.835 36.8037C230.393 36.2464 232.552 34.2956 232.413 33.1112C232.343 32.6931 232.065 32.3448 231.298 32.2054C226.77 31.2997 222.589 34.4349 222.102 39.1725C221.893 40.775 223.704 41.2627 224.958 40.984C226.839 40.566 228.581 38.0578 229.835 36.8037Z" fill="black"/>
<path d="M205.446 24.89C205.167 25.9351 204.61 26.9105 204.54 27.9555C204.54 33.9472 204.401 39.9389 204.401 46.0003C204.401 46.7667 205.167 47.4634 205.446 48.2995C206.073 50.2503 204.889 52.2707 202.938 52.8281C200.917 53.3854 197.991 51.6437 197.922 49.4142C197.852 45.1643 197.922 40.9143 198.131 36.6644C198.27 33.9472 199.036 31.2997 199.245 28.5826C199.454 25.7957 199.385 22.9392 199.454 20.0827C199.454 17.5049 199.524 15.0664 200.499 12.5583C201.336 10.2591 201.336 7.61161 200.36 5.10346C199.733 3.29201 200.917 1.82892 202.799 1.55024C204.401 1.27155 205.864 2.17727 205.864 3.64036C205.934 7.05424 205.864 10.3984 205.864 15.4148C205.934 17.3655 205.934 19.386 205.864 21.3368C205.864 22.5212 205.725 23.7056 205.446 24.89Z" fill="black"/>
<path d="M178.622 22.2812C183.22 22.4205 188.446 27.9942 186.355 34.4039C186.216 34.8916 185.937 35.3793 185.589 35.7973C181.757 40.5349 176.95 43.2521 170.819 43.5308C169.983 43.6005 169.147 43.6701 168.311 43.6005C163.573 43.2521 162.807 44.6455 164.27 49.6618C164.479 50.4282 164.966 51.1249 165.175 51.8913C165.872 54.6782 165.245 56.838 163.782 56.7683C161.762 56.6289 161.065 55.2355 160.368 53.6331C158.069 47.8504 156.954 41.789 157.094 33.6375C157.094 34.1949 157.094 33.4982 157.094 32.8015C157.094 30.2933 156.954 27.8548 159.044 25.904C161.344 23.8139 163.921 22.2812 167.057 22.2812C170.958 22.2115 174.79 22.1418 178.622 22.2812ZM180.503 33.0105C181.409 31.7564 181.479 30.4327 180.503 29.3876C179.319 28.2032 178.065 27.0885 176.253 27.0885C173.536 27.0885 170.749 27.0188 168.032 27.2278C163.852 27.5761 161.344 31.1294 162.249 35.449C162.389 36.076 163.155 36.8424 163.782 36.9817C165.385 37.3301 167.057 37.3301 168.659 37.4694C173.188 37.4694 177.507 36.9817 180.503 33.0105ZM157.094 33.3588V33.6375C157.094 33.5679 157.094 33.4285 157.094 33.3588Z" fill="black"/>
<path d="M116.455 53.7338C117.222 56.1026 115.689 58.2624 113.25 58.6108C111.16 58.8198 109.976 58.6108 107.816 57.5657C106.005 56.5903 104.96 55.2666 103.566 53.9428C102.103 52.4797 100.71 50.8773 100.361 48.7175C99.8736 46.2093 99.1073 43.6315 99.0376 41.0537C98.8982 37.8488 100.222 35.062 100.501 31.9268C100.501 31.5784 100.501 31.1604 100.64 30.7424C100.779 30.3243 101.058 29.9063 101.267 29.4883C101.615 28.7219 101.406 28.0949 101.476 27.3285C101.546 26.5621 102.103 25.8654 102.451 25.2384C102.869 24.472 103.218 23.6359 103.566 22.8696C103.984 22.0335 104.333 21.1278 104.89 20.2917C105.378 19.595 105.378 18.759 106.005 17.9926C106.98 16.7385 108.234 16.0418 109.558 15.4148C111.23 14.6484 115.271 15.3451 115.898 17.2959C116.177 18.4106 117.222 19.6647 115.968 20.9884C115.132 21.8942 114.017 22.4515 113.25 21.6851C112.484 20.9884 110.394 21.6851 109.976 22.4515C109.558 23.2179 109.001 23.9843 108.652 24.8203C108.373 25.6564 108.304 26.5621 108.025 27.3982C107.746 28.3039 107.259 29.0703 106.98 29.9063C106.632 30.7424 106.353 31.5784 106.144 32.4841C105.587 35.3407 105.099 38.2668 104.681 40.775C104.96 43.0045 104.82 45.9306 106.005 47.8814C106.98 49.4142 108.443 50.3199 109.767 51.4347C111.16 52.6887 112.414 53.1764 114.296 52.7584C115.341 52.4797 116.037 52.6191 116.455 53.7338Z" fill="black"/>
<path d="M87.6873 44.6069C88.384 45.1643 89.1504 46.4183 89.0111 47.2544C88.9414 48.0904 87.966 49.2748 87.1996 49.4839C85.1792 49.9716 83.0194 49.9716 82.8104 50.0412C79.8145 50.0412 78.7694 50.0412 77.7244 50.0412C69.0155 49.9716 66.159 42.6561 67.1344 36.4554C67.4827 34.4349 68.3188 32.4145 69.0155 30.4637C69.2942 29.767 69.8516 29.1399 70.4786 28.5826C71.036 28.0949 71.872 27.8162 72.4991 27.3982C78.0727 23.6359 80.0932 23.7056 85.0398 27.9555C86.2939 29.0703 86.8513 33.3899 85.8062 34.6439C85.3185 35.2013 84.5521 35.6193 83.8554 35.898C81.4169 36.9431 78.9785 37.7791 76.6096 38.8939C75.6342 39.3119 74.6589 39.8693 74.0318 40.7053C72.0114 43.1438 77.7941 45.3036 79.6055 44.6766C81.2079 44.0495 83.0194 44.4675 84.7611 43.9102C85.5972 43.7012 86.921 44.0495 87.6873 44.6069ZM74.3802 32.4841C73.8925 33.1112 74.2408 33.8079 75.0769 34.0169C76.1219 34.2259 77.0973 34.0169 77.9334 33.4595C78.4908 33.1112 79.4662 32.2751 79.5358 31.6481C79.5358 31.2997 79.2571 30.9514 78.4908 30.812C76.8187 30.4637 75.4252 31.0907 74.3802 32.4841Z" fill="black"/>
<path d="M59.686 27.1195C59.9647 28.8612 58.9893 31.2997 57.6655 33.5292C55.227 37.4308 52.7189 41.3324 50.0714 45.0946C49.2353 46.1397 47.7722 46.7667 46.6575 47.6027C45.6821 48.2995 44.7067 48.5781 43.5223 47.9511C41.3625 46.906 39.4117 45.7913 37.9486 43.9102C34.047 39.0332 31.9569 33.4595 31.8872 27.2588C31.8176 26.2137 32.584 25.1687 33.1413 24.1933C33.5593 23.4269 34.7438 23.5663 35.3708 24.0539C36.5552 25.099 36.6249 26.4924 36.9036 27.9555C37.879 32.8325 39.8297 37.2218 43.3133 40.8447C44.2887 41.82 45.5428 41.7504 46.1001 40.566C48.678 35.1316 53.2066 30.7424 54.6697 24.681C54.9483 23.3572 56.0631 22.9392 57.3172 23.0786C58.6409 23.1482 59.2679 24.0539 59.477 25.308C59.477 25.5867 59.5466 25.8654 59.686 27.1195Z" fill="black"/>
<path d="M24.9732 49.6929C25.0429 49.9019 25.0429 50.1109 24.9732 50.3896C24.8339 51.2256 24.2068 52.1313 23.5101 52.4797C22.1167 53.2461 20.0266 52.8281 19.4692 51.8527C18.5635 50.1806 17.6577 48.5085 17.5881 46.488C17.5881 45.5823 17.2397 44.5372 16.6824 43.7708C16.4037 43.3528 15.3586 42.8651 15.0102 43.0741C13.6865 43.7012 12.6414 44.6766 11.3874 45.4429C10.5513 46.0003 9.71525 46.488 8.73986 46.697C3.58421 48.0208 -0.944407 43.5618 0.170328 38.2668C0.30967 37.5701 0.588354 36.8734 0.867038 36.2464C2.67848 32.4145 5.39565 29.4883 9.22756 27.5375C12.9898 25.5867 16.2643 26.7014 19.3298 28.9309C19.9569 29.4186 20.3749 30.603 20.3052 31.5087C20.0962 35.2013 20.7929 38.6848 21.9773 42.1684C22.6044 43.9798 23.5101 45.6519 24.2765 47.4634C24.5552 48.1601 24.8339 48.9265 24.9732 49.6929ZM13.3381 36.8037C13.8955 36.2464 16.0553 34.2956 15.916 33.1112C15.8463 32.6931 15.5676 32.3448 14.8012 32.2054C10.2726 31.2997 6.09236 34.4349 5.60466 39.1725C5.39565 40.775 7.2071 41.2627 8.46118 40.984C10.3423 40.566 12.0841 38.0578 13.3381 36.8037Z" fill="black"/>
<path d="M199.154 74.0786C199.557 74.3807 199.708 74.8171 199.691 75.3207C199.674 76.0256 199.356 76.546 198.953 77.0663C198.634 77.4859 198.164 77.5027 197.711 77.6538C197.106 77.872 196.569 77.7209 196.032 77.5363C195.428 77.3349 194.857 76.9992 194.521 76.3949C194.253 75.9417 194.051 75.3542 194.018 74.7835C193.984 74.2968 194.085 73.81 194.387 73.4072C194.689 73.0211 195.025 72.7693 195.562 72.87C195.965 72.954 196.368 72.9875 196.771 73.0211C197.694 73.105 198.449 73.5582 199.154 74.0786ZM198.181 75.7235C198.416 75.455 198.298 75.0018 198.013 74.8171C197.442 74.4646 196.838 74.3304 196.301 74.3639C195.176 74.3471 195.075 74.4982 195.445 75.455C195.646 75.9921 196.536 76.5963 197.09 76.546C197.207 76.5292 197.341 76.5124 197.425 76.4453C197.677 76.2103 197.946 75.9921 198.181 75.7235Z" fill="black"/>
<path d="M192.227 76.932C192.227 77.3349 192.378 77.9391 192.126 78.2916C192.008 78.4763 191.807 78.6273 191.622 78.6777C191.538 78.7112 191.287 78.493 191.27 78.3588C191.186 77.9056 191.102 77.4356 191.136 76.9656C191.203 76.311 191.001 75.7067 190.833 75.0857C190.733 74.75 190.531 74.5821 190.212 74.5653C189.86 74.5486 189.507 74.6157 189.373 75.0185C189.222 75.4046 189.121 75.7906 188.937 76.1599C188.685 76.6131 188.601 77.1838 188.114 77.4859C187.98 77.5699 187.779 77.637 187.661 77.6034C187.527 77.5531 187.359 77.3684 187.342 77.2174C187.275 76.8817 187.258 76.5292 187.275 76.1767C187.309 75.5557 186.956 75.0521 186.822 74.4982C186.721 74.1457 185.999 73.9946 185.63 74.1625C184.841 74.515 184.489 75.1864 184.438 75.9585C184.388 76.7306 184.187 77.4524 184.069 78.2077C184.019 78.5266 183.834 78.8455 183.717 79.1644C183.616 79.433 183.414 79.5673 183.179 79.4666C182.978 79.3659 182.726 79.1644 182.693 78.9798C182.458 77.4859 182.743 76.076 183.482 74.7668C183.683 74.3975 183.918 74.0618 184.17 73.7429C184.623 73.1722 185.227 72.8365 185.983 72.8197C186.469 72.8197 186.906 72.9372 187.241 73.3232C187.51 73.6422 187.812 73.9275 188.114 74.1961C188.181 74.2464 188.366 74.2632 188.433 74.2128C188.702 73.9946 188.97 73.7597 189.222 73.5079C189.558 73.1722 189.961 73.1722 190.363 73.2393C191.337 73.424 192.059 74.1625 192.159 75.136C192.227 75.6732 192.227 76.1935 192.227 76.7306C192.227 76.7978 192.227 76.8649 192.227 76.932Z" fill="black"/>
<path d="M180.547 77.2678C180.715 77.4021 180.9 77.7042 180.866 77.9056C180.849 78.107 180.614 78.3924 180.43 78.4427C179.943 78.5602 179.423 78.5602 179.372 78.577C178.651 78.577 178.399 78.577 178.147 78.577C176.049 78.5602 175.361 76.7978 175.596 75.3039C175.68 74.8172 175.881 74.3304 176.049 73.8604C176.116 73.6926 176.25 73.5415 176.401 73.4072C176.536 73.2897 176.737 73.2226 176.888 73.1219C178.231 72.2155 178.718 72.2323 179.909 73.2561C180.212 73.5247 180.346 74.5654 180.094 74.8675C179.977 75.0018 179.792 75.1025 179.624 75.1696C179.037 75.4214 178.449 75.6228 177.878 75.8914C177.643 75.9921 177.408 76.1264 177.257 76.3278C176.771 76.9153 178.164 77.4356 178.6 77.2846C178.986 77.1335 179.423 77.2342 179.842 77.0999C180.044 77.0496 180.363 77.1335 180.547 77.2678ZM177.341 74.3472C177.224 74.4982 177.308 74.6661 177.509 74.7165C177.761 74.7668 177.996 74.7164 178.197 74.5822C178.332 74.4982 178.567 74.2968 178.583 74.1458C178.583 74.0618 178.516 73.9779 178.332 73.9443C177.929 73.8604 177.593 74.0115 177.341 74.3472Z" fill="black"/>
<path d="M167.878 71.3187C167.811 71.5705 167.676 71.8055 167.659 72.0573C167.659 73.5008 167.626 74.9443 167.626 76.4046C167.626 76.5892 167.811 76.7571 167.878 76.9585C168.029 77.4285 167.743 77.9152 167.273 78.0495C166.787 78.1838 166.082 77.7642 166.065 77.2271C166.048 76.2032 166.065 75.1793 166.115 74.1554C166.149 73.5008 166.333 72.8629 166.384 72.2083C166.434 71.5369 166.417 70.8487 166.434 70.1605C166.434 69.5395 166.451 68.952 166.686 68.3477C166.887 67.7938 166.887 67.156 166.652 66.5517C166.501 66.1153 166.787 65.7628 167.24 65.6957C167.626 65.6286 167.978 65.8468 167.978 66.1993C167.995 67.0217 167.978 67.8274 167.978 69.0359C167.995 69.5059 167.995 69.9927 167.978 70.4627C167.978 70.748 167.945 71.0334 167.878 71.3187Z" fill="black"/>
<path d="M163.476 77.2941C163.492 77.3445 163.492 77.3949 163.476 77.462C163.442 77.6634 163.291 77.8816 163.123 77.9655C162.787 78.1502 162.284 78.0495 162.149 77.8145C161.931 77.4116 161.713 77.0088 161.696 76.522C161.696 76.3038 161.612 76.052 161.478 75.8674C161.411 75.7667 161.159 75.6492 161.075 75.6996C160.756 75.8506 160.505 76.0856 160.202 76.2703C160.001 76.4045 159.8 76.522 159.565 76.5724C158.322 76.8913 157.231 75.8171 157.5 74.5414C157.534 74.3735 157.601 74.2057 157.668 74.0546C158.104 73.1314 158.759 72.4265 159.682 71.9565C160.588 71.4865 161.377 71.7551 162.116 72.2922C162.267 72.4097 162.368 72.695 162.351 72.9132C162.301 73.8028 162.468 74.6421 162.754 75.4814C162.905 75.9178 163.123 76.3206 163.308 76.757C163.375 76.9249 163.442 77.1095 163.476 77.2941ZM160.672 74.1889C160.807 74.0546 161.327 73.5846 161.293 73.2993C161.277 73.1986 161.21 73.1147 161.025 73.0811C159.934 72.8629 158.927 73.6182 158.809 74.7596C158.759 75.1457 159.195 75.2632 159.497 75.196C159.951 75.0953 160.37 74.491 160.672 74.1889Z" fill="black"/>
<path d="M155.85 72.6279C155.9 72.9301 155.766 73.1315 155.514 73.2826C155.095 73.5343 154.675 73.7861 154.188 73.9036C153.987 73.954 153.752 74.0211 153.5 74.0379C153.198 74.0882 152.896 74.0882 152.661 74.0211C152.56 74.0043 152.459 73.954 152.375 73.9875C152.275 74.0211 152.224 74.1218 152.191 74.2057C151.989 74.7093 152.056 75.2968 152.375 75.7332C152.51 75.901 152.661 76.0521 152.862 76.1025C153.047 76.1528 153.248 76.1192 153.433 76.1025C153.752 76.0353 154.087 75.985 154.406 75.9346C154.591 75.9178 154.792 75.8842 154.977 75.9178C155.162 75.9514 155.346 76.0521 155.414 76.2367C155.497 76.4214 155.43 76.6564 155.279 76.8242C155.145 76.9753 154.944 77.0592 154.742 77.1431C154.222 77.3445 153.668 77.4453 153.114 77.3781C152.342 77.2606 151.62 76.7906 151.217 76.136C150.462 74.9275 150.965 73.4001 151.251 72.1244C151.352 71.6544 151.553 71.218 151.855 70.8319C152.14 70.4291 152.493 70.2109 152.98 70.2277C153.685 70.278 154.39 70.3452 154.977 70.7816C155.447 71.1341 155.783 71.5705 155.8 72.1747C155.8 72.3258 155.816 72.4769 155.85 72.6279ZM154.474 72.3929C154.675 72.2083 154.692 71.9733 154.49 71.8223C154.306 71.7048 154.121 71.5705 153.92 71.4698C153.299 71.2012 152.946 71.3187 152.678 71.923C152.627 72.0237 152.61 72.1244 152.577 72.2251C152.258 73.0308 152.543 73.0644 153.248 72.9469C153.685 72.9301 154.121 72.7454 154.474 72.3929ZM152.493 68.3477C152.124 68.6163 151.536 68.3477 151.435 67.8945C151.402 67.7603 151.385 67.5588 151.57 67.5085C152.258 67.2735 152.745 66.7364 153.332 66.3503C153.584 66.1825 153.802 65.981 154.071 65.8636C154.322 65.7461 154.591 65.7964 154.809 65.9475C155.027 66.0818 155.095 66.3335 154.977 66.7532C154.927 66.8203 154.843 67.0385 154.709 67.0889C153.903 67.4078 153.164 67.8274 152.493 68.3477Z" fill="black"/>
<path d="M148.819 71.2683C149.138 71.4865 149.154 71.9565 148.852 72.1579C148.517 72.3593 148.08 72.3258 147.761 72.5775C147.426 72.8293 147.308 73.2657 147.207 73.6518C147.039 74.3903 146.771 75.0953 146.519 75.817C146.435 76.0856 146.083 76.3038 145.848 76.2702C145.579 76.2367 145.277 75.9681 145.243 75.6996C145.21 75.3471 145.21 74.9946 145.176 74.256C145.143 74.0378 145.294 73.5511 145.797 73.0979C146.267 72.6782 146.553 72.074 146.939 71.5704C147.342 71.0333 147.912 70.9829 148.517 71.1004C148.634 71.1172 148.718 71.2179 148.819 71.2683Z" fill="black"/>
<path d="M143.49 70.1269C143.708 70.0933 144.145 70.3787 144.061 70.6137C144.044 70.6976 143.994 70.7647 144.01 70.8319C144.027 70.8654 144.044 70.899 144.061 70.9494C144.061 70.9997 144.01 71.0501 143.977 71.0837C143.423 71.604 142.634 71.4361 141.979 71.6543C141.895 71.6879 141.812 71.7215 141.711 71.7215C141.66 71.7215 141.593 71.7215 141.543 71.7383C141.392 71.7886 141.392 71.99 141.375 72.1243C141.308 72.5943 141.174 73.0643 141.107 73.5343C140.972 74.5414 140.855 75.5317 140.771 76.522C140.704 77.1766 141.392 77.6802 140.771 78.318C140.62 78.4691 140.334 78.5362 140.116 78.5698C139.881 78.6034 139.814 78.3852 139.697 78.2173C139.361 77.7305 139.411 77.1934 139.344 76.8074C139.327 76.2031 139.395 75.7499 139.445 75.2967C139.478 74.8435 139.596 74.3903 139.73 73.9539C139.781 73.7525 139.864 73.0643 139.915 72.8964C139.965 72.7118 139.999 72.5104 139.999 72.3257C139.999 72.2586 139.881 72.1411 139.797 72.1243C139.68 72.1075 139.546 72.1243 139.445 72.1747C139.143 72.2922 138.841 72.3425 138.505 72.3425C137.766 72.3761 137.045 72.6111 136.306 72.5607C136.121 72.544 136.037 72.4936 135.903 72.3257C135.702 72.0068 135.92 71.4194 136.272 71.3186C136.424 71.2683 136.575 71.2851 136.726 71.3019C137.028 71.3354 137.364 71.2515 137.649 71.1844C137.817 71.1508 138.538 71.0669 138.74 71.0333C139.126 70.9494 139.529 70.8151 139.932 70.7479C140.116 70.7144 140.15 70.6305 140.2 70.4626C140.368 69.8583 140.351 69.2373 140.318 68.633C140.301 68.1966 140.553 67.9952 140.838 67.777C140.939 67.6931 141.14 67.6763 141.258 67.7266C141.426 67.8106 141.56 67.9952 141.711 68.1127C141.946 68.2805 141.476 69.7073 141.543 70.0262C141.577 70.2108 141.627 70.2948 141.812 70.278C141.929 70.278 143.272 70.1605 143.49 70.1269Z" fill="black"/>
<path d="M134.207 72.8462C135.047 73.484 135.365 74.3904 135.349 75.4311C135.349 75.7836 135.349 76.136 135.349 76.4885C135.332 76.7403 135.08 77.0089 134.795 77.0257C134.409 77.0592 134.09 76.8074 134.123 76.4214C134.157 76.0185 134.09 75.6157 134.09 75.2129C134.107 74.4743 133.804 74.0043 133.234 73.6183C132.428 73.0644 131.606 73.0979 131.102 73.9036C130.766 74.4408 130.347 74.9443 130.246 75.6157C130.212 75.9011 130.112 76.1864 130.028 76.455C129.961 76.69 129.541 76.8914 129.306 76.8578C128.954 76.7907 128.803 76.4382 128.786 76.1193C128.752 75.6661 128.752 75.1961 128.752 74.7429C128.735 74.3568 128.819 73.954 128.903 73.5511C128.97 73.2826 129.054 73.014 129.121 72.7622C129.239 72.2923 129.507 72.1915 130.045 72.4601C130.246 72.5608 130.38 72.779 130.649 72.5944C130.934 72.4098 131.236 72.2251 131.538 72.0405C131.975 71.7887 132.411 71.7887 132.865 72.0741C133.284 72.3594 133.788 72.544 134.207 72.8462Z" fill="black"/>
<path d="M126.43 72.8796C126.832 73.1818 126.983 73.6182 126.967 74.1217C126.95 74.8267 126.631 75.347 126.228 75.8674C125.909 76.287 125.439 76.3038 124.986 76.4549C124.382 76.6731 123.845 76.522 123.307 76.3374C122.703 76.1359 122.133 75.8002 121.797 75.196C121.528 74.7428 121.327 74.1553 121.293 73.5846C121.26 73.0978 121.36 72.6111 121.663 72.2082C121.965 71.8222 122.3 71.5704 122.838 71.6711C123.24 71.755 123.643 71.7886 124.046 71.8222C124.969 71.9061 125.725 72.3593 126.43 72.8796ZM125.456 74.5246C125.691 74.256 125.573 73.8028 125.288 73.6182C124.717 73.2657 124.113 73.1314 123.576 73.165C122.451 73.1482 122.351 73.2993 122.72 74.256C122.921 74.7931 123.811 75.3974 124.365 75.347C124.482 75.3303 124.617 75.3135 124.701 75.2463C124.952 75.0113 125.221 74.7931 125.456 74.5246Z" fill="black"/>
<path d="M119.502 75.7331C119.502 76.1359 119.653 76.7402 119.401 77.0927C119.284 77.2773 119.082 77.4284 118.898 77.4787C118.814 77.5123 118.562 77.2941 118.545 77.1598C118.461 76.7066 118.377 76.2366 118.411 75.7667C118.478 75.112 118.277 74.5078 118.109 73.8867C118.008 73.551 117.807 73.3832 117.488 73.3664C117.135 73.3496 116.783 73.4168 116.649 73.8196C116.497 74.2057 116.397 74.5917 116.212 74.961C115.96 75.4142 115.876 75.9849 115.39 76.287C115.255 76.3709 115.054 76.4381 114.936 76.4045C114.802 76.3541 114.634 76.1695 114.618 76.0184C114.55 75.6827 114.534 75.3303 114.55 74.9778C114.584 74.3567 114.231 73.8532 114.097 73.2993C113.996 72.9468 113.275 72.7957 112.905 72.9636C112.117 73.316 111.764 73.9874 111.714 74.7596C111.663 75.5317 111.462 76.2534 111.344 77.0088C111.294 77.3277 111.109 77.6466 110.992 77.9655C110.891 78.2341 110.69 78.3684 110.455 78.2676C110.253 78.1669 110.002 77.9655 109.968 77.7809C109.733 76.287 110.018 74.8771 110.757 73.5678C110.958 73.1985 111.193 72.8628 111.445 72.5439C111.898 71.9732 112.503 71.6375 113.258 71.6208C113.745 71.6208 114.181 71.7382 114.517 72.1243C114.785 72.4432 115.088 72.7286 115.39 72.9971C115.457 73.0475 115.641 73.0643 115.709 73.0139C115.977 72.7957 116.246 72.5607 116.497 72.3089C116.833 71.9732 117.236 71.9732 117.639 72.0404C118.612 72.225 119.334 72.9636 119.435 73.9371C119.502 74.4742 119.502 74.9946 119.502 75.5317C119.502 75.5988 119.502 75.666 119.502 75.7331Z" fill="black"/>
<path d="M210.988 67.8944C211.054 67.8966 211.119 67.9018 211.183 67.9049C211.302 67.9001 211.412 67.8963 211.511 67.8956C211.601 67.8949 211.686 67.9168 211.763 67.9518C211.778 67.9536 211.794 67.9534 211.809 67.9553C212.03 67.9835 212.281 68.0285 212.471 68.1157C213.17 68.4355 213.593 68.7624 214.432 69.2853C214.711 69.4587 214.993 69.636 215.277 69.9094C215.562 70.1844 215.826 70.5359 216.124 71.0509C216.176 71.1407 216.237 71.2335 216.308 71.3401C216.376 71.4424 216.457 71.5616 216.533 71.6832C216.687 71.9295 216.852 72.228 216.947 72.5847C217.126 73.2536 217.303 74.142 216.645 75.1735C216.376 75.5958 216.051 76.1019 215.696 76.5504C215.349 76.988 214.923 77.4347 214.434 77.6802C214.042 77.8766 213.363 78.0174 212.69 78.0877C212 78.1597 211.204 78.1693 210.545 78.0408C209.779 77.8913 208.981 77.6887 208.282 77.2411C207.594 76.8008 207.13 76.4985 206.822 76.2401C206.479 75.9523 206.292 75.6863 206.17 75.3233C206.049 74.9642 205.877 74.263 205.783 73.5261C205.736 73.1551 205.708 72.7614 205.718 72.388C205.728 72.0222 205.776 71.6368 205.91 71.3038C206.341 70.231 206.62 69.4626 207.564 68.7971C207.664 68.6955 207.773 68.5919 207.893 68.495C208.207 68.2414 208.625 67.9985 209.137 67.9494C209.714 67.8941 210.396 67.8749 210.988 67.8944ZM211.166 69.1039C210.79 69.1216 210.32 69.165 209.852 69.2432C209.208 69.3508 208.656 69.513 208.341 69.7174C208.253 69.8121 208.172 69.9099 208.095 70.0042C207.583 70.631 207.503 71.0714 207.342 71.476C207.248 71.7105 207.184 71.9847 207.153 73.1175C207.145 73.4414 207.257 73.6194 207.612 74.3773C207.862 74.9093 208.157 75.36 208.394 75.6043C208.519 75.7325 208.697 75.8443 208.931 75.9509C209.173 76.0613 209.411 76.1394 209.688 76.2448C209.858 76.3094 210.046 76.3496 210.246 76.3794L210.867 76.4543L210.88 76.4555L210.892 76.4579C211.184 76.5048 211.686 76.5419 213.273 76.5492C213.427 76.5446 213.52 76.5382 213.582 76.5305C213.642 76.5231 213.682 76.5146 213.74 76.5024C213.844 76.4805 213.948 76.4891 214.043 76.5187C214.256 76.3724 214.497 76.1319 214.756 75.8057C215.067 75.4126 215.361 74.9563 215.634 74.5283C216.016 73.9291 215.941 73.4616 215.789 72.895C215.739 72.706 215.646 72.5243 215.518 72.3201C215.453 72.2167 215.386 72.1181 215.311 72.0052C215.238 71.8966 215.159 71.7765 215.087 71.6516C214.824 71.1971 214.624 70.9455 214.444 70.7723C214.263 70.5976 214.081 70.4806 213.798 70.304C212.857 69.7176 212.577 69.4831 211.971 69.2057C211.967 69.2041 211.942 69.1953 211.889 69.1835C211.83 69.1703 211.753 69.1571 211.656 69.1448C211.517 69.127 211.351 69.1137 211.166 69.1039Z" fill="black"/>
<path d="M208.761 71.4279C208.959 71.1632 209.334 71.1098 209.599 71.3085L209.744 71.4174C210.009 71.6162 210.062 71.9921 209.864 72.2569C209.665 72.5211 209.289 72.5738 209.024 72.3751L208.88 72.2662C208.615 72.0674 208.562 71.6926 208.761 71.4279Z" fill="black"/>
<path d="M212.349 71.1322C212.597 71.0609 212.851 71.1577 212.995 71.3535C213.104 71.4619 213.171 71.6118 213.171 71.7773C213.171 71.9458 213.1 72.0969 212.988 72.2058C212.987 72.2071 212.986 72.2096 212.981 72.214C212.975 72.2208 212.967 72.2298 212.957 72.2398C212.917 72.2807 212.856 72.3374 212.775 72.3978L212.658 72.4857L212.513 72.5091C212.288 72.5458 212.098 72.4654 211.982 72.3803C211.884 72.3093 211.681 72.1148 211.699 71.7984L211.718 71.6731C211.786 71.4045 212.007 71.277 212.06 71.2469C212.158 71.1916 212.267 71.1559 212.349 71.1322ZM212.572 72.3768C212.612 72.3768 212.649 72.3719 212.679 72.3662C212.644 72.3726 212.608 72.3768 212.572 72.3768ZM212.767 72.3416C212.746 72.349 212.725 72.3566 212.703 72.3615C212.709 72.3601 212.716 72.3595 212.722 72.358C212.738 72.3537 212.753 72.3465 212.767 72.3416ZM212.931 72.2538C212.951 72.2386 212.966 72.2278 212.971 72.2234C212.977 72.2177 212.982 72.2121 212.986 72.2082C212.969 72.2248 212.95 72.2394 212.931 72.2538Z" fill="black"/>
<path d="M209.052 75.4505C209.052 75.2538 209.116 74.9733 209.204 74.7187C209.296 74.4519 209.444 74.1232 209.665 73.8535L209.734 73.7786C209.9 73.6143 210.104 73.5249 210.276 73.4741C210.481 73.414 210.703 73.3893 210.916 73.384C211.236 73.376 211.583 73.4107 211.911 73.4741L212.231 73.5467L212.301 73.5655L212.365 73.6006C212.742 73.8057 213.089 74.0039 213.268 74.1474L213.294 74.1673L213.317 74.1907C213.453 74.3261 213.531 74.4765 213.613 74.6461C213.758 74.944 213.633 75.3026 213.335 75.447C213.037 75.5912 212.678 75.4672 212.534 75.1695C212.505 75.1104 212.486 75.0753 212.474 75.0536C212.374 74.9843 212.17 74.8613 211.861 74.6918C211.555 74.6179 211.222 74.5761 210.946 74.5829C210.798 74.5866 210.687 74.6027 210.615 74.6239C210.595 74.6296 210.583 74.6365 210.574 74.6403C210.485 74.758 210.4 74.9278 210.337 75.1098C210.305 75.203 210.282 75.2895 210.267 75.358C210.251 75.4351 210.251 75.4633 210.251 75.4505C210.251 75.7816 209.982 76.05 209.651 76.05C209.32 76.05 209.052 75.7816 209.052 75.4505Z" fill="black"/>
</svg>
