<svg width="212" height="53" viewBox="0 0 212 53" fill="none" xmlns="http://www.w3.org/2000/svg">
<path d="M210.698 14.9725C211.553 15.5575 211.598 16.8175 210.788 17.3575C209.888 17.8975 208.718 17.8075 207.863 18.4825C206.963 19.1575 206.648 20.3275 206.378 21.3625C205.928 23.3425 205.208 25.2325 204.533 27.1675C204.308 27.8875 203.363 28.4725 202.733 28.3825C202.013 28.2925 201.203 27.5725 201.113 26.8525C201.023 25.9075 201.023 24.9625 200.933 22.9825C200.843 22.3975 201.248 21.0925 202.598 19.8775C203.858 18.7525 204.623 17.1325 205.658 15.7825C206.738 14.3425 208.268 14.2075 209.888 14.5225C210.203 14.5675 210.428 14.8375 210.698 14.9725Z" fill="black"/>
<path d="M196.108 29.9125C196.333 30.9025 195.478 31.4875 194.713 31.9825C193.813 32.5225 192.958 32.2525 192.328 31.5325C190.573 29.5525 189.763 27.0325 189.763 24.4225C189.763 23.3425 189.673 21.8125 190.438 21.0475C191.293 20.1475 192.508 20.3275 193.318 21.1375C193.768 21.5875 194.038 22.2625 194.218 22.8925C194.893 25.2325 195.568 27.5275 196.108 29.9125ZM192.508 12.7675C190.843 13.0375 189.493 12.0475 189.448 10.6525C189.403 10.1575 189.988 9.30251 190.438 9.25751C191.203 9.12251 192.103 9.30251 192.868 9.61751C193.363 9.84251 193.993 10.7875 193.858 11.1025C193.588 11.8225 192.868 12.4075 192.508 12.7675Z" fill="black"/>
<path d="M183.451 12.8574C184.081 12.9924 184.351 14.7025 183.811 15.1524C183.586 15.3324 183.271 15.6025 183.001 15.6025C181.786 15.6475 180.571 15.4675 179.401 15.6475C177.466 16.0074 175.846 16.9075 175.081 18.8875C174.811 19.6975 174.856 20.3724 175.441 20.6874C176.161 21.1374 176.971 21.4975 177.691 21.9475C180.706 23.7025 181.786 27.2124 180.436 30.3624C179.581 32.2974 178.141 33.7374 176.431 34.9524C175.306 35.8074 173.101 35.4024 172.201 34.3224C171.166 33.1074 171.706 30.8575 173.236 30.4975C174.046 30.2725 174.946 30.4074 175.756 30.2724C177.196 30.0024 178.051 28.3824 177.376 27.1674C176.971 26.4474 176.521 25.6825 175.891 25.0975C175.036 24.2875 174.001 23.7025 173.101 22.8475C170.986 20.8675 170.896 18.2574 172.786 16.0074C174.811 13.6674 177.241 12.2725 181.561 12.5425C181.471 12.5425 182.461 12.6774 183.451 12.8574ZM165.046 18.8425C165.856 18.9325 166.216 19.4724 166.261 20.2375C166.306 20.9125 166.261 21.5875 166.261 22.2625C166.396 25.2325 165.361 27.9325 164.551 30.7225C164.371 31.1725 164.146 31.7124 163.786 31.9824C163.426 32.2524 162.796 32.3425 162.346 32.2075C161.986 32.1175 161.626 31.6675 161.401 31.2625C161.221 30.9925 161.221 30.5874 161.266 30.2724C161.986 26.7624 162.661 23.2525 163.426 19.7875C163.606 19.0225 164.326 18.7975 165.046 18.8425ZM163.651 6.73745C164.911 6.06245 165.856 6.46745 166.306 7.72745C166.441 8.04245 166.351 8.40245 166.351 9.39245C166.351 9.43745 166.306 10.1124 166.171 10.7874C165.811 12.3175 163.381 13.0824 162.256 11.9124C161.086 10.7874 162.301 7.50245 163.651 6.73745Z" fill="black"/>
<path d="M156.125 31.1275C156.17 31.2625 156.17 31.3975 156.125 31.5775C156.035 32.1175 155.63 32.7025 155.18 32.9275C154.28 33.4225 152.93 33.1525 152.57 32.5225C151.985 31.4425 151.4 30.3625 151.355 29.0575C151.355 28.4725 151.13 27.7975 150.77 27.3025C150.59 27.0325 149.915 26.7175 149.69 26.8525C148.835 27.2575 148.16 27.8875 147.35 28.3825C146.81 28.7425 146.27 29.0575 145.64 29.1925C142.31 30.0475 139.385 27.1675 140.105 23.7475C140.195 23.2975 140.375 22.8475 140.555 22.4425C141.725 19.9675 143.48 18.0775 145.955 16.8175C148.385 15.5575 150.5 16.2775 152.48 17.7175C152.885 18.0325 153.155 18.7975 153.11 19.3825C152.975 21.7675 153.425 24.0175 154.19 26.2675C154.595 27.4375 155.18 28.5175 155.675 29.6875C155.855 30.1375 156.035 30.6325 156.125 31.1275ZM148.61 22.8025C148.97 22.4425 150.365 21.1825 150.275 20.4175C150.23 20.1475 150.05 19.9225 149.555 19.8325C146.63 19.2475 143.93 21.2725 143.615 24.3325C143.48 25.3675 144.65 25.6825 145.46 25.5025C146.675 25.2325 147.8 23.6125 148.61 22.8025Z" fill="black"/>
<path d="M132.858 15.1075C132.678 15.7825 132.318 16.4125 132.273 17.0875C132.273 20.9575 132.183 24.8275 132.183 28.7425C132.183 29.2375 132.678 29.6875 132.858 30.2275C133.263 31.4875 132.498 32.7925 131.238 33.1525C129.933 33.5125 128.043 32.3875 127.998 30.9475C127.953 28.2025 127.998 25.4575 128.133 22.7125C128.223 20.9575 128.718 19.2475 128.853 17.4925C128.988 15.6925 128.943 13.8475 128.988 12.0025C128.988 10.3375 129.033 8.76246 129.663 7.14246C130.203 5.65746 130.203 3.94746 129.573 2.32746C129.168 1.15746 129.933 0.212455 131.148 0.0324572C132.183 -0.147543 133.128 0.437457 133.128 1.38246C133.173 3.58746 133.128 5.74746 133.128 8.98746C133.173 10.2475 133.173 11.5525 133.128 12.8125C133.128 13.5775 133.038 14.3425 132.858 15.1075Z" fill="black"/>
<path d="M115.532 13.4224C118.502 13.5124 121.877 17.1124 120.527 21.2524C120.437 21.5674 120.257 21.8824 120.032 22.1524C117.557 25.2124 114.452 26.9674 110.492 27.1474C109.952 27.1924 109.412 27.2374 108.872 27.1924C105.812 26.9674 105.317 27.8674 106.262 31.1074C106.397 31.6024 106.712 32.0524 106.847 32.5474C107.297 34.3474 106.892 35.7424 105.947 35.6974C104.642 35.6074 104.192 34.7074 103.742 33.6724C102.257 29.9374 101.537 26.0224 101.627 20.7574C101.627 21.1174 101.627 20.6674 101.627 20.2174C101.627 18.5974 101.537 17.0224 102.887 15.7624C104.372 14.4124 106.037 13.4224 108.062 13.4224C110.582 13.3774 113.057 13.3324 115.532 13.4224ZM116.747 20.3524C117.332 19.5424 117.377 18.6874 116.747 18.0124C115.982 17.2474 115.172 16.5274 114.002 16.5274C112.247 16.5274 110.447 16.4824 108.692 16.6174C105.992 16.8424 104.372 19.1374 104.957 21.9274C105.047 22.3324 105.542 22.8274 105.947 22.9174C106.982 23.1424 108.062 23.1424 109.097 23.2324C112.022 23.2324 114.812 22.9174 116.747 20.3524ZM101.627 20.5774V20.7574C101.627 20.7124 101.627 20.6224 101.627 20.5774Z" fill="black"/>
<path d="M75.3782 33.7375C75.8732 35.2675 74.8832 36.6625 73.3082 36.8875C71.9582 37.0225 71.1932 36.8875 69.7982 36.2125C68.6282 35.5825 67.9532 34.7275 67.0532 33.8725C66.1082 32.9275 65.2082 31.8925 64.9832 30.4975C64.6682 28.8775 64.1732 27.2125 64.1282 25.5475C64.0382 23.4775 64.8932 21.6775 65.0732 19.6525C65.0732 19.4275 65.0732 19.1575 65.1632 18.8875C65.2532 18.6175 65.4332 18.3475 65.5682 18.0775C65.7932 17.5825 65.6582 17.1775 65.7032 16.6825C65.7482 16.1875 66.1082 15.7375 66.3332 15.3325C66.6032 14.8375 66.8282 14.2975 67.0532 13.8025C67.3232 13.2625 67.5482 12.6775 67.9082 12.1375C68.2232 11.6875 68.2232 11.1475 68.6282 10.6525C69.2582 9.84249 70.0682 9.39249 70.9232 8.98749C72.0032 8.49249 74.6132 8.94249 75.0182 10.2025C75.1982 10.9225 75.8732 11.7325 75.0632 12.5875C74.5232 13.1725 73.8032 13.5325 73.3082 13.0375C72.8132 12.5875 71.4632 13.0375 71.1932 13.5325C70.9232 14.0275 70.5632 14.5225 70.3382 15.0625C70.1582 15.6025 70.1132 16.1875 69.9332 16.7275C69.7532 17.3125 69.4382 17.8075 69.2582 18.3475C69.0332 18.8875 68.8532 19.4275 68.7182 20.0125C68.3582 21.8575 68.0432 23.7475 67.7732 25.3675C67.9532 26.8075 67.8632 28.6975 68.6282 29.9575C69.2582 30.9475 70.2032 31.5325 71.0582 32.2525C71.9582 33.0625 72.7682 33.3775 73.9832 33.1075C74.6582 32.9275 75.1082 33.0175 75.3782 33.7375Z" fill="black"/>
<path d="M56.798 27.8425C57.248 28.2025 57.743 29.0125 57.653 29.5525C57.608 30.0925 56.978 30.8575 56.483 30.9925C55.178 31.3075 53.783 31.3075 53.648 31.3525C51.713 31.3525 51.038 31.3525 50.363 31.3525C44.738 31.3075 42.893 26.5825 43.523 22.5775C43.748 21.2725 44.288 19.9675 44.738 18.7075C44.918 18.2575 45.278 17.8525 45.683 17.4925C46.043 17.1775 46.583 16.9975 46.988 16.7275C50.588 14.2975 51.893 14.3425 55.088 17.0875C55.898 17.8075 56.258 20.5975 55.583 21.4075C55.268 21.7675 54.773 22.0375 54.323 22.2175C52.748 22.8925 51.173 23.4325 49.643 24.1525C49.013 24.4225 48.383 24.7825 47.978 25.3225C46.673 26.8975 50.408 28.2925 51.578 27.8875C52.613 27.4825 53.783 27.7525 54.908 27.3925C55.448 27.2575 56.303 27.4825 56.798 27.8425ZM48.203 20.0125C47.888 20.4175 48.113 20.8675 48.653 21.0025C49.328 21.1375 49.958 21.0025 50.498 20.6425C50.858 20.4175 51.488 19.8775 51.533 19.4725C51.533 19.2475 51.353 19.0225 50.858 18.9325C49.778 18.7075 48.878 19.1125 48.203 20.0125Z" fill="black"/>
<path d="M38.7118 16.5475C38.8918 17.6725 38.2618 19.2475 37.4068 20.6875C35.8318 23.2075 34.2118 25.7275 32.5018 28.1575C31.9618 28.8325 31.0168 29.2375 30.2968 29.7775C29.6668 30.2275 29.0368 30.4075 28.2718 30.0025C26.8768 29.3275 25.6168 28.6075 24.6718 27.3925C22.1518 24.2425 20.8018 20.6425 20.7568 16.6375C20.7118 15.9625 21.2068 15.2875 21.5668 14.6575C21.8368 14.1625 22.6018 14.2525 23.0068 14.5675C23.7718 15.2425 23.8168 16.1425 23.9968 17.0875C24.6268 20.2375 25.8868 23.0725 28.1368 25.4125C28.7668 26.0425 29.5768 25.9975 29.9368 25.2325C31.6018 21.7225 34.5268 18.8875 35.4718 14.9725C35.6518 14.1175 36.3718 13.8475 37.1818 13.9375C38.0368 13.9825 38.4418 14.5675 38.5768 15.3775C38.5768 15.5575 38.6218 15.7375 38.7118 16.5475Z" fill="black"/>
<path d="M16.2911 31.1275C16.3361 31.2625 16.3361 31.3975 16.2911 31.5775C16.2011 32.1175 15.7961 32.7025 15.3461 32.9275C14.4461 33.4225 13.0961 33.1525 12.7361 32.5225C12.1511 31.4425 11.5661 30.3625 11.5211 29.0575C11.5211 28.4725 11.2961 27.7975 10.9361 27.3025C10.7561 27.0325 10.0811 26.7175 9.85615 26.8525C9.00115 27.2575 8.32615 27.8875 7.51615 28.3825C6.97615 28.7425 6.43615 29.0575 5.80615 29.1925C2.47615 30.0475 -0.448853 27.1675 0.271147 23.7475C0.361147 23.2975 0.541147 22.8475 0.721147 22.4425C1.89115 19.9675 3.64615 18.0775 6.12115 16.8175C8.55115 15.5575 10.6661 16.2775 12.6461 17.7175C13.0511 18.0325 13.3211 18.7975 13.2761 19.3825C13.1411 21.7675 13.5911 24.0175 14.3561 26.2675C14.7611 27.4375 15.3461 28.5175 15.8411 29.6875C16.0211 30.1375 16.2011 30.6325 16.2911 31.1275ZM8.77615 22.8025C9.13615 22.4425 10.5311 21.1825 10.4411 20.4175C10.3961 20.1475 10.2161 19.9225 9.72115 19.8325C6.79615 19.2475 4.09615 21.2725 3.78115 24.3325C3.64615 25.3675 4.81615 25.6825 5.62615 25.5025C6.84115 25.2325 7.96615 23.6125 8.77615 22.8025Z" fill="black"/>
<path d="M196.391 47.9366C196.727 48.1886 196.853 48.5526 196.839 48.9726C196.825 49.5606 196.559 49.9946 196.223 50.4286C195.957 50.7786 195.565 50.7926 195.187 50.9186C194.683 51.1006 194.235 50.9746 193.787 50.8206C193.283 50.6526 192.807 50.3726 192.527 49.8686C192.303 49.4906 192.135 49.0006 192.107 48.5246C192.079 48.1186 192.163 47.7126 192.415 47.3766C192.667 47.0546 192.947 46.8446 193.395 46.9286C193.731 46.9986 194.067 47.0266 194.403 47.0546C195.173 47.1246 195.803 47.5026 196.391 47.9366ZM195.579 49.3086C195.775 49.0846 195.677 48.7066 195.439 48.5526C194.963 48.2586 194.459 48.1466 194.011 48.1746C193.073 48.1606 192.989 48.2866 193.297 49.0846C193.465 49.5326 194.207 50.0366 194.669 49.9946C194.767 49.9806 194.879 49.9666 194.949 49.9106C195.159 49.7146 195.383 49.5326 195.579 49.3086Z" fill="black"/>
<path d="M190.613 50.3166C190.613 50.6526 190.739 51.1566 190.529 51.4506C190.431 51.6046 190.263 51.7306 190.109 51.7726C190.039 51.8006 189.829 51.6186 189.815 51.5066C189.745 51.1286 189.675 50.7366 189.703 50.3446C189.759 49.7986 189.591 49.2946 189.451 48.7766C189.367 48.4966 189.199 48.3566 188.933 48.3426C188.639 48.3286 188.345 48.3846 188.233 48.7206C188.107 49.0426 188.023 49.3646 187.869 49.6726C187.659 50.0506 187.589 50.5266 187.183 50.7786C187.071 50.8486 186.903 50.9046 186.805 50.8766C186.693 50.8346 186.553 50.6806 186.539 50.5546C186.483 50.2746 186.469 49.9806 186.483 49.6866C186.511 49.1686 186.217 48.7486 186.105 48.2866C186.021 47.9926 185.419 47.8666 185.111 48.0066C184.453 48.3006 184.159 48.8606 184.117 49.5046C184.075 50.1486 183.907 50.7506 183.809 51.3806C183.767 51.6466 183.613 51.9126 183.515 52.1786C183.431 52.4026 183.263 52.5146 183.067 52.4306C182.899 52.3466 182.689 52.1786 182.661 52.0246C182.465 50.7786 182.703 49.6026 183.319 48.5106C183.487 48.2026 183.683 47.9226 183.893 47.6566C184.271 47.1806 184.775 46.9006 185.405 46.8866C185.811 46.8866 186.175 46.9846 186.455 47.3066C186.679 47.5726 186.931 47.8106 187.183 48.0346C187.239 48.0766 187.393 48.0906 187.449 48.0486C187.673 47.8666 187.897 47.6706 188.107 47.4606C188.387 47.1806 188.723 47.1806 189.059 47.2366C189.871 47.3906 190.473 48.0066 190.557 48.8186C190.613 49.2666 190.613 49.7006 190.613 50.1486C190.613 50.2046 190.613 50.2606 190.613 50.3166Z" fill="black"/>
<path d="M180.871 50.5966C181.011 50.7086 181.165 50.9606 181.137 51.1286C181.123 51.2966 180.927 51.5346 180.773 51.5766C180.367 51.6746 179.933 51.6746 179.891 51.6886C179.289 51.6886 179.079 51.6886 178.869 51.6886C177.119 51.6746 176.545 50.2046 176.741 48.9586C176.811 48.5526 176.979 48.1466 177.119 47.7546C177.175 47.6146 177.287 47.4886 177.413 47.3766C177.525 47.2786 177.693 47.2226 177.819 47.1386C178.939 46.3826 179.345 46.3966 180.339 47.2506C180.591 47.4746 180.703 48.3426 180.493 48.5946C180.395 48.7066 180.241 48.7906 180.101 48.8466C179.611 49.0566 179.121 49.2246 178.645 49.4486C178.449 49.5326 178.253 49.6446 178.127 49.8126C177.721 50.3026 178.883 50.7366 179.247 50.6106C179.569 50.4846 179.933 50.5686 180.283 50.4566C180.451 50.4146 180.717 50.4846 180.871 50.5966ZM178.197 48.1606C178.099 48.2866 178.169 48.4266 178.337 48.4686C178.547 48.5106 178.743 48.4686 178.911 48.3566C179.023 48.2866 179.219 48.1186 179.233 47.9926C179.233 47.9226 179.177 47.8526 179.023 47.8246C178.687 47.7546 178.407 47.8806 178.197 48.1606Z" fill="black"/>
<path d="M170.303 45.6347C170.247 45.8447 170.135 46.0407 170.121 46.2507C170.121 47.4547 170.093 48.6587 170.093 49.8767C170.093 50.0307 170.247 50.1707 170.303 50.3387C170.429 50.7307 170.191 51.1367 169.799 51.2487C169.393 51.3607 168.805 51.0107 168.791 50.5627C168.777 49.7087 168.791 48.8547 168.833 48.0007C168.861 47.4547 169.015 46.9227 169.057 46.3767C169.099 45.8167 169.085 45.2427 169.099 44.6687C169.099 44.1507 169.113 43.6607 169.309 43.1567C169.477 42.6947 169.477 42.1627 169.281 41.6587C169.155 41.2947 169.393 41.0007 169.771 40.9447C170.093 40.8887 170.387 41.0707 170.387 41.3647C170.401 42.0507 170.387 42.7227 170.387 43.7307C170.401 44.1227 170.401 44.5287 170.387 44.9207C170.387 45.1587 170.359 45.3967 170.303 45.6347Z" fill="black"/>
<path d="M166.632 50.6186C166.646 50.6606 166.646 50.7026 166.632 50.7586C166.604 50.9266 166.478 51.1086 166.338 51.1786C166.058 51.3326 165.638 51.2486 165.526 51.0526C165.344 50.7166 165.162 50.3806 165.148 49.9746C165.148 49.7926 165.078 49.5826 164.966 49.4286C164.91 49.3446 164.7 49.2466 164.63 49.2886C164.364 49.4146 164.154 49.6106 163.902 49.7646C163.734 49.8766 163.566 49.9746 163.37 50.0166C162.334 50.2826 161.424 49.3866 161.648 48.3226C161.676 48.1826 161.732 48.0426 161.788 47.9166C162.152 47.1466 162.698 46.5586 163.468 46.1666C164.224 45.7746 164.882 45.9986 165.498 46.4466C165.624 46.5446 165.708 46.7826 165.694 46.9646C165.652 47.7066 165.792 48.4066 166.03 49.1066C166.156 49.4706 166.338 49.8066 166.492 50.1706C166.548 50.3106 166.604 50.4646 166.632 50.6186ZM164.294 48.0286C164.406 47.9166 164.84 47.5246 164.812 47.2866C164.798 47.2026 164.742 47.1326 164.588 47.1046C163.678 46.9226 162.838 47.5526 162.74 48.5046C162.698 48.8266 163.062 48.9246 163.314 48.8686C163.692 48.7846 164.042 48.2806 164.294 48.0286Z" fill="black"/>
<path d="M160.271 46.7267C160.313 46.9787 160.201 47.1467 159.991 47.2727C159.641 47.4827 159.291 47.6927 158.885 47.7907C158.717 47.8327 158.521 47.8887 158.311 47.9027C158.059 47.9447 157.807 47.9447 157.611 47.8887C157.527 47.8747 157.443 47.8327 157.373 47.8607C157.289 47.8887 157.247 47.9727 157.219 48.0427C157.051 48.4627 157.107 48.9527 157.373 49.3167C157.485 49.4567 157.611 49.5827 157.779 49.6247C157.933 49.6667 158.101 49.6387 158.255 49.6247C158.521 49.5687 158.801 49.5267 159.067 49.4847C159.221 49.4707 159.389 49.4427 159.543 49.4707C159.697 49.4987 159.851 49.5827 159.907 49.7367C159.977 49.8907 159.921 50.0867 159.795 50.2267C159.683 50.3527 159.515 50.4227 159.347 50.4927C158.913 50.6607 158.451 50.7447 157.989 50.6887C157.345 50.5907 156.743 50.1987 156.407 49.6527C155.777 48.6447 156.197 47.3707 156.435 46.3067C156.519 45.9147 156.687 45.5507 156.939 45.2287C157.177 44.8927 157.471 44.7107 157.877 44.7247C158.465 44.7667 159.053 44.8227 159.543 45.1867C159.935 45.4807 160.215 45.8447 160.229 46.3487C160.229 46.4747 160.243 46.6007 160.271 46.7267ZM159.123 46.5307C159.291 46.3767 159.305 46.1807 159.137 46.0547C158.983 45.9567 158.829 45.8447 158.661 45.7607C158.143 45.5367 157.849 45.6347 157.625 46.1387C157.583 46.2227 157.569 46.3067 157.541 46.3907C157.275 47.0627 157.513 47.0907 158.101 46.9927C158.465 46.9787 158.829 46.8247 159.123 46.5307ZM157.471 43.1567C157.163 43.3807 156.673 43.1567 156.589 42.7787C156.561 42.6667 156.547 42.4987 156.701 42.4567C157.275 42.2607 157.681 41.8127 158.171 41.4907C158.381 41.3507 158.563 41.1827 158.787 41.0847C158.997 40.9867 159.221 41.0287 159.403 41.1547C159.585 41.2667 159.641 41.4767 159.543 41.8267C159.501 41.8827 159.431 42.0647 159.319 42.1067C158.647 42.3727 158.031 42.7227 157.471 43.1567Z" fill="black"/>
<path d="M154.407 45.5926C154.673 45.7746 154.687 46.1666 154.435 46.3346C154.155 46.5026 153.791 46.4746 153.525 46.6846C153.245 46.8946 153.147 47.2586 153.063 47.5806C152.923 48.1966 152.699 48.7846 152.489 49.3866C152.419 49.6106 152.125 49.7926 151.929 49.7646C151.705 49.7366 151.453 49.5126 151.425 49.2886C151.397 48.9946 151.397 48.7006 151.369 48.0846C151.341 47.9026 151.467 47.4966 151.887 47.1186C152.279 46.7686 152.517 46.2646 152.839 45.8446C153.175 45.3966 153.651 45.3546 154.155 45.4526C154.253 45.4666 154.323 45.5506 154.407 45.5926Z" fill="black"/>
<path d="M149.963 44.6406C150.145 44.6126 150.509 44.8506 150.439 45.0466C150.425 45.1166 150.383 45.1726 150.397 45.2286C150.411 45.2566 150.425 45.2846 150.439 45.3266C150.439 45.3686 150.397 45.4106 150.369 45.4386C149.907 45.8726 149.249 45.7326 148.703 45.9146C148.633 45.9426 148.563 45.9706 148.479 45.9706C148.437 45.9706 148.381 45.9706 148.339 45.9846C148.213 46.0266 148.213 46.1946 148.199 46.3066C148.143 46.6986 148.031 47.0906 147.975 47.4826C147.863 48.3226 147.765 49.1486 147.695 49.9746C147.639 50.5206 148.213 50.9406 147.695 51.4726C147.569 51.5986 147.331 51.6546 147.149 51.6826C146.953 51.7106 146.897 51.5286 146.799 51.3886C146.519 50.9826 146.561 50.5346 146.505 50.2126C146.491 49.7086 146.547 49.3306 146.589 48.9526C146.617 48.5746 146.715 48.1966 146.827 47.8326C146.869 47.6646 146.939 47.0906 146.981 46.9506C147.023 46.7966 147.051 46.6286 147.051 46.4746C147.051 46.4186 146.953 46.3206 146.883 46.3066C146.785 46.2926 146.673 46.3066 146.589 46.3486C146.337 46.4466 146.085 46.4886 145.805 46.4886C145.189 46.5166 144.587 46.7126 143.971 46.6706C143.817 46.6566 143.747 46.6146 143.635 46.4746C143.467 46.2086 143.649 45.7186 143.943 45.6346C144.069 45.5926 144.195 45.6066 144.321 45.6206C144.573 45.6486 144.853 45.5786 145.091 45.5226C145.231 45.4946 145.833 45.4246 146.001 45.3966C146.323 45.3266 146.659 45.2146 146.995 45.1586C147.149 45.1306 147.177 45.0606 147.219 44.9206C147.359 44.4166 147.345 43.8986 147.317 43.3946C147.303 43.0306 147.513 42.8626 147.751 42.6806C147.835 42.6106 148.003 42.5966 148.101 42.6386C148.241 42.7086 148.353 42.8626 148.479 42.9606C148.675 43.1006 148.283 44.2906 148.339 44.5566C148.367 44.7106 148.409 44.7806 148.563 44.7666C148.661 44.7666 149.781 44.6686 149.963 44.6406Z" fill="black"/>
<path d="M142.22 46.9087C142.92 47.4407 143.186 48.1967 143.172 49.0647C143.172 49.3587 143.172 49.6527 143.172 49.9467C143.158 50.1567 142.948 50.3807 142.71 50.3947C142.388 50.4227 142.122 50.2127 142.15 49.8907C142.178 49.5547 142.122 49.2187 142.122 48.8827C142.136 48.2667 141.884 47.8747 141.408 47.5527C140.736 47.0907 140.05 47.1187 139.63 47.7907C139.35 48.2387 139 48.6587 138.916 49.2187C138.888 49.4567 138.804 49.6947 138.734 49.9187C138.678 50.1147 138.328 50.2827 138.132 50.2547C137.838 50.1987 137.712 49.9047 137.698 49.6387C137.67 49.2607 137.67 48.8687 137.67 48.4907C137.656 48.1687 137.726 47.8327 137.796 47.4967C137.852 47.2727 137.922 47.0487 137.978 46.8387C138.076 46.4467 138.3 46.3627 138.748 46.5867C138.916 46.6707 139.028 46.8527 139.252 46.6987C139.49 46.5447 139.742 46.3907 139.994 46.2367C140.358 46.0267 140.722 46.0267 141.1 46.2647C141.45 46.5027 141.87 46.6567 142.22 46.9087Z" fill="black"/>
<path d="M135.733 46.9366C136.069 47.1886 136.195 47.5526 136.181 47.9726C136.167 48.5606 135.901 48.9946 135.565 49.4286C135.299 49.7786 134.907 49.7926 134.529 49.9186C134.025 50.1006 133.577 49.9746 133.129 49.8206C132.625 49.6526 132.149 49.3726 131.869 48.8686C131.645 48.4906 131.477 48.0006 131.449 47.5246C131.421 47.1186 131.505 46.7126 131.757 46.3766C132.009 46.0546 132.289 45.8446 132.737 45.9286C133.073 45.9986 133.409 46.0266 133.745 46.0546C134.515 46.1246 135.145 46.5026 135.733 46.9366ZM134.921 48.3086C135.117 48.0846 135.019 47.7066 134.781 47.5526C134.305 47.2586 133.801 47.1466 133.353 47.1746C132.415 47.1606 132.331 47.2866 132.639 48.0846C132.807 48.5326 133.549 49.0366 134.011 48.9946C134.109 48.9806 134.221 48.9666 134.291 48.9106C134.501 48.7146 134.725 48.5326 134.921 48.3086Z" fill="black"/>
<path d="M129.955 49.3166C129.955 49.6526 130.081 50.1566 129.871 50.4506C129.773 50.6046 129.605 50.7306 129.451 50.7726C129.381 50.8006 129.171 50.6186 129.157 50.5066C129.087 50.1286 129.017 49.7366 129.045 49.3446C129.101 48.7986 128.933 48.2946 128.793 47.7766C128.709 47.4966 128.541 47.3566 128.275 47.3426C127.981 47.3286 127.687 47.3846 127.575 47.7206C127.449 48.0426 127.365 48.3646 127.211 48.6726C127.001 49.0506 126.931 49.5266 126.525 49.7786C126.413 49.8486 126.245 49.9046 126.147 49.8766C126.035 49.8346 125.895 49.6806 125.881 49.5546C125.825 49.2746 125.811 48.9806 125.825 48.6866C125.853 48.1686 125.559 47.7486 125.447 47.2866C125.363 46.9926 124.761 46.8666 124.453 47.0066C123.795 47.3006 123.501 47.8606 123.459 48.5046C123.417 49.1486 123.249 49.7506 123.151 50.3806C123.109 50.6466 122.955 50.9126 122.857 51.1786C122.773 51.4026 122.605 51.5146 122.409 51.4306C122.241 51.3466 122.031 51.1786 122.003 51.0246C121.807 49.7786 122.045 48.6026 122.661 47.5106C122.829 47.2026 123.025 46.9226 123.235 46.6566C123.613 46.1806 124.117 45.9006 124.747 45.8866C125.153 45.8866 125.517 45.9846 125.797 46.3066C126.021 46.5726 126.273 46.8106 126.525 47.0346C126.581 47.0766 126.735 47.0906 126.791 47.0486C127.015 46.8666 127.239 46.6706 127.449 46.4606C127.729 46.1806 128.065 46.1806 128.401 46.2366C129.213 46.3906 129.815 47.0066 129.899 47.8186C129.955 48.2666 129.955 48.7006 129.955 49.1486C129.955 49.2046 129.955 49.2606 129.955 49.3166Z" fill="black"/>
<path d="M206.261 42.7785C206.316 42.7803 206.37 42.7847 206.424 42.7873C206.523 42.7833 206.615 42.7801 206.697 42.7795C206.772 42.7789 206.843 42.7972 206.907 42.8264C206.92 42.8279 206.933 42.8277 206.945 42.8293C207.13 42.8529 207.339 42.8904 207.498 42.9631C208.081 43.2299 208.434 43.5025 209.134 43.9387C209.366 44.0833 209.601 44.2311 209.838 44.4592C210.075 44.6886 210.296 44.9818 210.545 45.4113C210.588 45.4862 210.639 45.5636 210.698 45.6525C210.755 45.7378 210.822 45.8373 210.886 45.9387C211.014 46.1441 211.152 46.3931 211.231 46.6906C211.38 47.2485 211.528 47.9895 210.979 48.8498C210.755 49.2021 210.484 49.6242 210.187 49.9983C209.898 50.3633 209.543 50.7359 209.135 50.9406C208.808 51.1045 208.242 51.2219 207.68 51.2805C207.105 51.3406 206.441 51.3486 205.891 51.2414C205.252 51.1167 204.587 50.9477 204.004 50.5744C203.43 50.2072 203.043 49.955 202.786 49.7395C202.5 49.4994 202.344 49.2775 202.242 48.9748C202.141 48.6752 201.998 48.0904 201.92 47.4758C201.88 47.1664 201.856 46.838 201.865 46.5266C201.873 46.2215 201.914 45.9 202.025 45.6223C202.385 44.7274 202.617 44.0865 203.405 43.5315C203.488 43.4467 203.58 43.3603 203.679 43.2795C203.941 43.068 204.29 42.8654 204.717 42.8244C205.198 42.7783 205.767 42.7623 206.261 42.7785ZM206.409 43.7873C206.096 43.8021 205.703 43.8383 205.313 43.9035C204.776 43.9933 204.316 44.1286 204.053 44.299C203.98 44.378 203.912 44.4596 203.847 44.5383C203.421 45.061 203.354 45.4284 203.22 45.7658C203.142 45.9615 203.088 46.1901 203.062 47.135C203.055 47.4052 203.149 47.5536 203.445 48.1858C203.653 48.6295 203.899 49.0054 204.097 49.2092C204.202 49.3161 204.35 49.4093 204.545 49.4983C204.747 49.5903 204.945 49.6555 205.177 49.7434C205.318 49.7972 205.475 49.8308 205.641 49.8557L206.16 49.9182L206.171 49.9192L206.18 49.9211C206.424 49.9602 206.843 49.9912 208.167 49.9973C208.295 49.9934 208.372 49.9881 208.425 49.9817C208.475 49.9755 208.508 49.9685 208.556 49.9582C208.643 49.94 208.729 49.9471 208.808 49.9719C208.986 49.8498 209.187 49.6493 209.403 49.3772C209.663 49.0493 209.908 48.6687 210.136 48.3117C210.454 47.8119 210.392 47.422 210.265 46.9494C210.223 46.7918 210.146 46.6402 210.039 46.4699C209.985 46.3837 209.929 46.3014 209.866 46.2072C209.806 46.1167 209.74 46.0165 209.679 45.9123C209.46 45.5332 209.293 45.3234 209.143 45.1789C208.992 45.0332 208.841 44.9356 208.604 44.7883C207.819 44.2992 207.586 44.1037 207.081 43.8723C207.077 43.8709 207.057 43.8636 207.012 43.8537C206.963 43.8427 206.898 43.8317 206.818 43.8215C206.702 43.8066 206.563 43.7955 206.409 43.7873Z" fill="black"/>
<path d="M204.403 45.7258C204.569 45.505 204.881 45.4604 205.102 45.6261L205.223 45.717C205.444 45.8828 205.489 46.1964 205.323 46.4172C205.157 46.6376 204.843 46.6815 204.623 46.5158L204.502 46.425C204.282 46.2592 204.237 45.9466 204.403 45.7258Z" fill="black"/>
<path d="M207.396 45.4791C207.603 45.4196 207.815 45.5004 207.936 45.6637C208.026 45.7541 208.082 45.8792 208.082 46.0172C208.082 46.1577 208.023 46.2838 207.93 46.3746C207.929 46.3757 207.927 46.3777 207.924 46.3814C207.918 46.3871 207.911 46.3946 207.903 46.4029C207.87 46.437 207.819 46.4843 207.752 46.5348L207.654 46.608L207.533 46.6275C207.345 46.6582 207.187 46.5911 207.09 46.5201C207.009 46.4609 206.839 46.2987 206.854 46.0348L206.87 45.9303C206.927 45.7063 207.111 45.5999 207.155 45.5748C207.237 45.5286 207.328 45.4989 207.396 45.4791ZM207.582 46.5172C207.616 46.5172 207.646 46.5131 207.672 46.5084C207.643 46.5137 207.613 46.5172 207.582 46.5172ZM207.745 46.4879C207.727 46.494 207.71 46.5004 207.691 46.5045C207.697 46.5033 207.702 46.5028 207.707 46.5016C207.721 46.4979 207.733 46.4919 207.745 46.4879ZM207.882 46.4146C207.898 46.402 207.911 46.393 207.915 46.3893C207.92 46.3845 207.924 46.3799 207.928 46.3766C207.913 46.3904 207.898 46.4026 207.882 46.4146Z" fill="black"/>
<path d="M204.646 49.0809C204.646 48.9169 204.699 48.6828 204.772 48.4706C204.849 48.248 204.973 47.9739 205.157 47.7489L205.215 47.6864C205.353 47.5493 205.523 47.4748 205.667 47.4325C205.837 47.3823 206.023 47.3617 206.2 47.3573C206.467 47.3506 206.757 47.3795 207.03 47.4325L207.297 47.493L207.355 47.5086L207.409 47.5379C207.724 47.709 208.013 47.8743 208.162 47.994L208.184 48.0106L208.203 48.0301C208.316 48.1431 208.382 48.2685 208.45 48.41C208.571 48.6585 208.466 48.9575 208.218 49.078C207.969 49.1983 207.67 49.0948 207.55 48.8465C207.526 48.7973 207.51 48.768 207.5 48.7499C207.417 48.6921 207.246 48.5895 206.988 48.4481C206.733 48.3865 206.455 48.3516 206.226 48.3573C206.102 48.3604 206.009 48.3738 205.949 48.3915C205.933 48.3962 205.922 48.402 205.915 48.4051C205.841 48.5033 205.77 48.6449 205.718 48.7967C205.691 48.8745 205.671 48.9466 205.659 49.0038C205.645 49.0681 205.646 49.0916 205.646 49.0809C205.646 49.357 205.422 49.5809 205.146 49.5809C204.869 49.5809 204.646 49.357 204.646 49.0809Z" fill="black"/>
</svg>
